<?xml version="1.0" standalone="no"?>
<!DOCTYPE svg PUBLIC "-//W3C//DTD SVG 1.1//EN" "http://www.w3.org/Graphics/SVG/1.1/DTD/svg11.dtd" >
<svg xmlns="http://www.w3.org/2000/svg">
<metadata></metadata>
<defs>
<font id="orbi_sans_boldregular" horiz-adv-x="1003" >
<font-face units-per-em="2048" ascent="1561" descent="-487" />
<missing-glyph horiz-adv-x="491" />
<glyph unicode="&#xfb01;" horiz-adv-x="1130" d="M33 827v177h129v24q0 79 18 150t57.5 134t98.5 108t146 71.5t194 26.5q127 0 248 -17q0 -105 -6 -180q-115 16 -244 16q-53 0 -94.5 -12t-79.5 -41.5t-59 -88.5t-21 -144v-47h596v-1004h-258v827h-338v-827h-258v827h-129z" />
<glyph unicode="&#xfb02;" horiz-adv-x="1167" d="M33 827v177h129q0 110 35.5 200t106.5 158t187 105.5t267 37.5h291v-1505h-258v1325q-39 0 -66 -1t-61.5 -4.5t-58.5 -10t-51 -18t-45.5 -28t-36.5 -40.5t-28.5 -55t-17 -72.5t-6.5 -91.5h229v-177h-229v-827h-258v827h-129z" />
<glyph horiz-adv-x="2048" />
<glyph horiz-adv-x="2048" />
<glyph unicode="&#xd;" horiz-adv-x="2048" />
<glyph unicode=" "  horiz-adv-x="491" />
<glyph unicode="&#x09;" horiz-adv-x="491" />
<glyph unicode="&#xa0;" horiz-adv-x="491" />
<glyph unicode="!" horiz-adv-x="569" d="M152 1475h278l-65 -1057h-142zM154 119q0 24 5 45.5t18.5 46.5t44 40t75.5 15q67 0 101 -44t34 -103q0 -61 -32 -104.5t-111 -43.5q-71 0 -103 42.5t-32 105.5z" />
<glyph unicode="&#x22;" horiz-adv-x="657" d="M111 1475h196l-28 -404h-140zM377 1475h196l-28 -404h-139z" />
<glyph unicode="#" d="M-16 367l18 153h168l41 438h-174l16 154h174l37 363h152l-39 -363h270l35 363h149l-36 -363h178l-19 -154h-176l-45 -438h185l-17 -153h-182l-39 -367h-152l41 367h-272l-35 -367h-149l39 367h-168zM315 520h269l45 438h-269z" />
<glyph unicode="$" d="M55 96l86 211q134 -122 295 -149v475l-22 10q-82 37 -142 77t-108.5 94t-73 124.5t-24.5 157.5q0 172 95.5 278t274.5 125v158h137v-156q80 0 162.5 -21.5t136.5 -52.5l-57 -221q-47 41 -114.5 70t-127.5 29v-437q216 -80 303 -178.5t87 -271.5q0 -51 -10 -102.5 t-37 -109t-69 -103t-113 -80t-161 -43.5v-211h-137v200q-117 4 -205.5 36.5t-175.5 90.5zM289 1122q0 -68 41 -117.5t106 -74.5v373q-59 0 -103 -47t-44 -134zM573 158q148 43 148 217q0 126 -148 198v-415z" />
<glyph unicode="%" horiz-adv-x="1478" d="M63 1143q0 79 29 144t76.5 105.5t105 62.5t117.5 22q150 0 240 -90t90 -246q0 -83 -29 -149t-76.5 -106.5t-104.5 -61.5t-118 -21q-148 0 -239 91t-91 249zM252 4l866 1487l117 -66l-866 -1488zM256 1169q0 -233 139 -233q63 0 98 42.5t35 143.5q0 116 -33.5 168.5 t-109.5 52.5q-22 0 -43 -8t-41 -26t-32.5 -54t-12.5 -86zM758 289q0 80 29 145.5t76.5 106t104.5 62.5t117 22q151 0 240.5 -90.5t89.5 -247.5q0 -82 -29 -148t-76.5 -106t-104.5 -61t-118 -21q-148 0 -238.5 91t-90.5 247zM950 315q0 -231 140 -231q63 0 98 42t35 142 q0 118 -34 171t-110 53q-50 0 -89.5 -40.5t-39.5 -136.5z" />
<glyph unicode="&#x26;" horiz-adv-x="1402" d="M41 379q0 51 11 98.5t25.5 82t42.5 70t47.5 56.5t56.5 48t54 38t54 34q5 3 8 5q-74 100 -97.5 157t-23.5 150q0 75 23 138.5t63 108t92.5 75.5t112 46t121.5 15q162 0 256 -79t94 -224q0 -53 -14.5 -100.5t-43.5 -86t-57.5 -68.5t-72.5 -59t-70.5 -45t-67.5 -38 q17 -24 35.5 -49t44.5 -56.5t42 -51.5t50.5 -60t47 -54t55 -63t51.5 -59q39 62 65.5 154.5t26.5 178.5h189q0 -108 -52.5 -245t-103.5 -205q64 -71 122 -100t148 -37l-8 -142q-60 -24 -147 -24q-181 0 -291 116q-73 -61 -182 -100t-238 -39q-70 0 -132 10.5t-125.5 39 t-109 73.5t-74 119.5t-28.5 171.5zM301 408q0 -67 26 -120.5t67 -84t86.5 -46.5t90.5 -16q146 0 238 76q-238 258 -383 469q-125 -112 -125 -278zM459 1153q0 -36 11 -70.5t21.5 -52.5t32.5 -51l37 -55q101 64 151 116t50 123q0 20 -3 38.5t-12.5 40.5t-24.5 38t-43 26.5 t-65 10.5q-69 0 -112 -43t-43 -121z" />
<glyph unicode="'" horiz-adv-x="378" d="M111 1475h196l-28 -404h-140z" />
<glyph unicode="(" horiz-adv-x="630" d="M72 604q0 150 35 299.5t94.5 275t134.5 230t160 180.5l108 -82q-58 -75 -102 -154.5t-85 -188.5t-63 -251.5t-22 -308.5q0 -162 22 -303t62.5 -250.5t85.5 -191t102 -156.5l-108 -82q-179 161 -301.5 426.5t-122.5 556.5z" />
<glyph unicode=")" horiz-adv-x="630" d="M27 -297q57 75 102 156.5t85.5 191t62.5 250.5t22 303q0 166 -22 308.5t-63 251.5t-85 188.5t-102 154.5l108 82q85 -76 160 -180.5t134.5 -230t94.5 -275t35 -299.5q0 -291 -122.5 -556.5t-301.5 -426.5z" />
<glyph unicode="*" horiz-adv-x="856" d="M74 1079l231 119l-227 121l80 135l217 -141l-8 260h155l-10 -260l221 141l80 -137l-229 -119l231 -119l-80 -137l-223 143l10 -264h-157l8 258l-217 -135z" />
<glyph unicode="+" horiz-adv-x="1069" d="M82 594v162h371v370h161v-370h371v-162h-371v-371h-161v371h-371z" />
<glyph unicode="," horiz-adv-x="446" d="M84 -225q37 45 61 94t29 84q-82 82 -82 162q0 68 38 108.5t93 40.5q68 0 112 -34.5t44 -116.5q0 -115 -72.5 -230t-161.5 -180z" />
<glyph unicode="-" horiz-adv-x="722" d="M127 434v187h461v-187h-461z" />
<glyph unicode="." horiz-adv-x="446" d="M88 119q0 24 5 45.5t18.5 46.5t44 40t75.5 15q67 0 101.5 -44t34.5 -103q0 -61 -32.5 -104.5t-111.5 -43.5q-71 0 -103 42.5t-32 105.5z" />
<glyph unicode="/" horiz-adv-x="651" d="M-49 -395l620 1992l148 -38l-623 -1995z" />
<glyph unicode="0" d="M74 758q0 163 26.5 293t69.5 212.5t101.5 137.5t119 77.5t125.5 22.5q73 0 135 -22t120 -75.5t98.5 -136.5t64.5 -213t24 -296q0 -374 -119.5 -581.5t-322.5 -207.5q-215 0 -328.5 204t-113.5 585zM336 696q0 -132 11 -229.5t28 -153t42.5 -88.5t48 -43t50.5 -10 q180 0 180 524v76q0 101 -6 182t-15 135.5t-23.5 94t-29 61t-34 34t-35.5 16t-37 3.5t-37 -3.5t-35.5 -16t-34 -34t-29 -61t-23.5 -94t-15 -135.5t-6 -182v-76z" />
<glyph unicode="1" d="M197 1165v144l268 166h190v-1475h-274v1194z" />
<glyph unicode="2" d="M90 0v150l293 385q50 64 86.5 118.5t79 132t65.5 161t23 165.5q0 93 -47 132.5t-107 39.5q-67 0 -129.5 -41t-152.5 -149l-111 120q209 287 481 287q45 0 88 -7.5t92.5 -31t86 -60t60.5 -100.5t24 -147q0 -140 -64.5 -269.5t-195.5 -285.5q-40 -48 -134.5 -156 t-146.5 -170h510l-21 -274h-780z" />
<glyph unicode="3" d="M53 121l113 168q4 -4 27 -23t33.5 -27t35.5 -24t45 -23t50 -13.5t61 -6.5q61 0 107.5 24t72.5 63.5t38.5 84t12.5 92.5q0 74 -21 126t-57.5 78t-75.5 37t-85 11q-39 0 -134 -10v168l95 8q113 9 181.5 78.5t68.5 185.5q0 89 -41 135.5t-117 46.5q-65 0 -126.5 -37 t-146.5 -126l-108 157q197 209 448 209q34 0 72.5 -5.5t92 -26.5t94.5 -54.5t70.5 -97.5t29.5 -148q0 -123 -74 -223t-203 -147v-10q58 -7 110.5 -29t101.5 -61.5t78.5 -107t29.5 -153.5q0 -106 -31 -190.5t-79.5 -135.5t-111.5 -85t-121.5 -47t-115.5 -13q-155 0 -251 40.5 t-169 111.5z" />
<glyph unicode="4" d="M66 299v170l561 1006h213v-959h114v-217h-114v-299h-275v299h-499zM272 516h293v537z" />
<glyph unicode="5" d="M66 121l112 168q37 -35 63.5 -55t79 -41t109.5 -21q108 0 163.5 81t55.5 196q0 80 -19 137t-52.5 87t-71 43t-82.5 13q-106 0 -217 -57l-37 30l33 773h645l-17 -275h-464l-13 -317q70 16 129 16q37 0 71.5 -3t80.5 -14t85 -29t78.5 -51t67 -76.5t45 -109t17.5 -145.5 q0 -120 -41 -217.5t-109.5 -158.5t-153 -93.5t-175.5 -32.5q-227 0 -383 152z" />
<glyph unicode="6" d="M63 520q0 211 38 358.5t118 258.5q240 336 580 372l35 -163q-107 -26 -194 -79t-143.5 -122t-92 -144.5t-50.5 -156.5q81 78 244 78q79 0 143.5 -22.5t117 -70.5t81.5 -132.5t29 -198.5q0 -229 -136 -379t-333 -150q-92 0 -167 32.5t-124 86.5t-83 126t-48.5 148.5 t-14.5 157.5zM334 514q0 -344 178 -344t178 295q0 149 -43.5 216t-134.5 67q-178 0 -178 -234z" />
<glyph unicode="7" d="M119 1200l24 275h772v-201l-444 -1274h-244l494 1200h-602z" />
<glyph unicode="8" d="M59 360q0 71 20 132t48 100t69 73.5t70 51t64 33.5q-53 37 -88.5 68.5t-70.5 75.5t-52 98t-17 120q0 89 29 160t72.5 112.5t100.5 69t107.5 37.5t98.5 10q50 0 97.5 -6t106 -27t101 -55t71.5 -95t29 -142q0 -51 -10.5 -96t-24.5 -76.5t-40.5 -62t-44 -47t-51 -37t-46 -27 t-43.5 -21.5q46 -25 73.5 -41.5t74 -54t73 -75t47.5 -96.5t21 -126q0 -104 -40 -191t-105 -141.5t-144.5 -84.5t-162.5 -30q-202 0 -317.5 100t-115.5 291zM301 387q0 -99 53.5 -164t137.5 -65q85 0 131.5 60t46.5 142q0 46 -15.5 88.5t-35.5 71.5t-54 59t-57.5 45.5 t-58.5 37.5q-56 -40 -102 -110t-46 -165zM356 1135q0 -44 12 -78.5t40 -65.5t51.5 -50t68.5 -50q61 42 106.5 104t45.5 140q0 178 -170 178q-25 0 -50 -8.5t-49.5 -27.5t-39.5 -56t-15 -86z" />
<glyph unicode="9" d="M55 987q0 113 37 210t100 163t149 103.5t183 37.5q98 0 175.5 -33t125.5 -86t79.5 -126.5t44 -148t12.5 -157.5q0 -391 -158 -628q-102 -151 -254.5 -243t-323.5 -102l-35 164q102 13 188.5 61.5t144.5 118.5t95 147.5t52 158.5q-81 -78 -236 -78q-73 0 -139.5 26.5 t-121 78t-86.5 138t-32 195.5zM334 1006q0 -149 43.5 -216t134.5 -67q178 0 178 233q0 344 -178 344t-178 -294z" />
<glyph unicode=":" horiz-adv-x="530" d="M125 119q0 24 5 45.5t18.5 46.5t44 40t75.5 15q67 0 101 -44t34 -103q0 -61 -32 -104.5t-111 -43.5q-71 0 -103 42.5t-32 105.5zM125 872q0 24 5 45.5t18.5 47t44 40.5t75.5 15q67 0 101 -44.5t34 -103.5q0 -61 -32 -104t-111 -43q-71 0 -103 42t-32 105z" />
<glyph unicode=";" horiz-adv-x="530" d="M100 -225q37 45 61 94t29 84q-81 81 -81 162q0 68 38 108.5t93 40.5q68 0 111.5 -34.5t43.5 -116.5q0 -123 -70.5 -233t-162.5 -177zM125 872q0 24 5 45.5t18.5 47t44 40.5t75.5 15q67 0 101 -44.5t34 -103.5q0 -61 -32 -104t-111 -43q-71 0 -103 42t-32 105z" />
<glyph unicode="&#x3c;" horiz-adv-x="1050" d="M39 668l860 596l62 -140l-660 -460l660 -459l-62 -144z" />
<glyph unicode="=" horiz-adv-x="1069" d="M102 401v162h865v-162h-865zM102 786v162h865v-162h-865z" />
<glyph unicode="&#x3e;" horiz-adv-x="1050" d="M74 205l659 459l-659 460l61 140l860 -596l-860 -607z" />
<glyph unicode="?" horiz-adv-x="942" d="M49 1214q186 287 467 287q50 0 97.5 -8.5t97.5 -32.5t86.5 -61.5t60 -100t23.5 -143.5q0 -61 -13 -112t-49.5 -110.5t-71.5 -105t-108 -133.5q-68 -81 -110.5 -154.5t-47.5 -150.5h-149q0 61 14.5 119t27.5 85t34 64q16 28 48.5 80t52.5 87t42.5 82t33.5 94t11 94 q0 56 -14.5 96t-39.5 59t-49 27t-51 8q-71 0 -135 -40t-147 -150zM268 119q0 24 5 45.5t19 46.5t44.5 40t75.5 15q67 0 101 -44t34 -103q0 -61 -32.5 -104.5t-111.5 -43.5q-71 0 -103 42.5t-32 105.5z" />
<glyph unicode="@" horiz-adv-x="1841" d="M61 565q0 150 30.5 282t83.5 231.5t125.5 181t154.5 137t173 93t179 54.5t174 17q137 0 257.5 -28t222 -86t174.5 -142t114 -202t41 -259q0 -163 -77 -317.5t-197 -248.5t-242 -94q-45 0 -80.5 6.5t-60.5 20.5t-42.5 28.5t-31 39t-21 43.5t-16.5 49q-82 -89 -156 -138 t-159 -49q-78 0 -138.5 69t-60.5 198q0 300 242 512q72 63 177 101t173 38q137 0 243 -53l13 -15l-115 -452q-35 -147 -35 -176q0 -101 97 -101q37 0 78.5 17.5t85 59t78 101.5t57 154t22.5 207q0 124 -36 224.5t-97 167t-144 111.5t-174.5 65t-191.5 20q-152 0 -282 -56 t-227.5 -162.5t-152.5 -273t-55 -375.5q0 -186 53.5 -333.5t146 -238.5t211 -138.5t255.5 -47.5q117 0 230.5 34t206.5 92t166 122t134 138l76 -64q-38 -45 -68 -78.5t-82.5 -84.5t-101 -88t-117 -78.5t-137.5 -67.5t-156 -43t-178 -17q-180 0 -335 62.5t-267 176.5 t-176 282.5t-64 371.5zM707 479q0 -58 22.5 -95.5t65.5 -37.5q95 0 176.5 113.5t128.5 310.5l47 193q-36 20 -94 20q-74 0 -139 -49t-109 -123q-98 -154 -98 -332z" />
<glyph unicode="A" horiz-adv-x="1220" d="M4 0l518 1475h248l449 -1475h-289l-109 389h-454l-125 -389h-238zM418 567h356l-166 572z" />
<glyph unicode="B" horiz-adv-x="1196" d="M145 0v1475h463q37 0 71.5 -2.5t82 -11t87 -23t80.5 -41.5t69.5 -63t46.5 -90.5t18 -121.5q0 -255 -240 -323v-11q146 -36 225.5 -117.5t79.5 -228.5q0 -92 -30 -167t-81.5 -125t-122 -84.5t-148 -50t-162.5 -15.5h-439zM420 201h129q42 0 75.5 3.5t77 17.5t73 38.5 t50.5 71t21 110.5q0 65 -20.5 111t-47 69t-68 35.5t-66.5 14.5t-60 2h-164v-473zM420 848h102q63 0 111.5 15.5t76 39.5t44.5 56.5t22.5 60.5t5.5 59q0 50 -15 87t-38 57t-58.5 32t-67.5 15.5t-73 3.5h-110v-426z" />
<glyph unicode="C" horiz-adv-x="1212" d="M104 725q0 126 25 240t78.5 212.5t130.5 170.5t187.5 113.5t244.5 41.5q98 0 200 -30t181 -80l-104 -222q-79 69 -150 99t-174 30q-69 0 -126.5 -30t-103 -93.5t-71 -173.5t-25.5 -258q0 -102 15.5 -186t40 -139.5t58.5 -98t67 -65.5t69.5 -37t62 -18t48.5 -4 q78 0 164.5 35.5t158.5 103.5l84 -135q-83 -104 -204.5 -169t-274.5 -65q-68 0 -133.5 16t-132.5 50t-123 94t-100 140.5t-68.5 198t-24.5 259.5z" />
<glyph unicode="D" horiz-adv-x="1382" d="M145 0v1475h398q67 0 111.5 -2t130.5 -15.5t146.5 -38t134 -76t119 -123t77.5 -184t32 -254.5q0 -361 -207.5 -571.5t-558.5 -210.5h-383zM420 201h59q123 0 217 30t165.5 95t109 176t37.5 264q0 103 -15.5 183.5t-45.5 135.5t-69.5 93t-94 58.5t-111.5 29t-129 8.5h-123 v-1073z" />
<glyph unicode="E" horiz-adv-x="983" d="M145 0v1475h754v-201h-479v-432h393v-180h-393v-461h510v-201h-785z" />
<glyph unicode="F" horiz-adv-x="919" d="M145 0v1475h729v-201h-454v-436h393v-181h-393v-657h-275z" />
<glyph unicode="G" horiz-adv-x="1314" d="M104 725q0 126 25 240t78.5 212.5t130.5 170.5t187.5 113.5t244.5 41.5q98 0 216 -31t194 -79l-105 -222q-35 28 -60.5 46t-67.5 39.5t-92.5 32.5t-109.5 11q-56 0 -105.5 -18t-94.5 -60t-77.5 -105t-51.5 -158t-19 -214q0 -107 13 -194t33.5 -145t50.5 -102t60 -68 t66.5 -38.5t65 -19t59.5 -4.5q50 0 97 18t68 36l22 18v366h-193v181h467v-609q-240 -217 -534 -217q-89 0 -167.5 22t-153.5 76.5t-128.5 138.5t-86 217.5t-32.5 303.5z" />
<glyph unicode="H" horiz-adv-x="1345" d="M145 0v1475h275v-601h528v601h275v-1475h-275v674h-528v-674h-275z" />
<glyph unicode="I" horiz-adv-x="542" d="M145 0v1475h275v-1475h-275z" />
<glyph unicode="J" horiz-adv-x="544" d="M-90 -244q136 27 186.5 144t50.5 364v1211h275v-1113q0 -136 -15.5 -248.5t-41 -191.5t-63.5 -140t-77.5 -98t-89 -62.5t-91.5 -37t-91 -16.5z" />
<glyph unicode="K" horiz-adv-x="1167" d="M145 0v1475h275v-709l383 709h303l-442 -699l499 -776h-342l-401 717v-717h-275z" />
<glyph unicode="L" horiz-adv-x="948" d="M145 0v1475h275v-1274h489v-201h-764z" />
<glyph unicode="M" horiz-adv-x="1689" d="M121 0l49 1475h322l370 -902l367 902h307l43 -1475h-281l-12 1034q0 58 6 96h-8q-8 -46 -22 -81l-392 -971h-94l-401 971q-19 53 -23 81h-8q6 -46 6 -96l-2 -1034h-227z" />
<glyph unicode="N" horiz-adv-x="1327" d="M145 0v1475h299l543 -918v918h217v-1475h-182l-660 1096v-1096h-217z" />
<glyph unicode="O" horiz-adv-x="1435" d="M104 709q0 399 169.5 595.5t471.5 196.5q280 0 441.5 -191.5t161.5 -547.5q0 -383 -168.5 -588t-472.5 -205q-128 0 -237 47t-191 137.5t-128.5 233t-46.5 322.5zM397 770q0 -97 9 -180t32 -162.5t59 -135t94.5 -89t133.5 -33.5q158 0 244 140t86 390q0 134 -16 237.5 t-52 188t-102 129.5t-160 45q-168 0 -248 -133.5t-80 -396.5z" />
<glyph unicode="P" horiz-adv-x="1150" d="M145 0v1475h390q43 0 76 -1t80 -6t83 -13t78.5 -23.5t74 -37t63 -54t51.5 -73t32 -96.5t12 -122q0 -99 -32 -183t-92.5 -148t-157 -100t-217.5 -36q-42 0 -83.5 2.5t-62.5 5.5l-20 2v-592h-275zM420 791q62 -11 115 -11q126 0 197 59t71 199q0 38 -7 70t-18 55t-30 41 t-35.5 29.5t-42 19.5t-43 12t-45.5 6t-42.5 2.5t-39.5 0.5h-80v-483z" />
<glyph unicode="Q" horiz-adv-x="1435" d="M104 709q0 399 169.5 595.5t471.5 196.5q280 0 441.5 -191.5t161.5 -547.5q0 -468 -248 -668q76 -137 256 -137v-119q-69 -24 -166 -24q-234 0 -342 168q-73 -13 -141 -13q-128 0 -237 47t-191 137.5t-128.5 233t-46.5 322.5zM397 770q0 -97 9 -180t32 -162.5t59 -135 t94.5 -89t133.5 -33.5q158 0 244 140t86 390q0 134 -16 237.5t-52 188t-102 129.5t-160 45q-168 0 -248 -133.5t-80 -396.5z" />
<glyph unicode="R" horiz-adv-x="1142" d="M145 0v1475h404q508 0 508 -396q0 -169 -88.5 -278t-239.5 -139l379 -662h-299l-338 631h-51v-631h-275zM420 799h67q295 0 295 258q0 54 -16 94t-41 63t-62 37t-72 18.5t-79 4.5h-92v-475z" />
<glyph unicode="S" horiz-adv-x="1040" d="M61 94l91 215q95 -78 179 -108.5t175 -30.5q97 0 156 59.5t59 145.5q0 20 -2 37t-9 33.5t-11.5 28t-20 26t-23.5 23t-32 22.5t-36.5 21.5t-46 23.5t-50.5 23.5t-60 27.5q-63 29 -101.5 48.5t-86.5 49.5t-76.5 61t-55 72.5t-38 94t-11.5 116.5q0 188 128.5 303t342.5 115 q201 0 361 -71l-55 -226q-86 51 -155.5 73.5t-150.5 22.5q-36 0 -69 -8t-65.5 -27.5t-52 -58.5t-19.5 -94q0 -82 59.5 -133.5t204.5 -110.5q221 -89 311 -186t90 -256q0 -55 -15.5 -114t-53.5 -121t-93 -111t-143.5 -80t-196.5 -31q-258 0 -428 125z" />
<glyph unicode="T" horiz-adv-x="1040" d="M43 1274v201h950v-201h-338v-1274h-274v1274h-338z" />
<glyph unicode="U" horiz-adv-x="1296" d="M145 471v1004h275v-936q0 -78 11.5 -138t38.5 -111t78.5 -78.5t125.5 -27.5q85 0 142.5 24.5t89 73t44.5 110.5t13 147v936h217v-990q0 -104 -31.5 -190t-83.5 -142.5t-122.5 -95.5t-145.5 -56t-154 -17q-53 0 -101 6t-99 21t-93.5 39t-81 62t-65.5 87.5t-42.5 119 t-15.5 152.5z" />
<glyph unicode="V" horiz-adv-x="1210" d="M31 1475h288l306 -1080l305 1080h244l-482 -1475h-209z" />
<glyph unicode="W" horiz-adv-x="1705" d="M43 1475h281l139 -1031l309 1031h232l272 -1026l162 1026h229l-293 -1475h-239l-291 1085l-322 -1085h-243z" />
<glyph unicode="X" horiz-adv-x="1163" d="M45 0l399 696l-385 779h308l227 -521l215 521h262l-369 -719l416 -756h-321l-238 510l-231 -510h-283z" />
<glyph unicode="Y" horiz-adv-x="1116" d="M14 1475h303l285 -709l248 709h250l-402 -959v-516h-274v516z" />
<glyph unicode="Z" horiz-adv-x="1048" d="M88 0v139l563 1135h-534v201h858v-148l-578 -1126h578v-201h-887z" />
<glyph unicode="[" horiz-adv-x="686" d="M201 -401v1937h409v-156h-202v-1626h202v-155h-409z" />
<glyph unicode="\" horiz-adv-x="651" d="M-51 1559l147 38l621 -1992l-146 -41z" />
<glyph unicode="]" horiz-adv-x="686" d="M76 -246h203v1626h-203v156h409v-1937h-409v155z" />
<glyph unicode="^" horiz-adv-x="874" d="M90 1047l367 487l368 -487l-106 -41l-262 239l-260 -239z" />
<glyph unicode="_" horiz-adv-x="1019" d="M-2 -258h1051v-102h-1051v102z" />
<glyph unicode="`" horiz-adv-x="499" d="M49 1372l178 135l232 -327l-72 -66z" />
<glyph unicode="a" horiz-adv-x="1011" d="M66 283q0 75 29 133t76.5 96t122.5 66t153 43.5t182 27.5q0 43 -2.5 71.5t-12 57t-26 44.5t-46 26t-71.5 10q-56 0 -135 -32t-160 -95l-63 197q88 59 200 83.5t197 24.5q63 0 112 -6.5t100 -26.5t84 -54.5t54 -94.5t21 -141q0 -101 -6.5 -229t-6.5 -162q0 -44 5 -75 t12.5 -49.5t23 -31t30 -18t40.5 -11.5l-33 -151q-74 -11 -80 -11q-75 0 -128.5 30t-84.5 108q-56 -73 -127.5 -105.5t-169.5 -32.5q-58 0 -106.5 14.5t-91.5 47.5t-67.5 95.5t-24.5 150.5zM324 285q0 -38 12.5 -65t32.5 -39.5t38 -17.5t37 -5q65 0 108.5 36.5t63.5 90.5 l7 221q-148 -6 -223.5 -56t-75.5 -165z" />
<glyph unicode="b" horiz-adv-x="1103" d="M125 66v1439h258v-567q46 52 116 76t144 24q187 0 288 -122t101 -336q0 -138 -32 -245.5t-83 -174t-121.5 -109.5t-140.5 -59.5t-147 -16.5q-108 0 -212.5 27t-170.5 64zM383 178q55 -41 139 -41q111 0 173.5 96.5t62.5 288.5q0 322 -207 322q-121 0 -168 -78v-588z" />
<glyph unicode="c" horiz-adv-x="972" d="M82 492q0 141 41.5 249.5t111 171t151 93t171.5 30.5q118 0 198.5 -24.5t162.5 -81.5l-107 -180q-100 124 -227 124q-228 0 -228 -368q0 -66 13 -124t39.5 -106.5t72.5 -77t107 -28.5q146 0 262 129l82 -135q-76 -102 -171.5 -145.5t-228.5 -43.5q-98 0 -178 30t-142 91 t-96 162t-34 234z" />
<glyph unicode="d" horiz-adv-x="1130" d="M82 479q0 142 35 250.5t98 174.5t145 99t181 33q98 0 192 -32v501h258v-1226q0 -80 15 -111t63 -31l-22 -151q-32 -4 -68 -4q-91 0 -138 31.5t-69 103.5q-107 -142 -289 -142t-291.5 130.5t-109.5 373.5zM356 522q0 -94 14.5 -163t35.5 -105.5t51.5 -57.5t54.5 -26.5 t53 -5.5q67 0 117.5 59t50.5 172v424q-4 5 -13 13.5t-48 22t-90 13.5q-99 0 -162.5 -93t-63.5 -253z" />
<glyph unicode="e" horiz-adv-x="1013" d="M82 492q0 261 123 402.5t336 141.5q184 0 291.5 -107.5t107.5 -307.5v-138h-584q0 -313 232 -313q87 0 148 36t114 95l82 -137q-97 -107 -184 -148t-216 -41q-93 0 -172 30t-142.5 90t-99.5 162t-36 235zM356 637h336q0 102 -38 169.5t-122 67.5q-151 0 -176 -237z" />
<glyph unicode="f" horiz-adv-x="684" d="M33 827v177h129v24q0 227 118 356t371 129v-180q-28 0 -45.5 -1t-44.5 -6t-44 -14.5t-37.5 -28.5t-32 -46t-19.5 -69t-8 -95v-69h229v-177h-229v-827h-258v827h-129z" />
<glyph unicode="g" horiz-adv-x="1105" d="M43 -197q0 29 5 52t19.5 52.5t46.5 59.5t81 60q-70 45 -70 120q0 61 47.5 117.5t146.5 89.5q-225 90 -225 328q0 95 37 166t99.5 110.5t134 58.5t151.5 19q184 0 309 -57h256v-133h-166q54 -69 54 -182q0 -167 -125 -261t-322 -94h-71q-29 -3 -53.5 -18t-24.5 -35 q0 -16 7.5 -28.5t30 -26t74 -23t129.5 -14.5q250 -18 344.5 -73t94.5 -195q0 -163 -147 -271t-386 -108q-50 0 -98.5 4.5t-105 15.5t-103 32.5t-86 51.5t-62 77t-22.5 105zM244 -162q0 -32 13.5 -57t38.5 -40.5t53.5 -26t67.5 -15t71 -6.5t71 -2q117 0 188.5 35.5t71.5 99.5 q0 46 -53 66.5t-209 35.5q-150 14 -252 41q-22 -9 -41.5 -50t-19.5 -81zM342 678q0 -100 53 -156.5t127 -56.5q102 0 150.5 57t48.5 160q0 98 -44 148.5t-155 50.5q-96 0 -138 -48.5t-42 -154.5z" />
<glyph unicode="h" horiz-adv-x="1095" d="M125 0v1505h258v-659q46 83 131.5 136.5t198.5 53.5q268 0 268 -295v-741h-258v641q0 28 -1.5 48t-9.5 47.5t-21.5 44.5t-40 29.5t-62.5 12.5q-79 0 -133.5 -66.5t-71.5 -150.5v-606h-258z" />
<glyph unicode="i" horiz-adv-x="501" d="M109 1321q0 66 40.5 105.5t102.5 39.5q66 0 108.5 -39.5t42.5 -105.5q0 -70 -41.5 -107.5t-109.5 -37.5q-61 0 -102 38.5t-41 106.5zM125 0v1004h258v-1004h-258z" />
<glyph unicode="j" horiz-adv-x="499" d="M-94 -301q117 24 168 99t51 243v963h258v-779q0 -192 -21.5 -319t-73.5 -213t-138.5 -123t-217.5 -37zM109 1321q0 66 40.5 105.5t102.5 39.5q66 0 108.5 -39.5t42.5 -105.5q0 -70 -41.5 -107.5t-109.5 -37.5q-61 0 -102 38.5t-41 106.5z" />
<glyph unicode="k" horiz-adv-x="995" d="M125 0v1505h258v-948l274 447h269l-303 -426l366 -578h-291l-315 510v-510h-258z" />
<glyph unicode="l" horiz-adv-x="501" d="M125 0v1505h258v-1505h-258z" />
<glyph unicode="m" horiz-adv-x="1634" d="M125 0v1004h248l10 -144q52 87 123.5 131.5t173.5 44.5q107 0 174.5 -57t79.5 -131q55 101 135 144.5t193 43.5q116 0 188 -90t72 -248v-698h-258v612q0 129 -31.5 174t-95.5 45q-26 0 -53 -11.5t-53.5 -36t-47.5 -68.5t-31 -103v-612h-258v639q0 109 -28.5 150.5 t-98.5 41.5q-60 0 -111 -54t-73 -163v-614h-258z" />
<glyph unicode="n" horiz-adv-x="1095" d="M125 0v1004h248l10 -158q45 80 134 135t188 55q276 0 276 -295v-741h-258v641q0 28 -1.5 48t-9.5 47.5t-21.5 44.5t-40 29.5t-62.5 12.5q-137 0 -205 -207v-616h-258z" />
<glyph unicode="o" horiz-adv-x="1140" d="M82 512q0 134 38.5 237t106.5 164.5t154 92t188 30.5q245 0 372.5 -136t127.5 -396q0 -55 -11.5 -117t-45 -137.5t-85.5 -134.5t-142.5 -99.5t-206.5 -40.5q-228 0 -362 134.5t-134 402.5zM356 541q0 -404 224 -404q102 0 158.5 84t56.5 252q0 401 -226 401 q-48 0 -84 -15.5t-66.5 -51.5t-46.5 -103t-16 -163z" />
<glyph unicode="p" horiz-adv-x="1103" d="M125 -459v1463h248l10 -93q90 125 272 125q185 0 281 -137t96 -377q0 -131 -35.5 -237t-95.5 -172.5t-136.5 -102t-162.5 -35.5q-150 0 -219 43v-477h-258zM383 211q56 -68 154 -68q115 0 168 96t53 283q0 316 -211 316q-113 0 -164 -99v-528z" />
<glyph unicode="q" horiz-adv-x="1105" d="M82 479q0 267 130.5 412t340.5 145q153 0 235 -55l60 37h143v-1477h-258v543q-35 -55 -101.5 -82t-148.5 -27q-183 0 -292 130t-109 374zM356 477q0 -313 209 -313q67 0 117.5 50t50.5 142v465q-5 6 -14.5 15t-46 23.5t-80.5 14.5q-121 0 -178.5 -91t-57.5 -306z" />
<glyph unicode="r" horiz-adv-x="749" d="M125 0v1004h258v-173q58 93 132 140.5t190 56.5l16 -235q-83 0 -140 -10.5t-104.5 -37.5t-70.5 -80t-23 -133v-532h-258z" />
<glyph unicode="s" horiz-adv-x="870" d="M61 63l62 191q156 -117 287 -117q85 0 123 36t38 89q0 50 -30 73.5t-109 53.5l-102 39q-42 16 -68 27.5t-64.5 36t-61 50.5t-39.5 67.5t-17 90.5q0 78 24 139t61 97t87.5 59.5t98 32t98.5 8.5q187 0 327 -86l-106 -164q-66 51 -112.5 69.5t-115.5 18.5q-54 0 -87 -24 t-33 -68q0 -26 6 -43t34 -38.5t80 -38.5l121 -41q42 -14 70 -25.5t67.5 -35.5t63.5 -51t41.5 -70.5t17.5 -96.5q0 -159 -107 -263t-313 -104q-79 0 -172.5 21.5t-169.5 66.5z" />
<glyph unicode="t" horiz-adv-x="710" d="M27 827v125q24 10 42.5 20t50 36.5t55.5 60.5t51 94t46 135h123v-294h254v-177h-254v-522q0 -77 27 -105t94 -28q49 0 146 33l16 -150q-149 -69 -283 -69q-136 0 -197 62.5t-61 215.5v563h-110z" />
<glyph unicode="u" horiz-adv-x="1085" d="M125 279v725h258v-650q0 -168 133 -168q72 0 125.5 52t81.5 133v633h258v-1004h-248l-10 156q-80 -93 -157 -133.5t-177 -40.5q-126 0 -195 74t-69 223z" />
<glyph unicode="v" horiz-adv-x="905" d="M2 1004h281l204 -738l205 738h221l-356 -1004h-229z" />
<glyph unicode="w" horiz-adv-x="1339" d="M27 1004h272l96 -648l223 648h213l170 -648l113 648h201l-254 -1004h-197l-192 702l-250 -702h-197z" />
<glyph unicode="x" horiz-adv-x="901" d="M16 0l308 477l-308 527h310l143 -312l158 312h235l-293 -461l320 -543h-303l-162 324l-158 -324h-250z" />
<glyph unicode="y" horiz-adv-x="974" d="M20 1004h281l244 -738l178 738h229l-338 -1084q-32 -101 -71 -175t-74 -113t-77 -62t-71.5 -29t-64.5 -6q-50 0 -117 29l37 223q47 -14 96 -14q64 0 101 39.5t45 97.5z" />
<glyph unicode="z" horiz-adv-x="786" d="M41 0v141l412 686h-390v177h693v-123l-422 -705h403v-176h-696z" />
<glyph unicode="{" horiz-adv-x="770" d="M84 473v135q124 15 177.5 75t53.5 179q0 40 -1 172t-1 185q0 177 86.5 261t290.5 107l29 -131q-91 -14 -134.5 -61t-43.5 -152q0 -69 3 -167.5t3 -168.5q0 -88 -13 -147t-44 -99.5t-70 -66t-105 -53.5q66 -28 105 -53.5t70 -66.5t44 -100t13 -147q0 -70 -3 -168t-3 -168 q0 -105 43.5 -152t134.5 -61l-29 -131q-204 23 -290.5 107.5t-86.5 261.5q0 53 1 184.5t1 171.5q0 119 -53.5 179t-177.5 75z" />
<glyph unicode="|" horiz-adv-x="395" d="M123 -311v1888h164v-1888h-164z" />
<glyph unicode="}" horiz-adv-x="770" d="M84 -375q91 14 134.5 61t43.5 152q0 70 -3 168t-3 168q0 71 9 123t25.5 88.5t46.5 65t64 48.5t86 42q-52 22 -86 41.5t-64 48.5t-46.5 65.5t-25.5 88t-9 122.5q0 70 3 168.5t3 167.5q0 105 -43.5 152t-134.5 61l29 131q204 -23 290 -107t86 -261q0 -53 -1 -185t-1 -172 q0 -119 54 -179t178 -75v-135q-124 -15 -178 -75t-54 -179q0 -40 1 -171.5t1 -184.5q0 -177 -86 -261.5t-290 -107.5z" />
<glyph unicode="~" horiz-adv-x="1257" d="M70 520q26 47 50.5 84.5t59 77t70.5 65.5t82.5 43t97.5 17q60 0 126.5 -25t115.5 -55t111.5 -55t115.5 -25q62 0 115 31t112 115l78 -66q-24 -45 -43 -77.5t-54.5 -79t-70.5 -76t-86 -51t-106 -21.5q-57 0 -122.5 25.5t-115 55.5t-113.5 55.5t-118 25.5q-65 0 -120 -30 t-108 -108z" />
<glyph unicode="&#xa1;" horiz-adv-x="569" d="M152 -469l71 1057h142l65 -1057h-278zM154 887q0 63 32 105t103 42q79 0 111 -43t32 -104q0 -59 -34 -103.5t-101 -44.5q-45 0 -75.5 15t-44 40.5t-18.5 47t-5 45.5z" />
<glyph unicode="&#xa2;" d="M88 492q0 99 24 187.5t73 163.5t132 125.5t191 65.5v232h147v-230q155 -9 275 -106l-107 -180q-78 97 -168 118v-696q102 20 201 127l82 -137q-117 -150 -283 -182v-236h-147v229q-215 17 -317.5 154t-102.5 365zM362 506q0 -56 6.5 -105t21.5 -98t45 -82.5t73 -44.5v688 q-146 -33 -146 -358z" />
<glyph unicode="&#xa3;" d="M49 141q108 64 166.5 153.5t58.5 219.5q0 56 -6 121h-184v178h166q-35 144 -35 246q0 118 32.5 207.5t86 138.5t114.5 72.5t127 23.5q105 0 179 -32t143 -103l-135 -137q-88 110 -191 110q-125 0 -125 -200q0 -75 58 -326h262v-178h-244q8 -32 8 -94q0 -57 -17.5 -106 t-53.5 -90t-68 -68.5t-84 -65.5l2 -8q14 4 49.5 15.5t56 18t48.5 12t49 5.5q54 0 122 -11.5t79 -11.5q40 0 74.5 28.5t56.5 80.5l108 -27q-10 -57 -20 -97t-28.5 -85.5t-42 -72.5t-61.5 -45.5t-87 -18.5q-64 0 -170 18q-142 25 -219 25q-126 0 -203 -45z" />
<glyph unicode="&#xa4;" d="M23 1145l98 90l133 -135q109 71 223 71q117 0 223 -71l131 135l99 -90l-135 -137q73 -107 73 -224q0 -116 -73 -223l137 -137l-98 -90l-134 135q-105 -76 -223 -76q-116 0 -221 76l-133 -135l-98 90l135 137q-70 103 -70 223q0 124 68 224zM223 784q0 -109 74.5 -186.5 t179.5 -77.5q106 0 181 77.5t75 186.5q0 107 -75 183.5t-181 76.5t-180 -76.5t-74 -183.5z" />
<glyph unicode="&#xa5;" d="M23 1475h307l225 -601l211 601h233l-350 -832h240v-170h-240v-137h242v-170h-242v-166h-274v166h-248v170h248v137h-250v170h250z" />
<glyph unicode="&#xa6;" horiz-adv-x="395" d="M123 -311v782h158v-782h-158zM123 795v782h158v-782h-158z" />
<glyph unicode="&#xa7;" horiz-adv-x="927" d="M41 629q0 105 54.5 192.5t125.5 139.5q-60 42 -83 94.5t-23 128.5q0 72 23 128.5t59 91t84 57.5t93.5 31.5t92.5 8.5q108 0 187.5 -32t152.5 -85l-105 -170q-143 117 -262 117q-42 0 -71 -27.5t-29 -76.5q0 -52 25.5 -85.5t105.5 -66.5l184 -78q126 -53 177 -127t51 -178 q0 -106 -54.5 -193t-126.5 -141q57 -41 82 -91.5t25 -131.5q0 -79 -32 -141.5t-84 -99.5t-112.5 -55.5t-123.5 -18.5q-88 0 -180.5 31t-159.5 83l104 170q142 -114 262 -114q42 0 71.5 27.5t29.5 74.5q0 52 -26 86.5t-105 67.5l-185 76q-73 30 -119 62.5t-69 72t-31 78 t-8 94.5zM252 696q0 -68 43 -107t166 -87l114 -45q38 22 67.5 69t29.5 97q0 69 -42 107t-167 89l-113 45q-36 -19 -67 -68t-31 -100z" />
<glyph unicode="&#xa8;" horiz-adv-x="894" d="M109 1321q0 66 40.5 105.5t102.5 39.5q66 0 108.5 -39.5t42.5 -105.5q0 -70 -41.5 -107.5t-109.5 -37.5q-61 0 -102 38.5t-41 106.5zM502 1321q0 66 40.5 105.5t102.5 39.5q66 0 109 -39.5t43 -105.5q0 -70 -42 -107.5t-110 -37.5q-61 0 -102 38.5t-41 106.5z" />
<glyph unicode="&#xa9;" horiz-adv-x="1658" d="M53 748q0 175 61.5 322.5t167 246.5t247.5 154t302 55q214 0 393.5 -100t285.5 -279t106 -399q0 -171 -62.5 -319t-169 -250t-250.5 -160t-303 -58q-160 0 -302 55.5t-247.5 156t-167 249.5t-61.5 326zM184 748q0 -187 87.5 -338t234.5 -233.5t323 -82.5q184 0 334.5 86 t235 236t84.5 332q0 177 -88.5 326t-239 235t-326.5 86q-133 0 -251 -47t-205 -130t-138 -205t-51 -265zM428 731q0 225 118 356.5t324 131.5q135 0 256 -82l-61 -142q-53 32 -76 45t-62 25t-81 12q-34 0 -61 -8t-53 -29.5t-43 -56.5t-27.5 -91.5t-10.5 -131.5 q0 -96 17 -163.5t46.5 -103t63 -50.5t74.5 -15q35 0 64.5 7.5t59.5 26.5t48.5 34t54.5 47l60 -113q-128 -149 -314 -149q-51 0 -102 12.5t-105.5 45t-95.5 81.5t-67.5 129.5t-26.5 181.5z" />
<glyph unicode="&#xaa;" horiz-adv-x="636" d="M63 1067q0 47 16.5 83.5t41.5 58t62 36.5t71.5 21.5t77.5 9.5q13 1 29 4t28 4v45q0 80 -74 80q-41 0 -76.5 -18.5t-88.5 -69.5l-64 84q54 54 116 77t113 23q106 0 156.5 -41.5t50.5 -146.5q0 -41 -4 -127q0 -18 -1 -49t-1 -39q0 -65 12.5 -89.5t57.5 -37.5l-23 -72 q-14 -2 -37 -2q-79 0 -120 72q-42 -41 -75 -57.5t-91 -16.5q-76 0 -126.5 40.5t-50.5 127.5zM209 1085q0 -81 76 -81q42 0 70.5 30t29.5 80l2 86l-47 -8q-67 -10 -99 -31.5t-32 -75.5z" />
<glyph unicode="&#xab;" horiz-adv-x="819" d="M47 530l338 428l125 -43l-213 -376l213 -392l-125 -45zM350 539l309 368l107 -33l-201 -335l201 -334l-107 -33z" />
<glyph unicode="&#xac;" horiz-adv-x="1327" d="M158 541v149h1032v-375h-162v226h-870z" />
<glyph unicode="&#xad;" horiz-adv-x="722" d="M127 434v187h461v-187h-461z" />
<glyph unicode="&#xae;" horiz-adv-x="1658" d="M53 748q0 175 61 322.5t166.5 246.5t247 154t301.5 55q214 0 394 -100t286.5 -279t106.5 -399q0 -171 -62.5 -319t-169 -250t-250.5 -160t-303 -58q-160 0 -302 55.5t-247.5 156t-167 249.5t-61.5 326zM184 748q0 -187 87.5 -338t234.5 -233.5t323 -82.5q184 0 334.5 86 t235 236t84.5 332q0 177 -88.5 326t-239 235t-326.5 86q-133 0 -251 -47t-205 -130t-138 -205t-51 -265zM557 287v897h272q37 0 70 -3.5t78.5 -18t77.5 -39t55 -72t23 -111.5q0 -196 -201 -252l237 -401h-192l-219 383h-23v-383h-178zM735 786h47q51 0 84.5 11.5t49 33.5 t21 45.5t5.5 55.5q0 34 -11 58t-25 35.5t-39.5 17.5t-41 7t-43.5 1h-47v-265z" />
<glyph unicode="&#xaf;" horiz-adv-x="790" d="M121 1245v166h551v-166h-551z" />
<glyph unicode="&#xb0;" horiz-adv-x="724" d="M82 1194q0 130 82 215.5t205 85.5q131 0 208.5 -78t77.5 -223q0 -128 -82 -215.5t-204 -87.5q-125 0 -206 85.5t-81 217.5zM240 1202q0 -70 34 -112.5t95 -42.5t95 42.5t34 112.5q0 64 -33.5 100.5t-95.5 36.5q-61 0 -95 -39t-34 -98z" />
<glyph unicode="&#xb1;" horiz-adv-x="1069" d="M82 768v162h371v309h161v-309h371v-162h-371v-309h-161v309h-371zM84 197v161h903v-161h-903z" />
<glyph unicode="&#xb2;" horiz-adv-x="610" d="M82 780v80l108 123q146 163 146 317q0 50 -19 69.5t-53 19.5q-50 0 -104 -76l-70 51q90 135 238 135q69 0 120.5 -40t51.5 -122q0 -48 -18 -98.5t-41 -90t-63.5 -88t-67.5 -76t-70 -69.5h258l-29 -135h-387z" />
<glyph unicode="&#xb3;" horiz-adv-x="610" d="M84 825l59 95q54 -60 123 -60q50 0 75.5 35.5t25.5 81.5q0 60 -30 84t-73 24q-47 0 -76 -4v99l56 4q48 3 75 33t27 81q0 76 -63 76q-67 0 -131 -84l-64 94q105 107 231 107q17 0 33.5 -2t44 -11.5t47.5 -25.5t35 -49t15 -78q0 -54 -38.5 -102t-101.5 -70 q166 -44 166 -182q0 -50 -15 -90t-38 -64t-53 -40.5t-57.5 -22.5t-53.5 -6q-142 0 -219 77z" />
<glyph unicode="&#xb4;" horiz-adv-x="499" d="M49 1180l232 327l178 -135l-338 -258z" />
<glyph unicode="&#xb6;" d="M74 1176q0 127 79.5 213t215.5 86h163v-1881h-145v1285q-55 0 -106.5 15.5t-99.5 48t-77.5 93t-29.5 140.5zM696 -406v1881h146v-1881h-146z" />
<glyph unicode="&#xb7;" horiz-adv-x="497" d="M127 627q0 57 38 95t95 38q56 0 93.5 -38t37.5 -95q0 -56 -38 -94.5t-93 -38.5q-57 0 -95 38.5t-38 94.5z" />
<glyph unicode="&#xb8;" horiz-adv-x="501" d="M86 -455l6 84q6 0 18.5 -1t18.5 -1q73 0 108 27.5t35 73.5q0 86 -151 86l-6 18l63 213h90l-43 -156q100 0 152.5 -40t52.5 -105q0 -91 -73 -146t-226 -55q-7 0 -22 1t-23 1z" />
<glyph unicode="&#xb9;" horiz-adv-x="610" d="M121 1317v82l141 76h125v-717h-160v575z" />
<glyph unicode="&#xba;" horiz-adv-x="704" d="M80 1202q0 150 76 225.5t200 75.5q126 0 201.5 -73.5t75.5 -227.5q0 -136 -71.5 -219.5t-201.5 -83.5q-138 0 -209 82.5t-71 220.5zM240 1210q0 -104 28 -154t92 -50q61 0 87 49t26 145q0 103 -28.5 150t-88.5 47q-116 0 -116 -187z" />
<glyph unicode="&#xbb;" horiz-adv-x="819" d="M53 205l201 334l-201 335l107 33l309 -368l-309 -367zM309 147l213 392l-213 376l125 43l338 -428l-338 -428z" />
<glyph unicode="&#xbc;" horiz-adv-x="1210" d="M84 4l866 1487l117 -66l-866 -1488zM96 1317v82l142 76h124v-717h-159v575zM594 162v86l305 479h133v-457h68v-108h-68v-152h-160v152h-278zM711 270h161v260z" />
<glyph unicode="&#xbd;" horiz-adv-x="1210" d="M63 4l867 1487l117 -66l-867 -1488zM96 1317v82l142 76h124v-717h-159v575zM670 14v80l108 123q146 163 146 318q0 88 -72 88q-50 0 -104 -76l-70 51q90 135 237 135q69 0 120.5 -40t51.5 -122q0 -48 -18 -98.5t-41 -89.5t-63.5 -87.5t-67 -75.5t-70.5 -70h258l-28 -136 h-387z" />
<glyph unicode="&#xbe;" horiz-adv-x="1210" d="M94 862l78 70q21 -30 52.5 -53t64.5 -23q41 0 71.5 28t30.5 93t-18.5 96t-67.5 31q-31 0 -72 -6v78l52 10q92 18 92 125q0 50 -22.5 70t-53.5 20q-35 0 -64 -18t-65 -60l-51 74q84 102 229 102q76 0 129 -38.5t53 -119.5q0 -59 -33.5 -106t-97.5 -74v-8q69 -10 110.5 -49 t41.5 -109q0 -63 -22.5 -110t-59.5 -73t-78 -38t-86 -12q-134 0 -213 100zM139 4l867 1487l116 -66l-866 -1488zM594 162v86l305 479h133v-457h68v-108h-68v-152h-160v152h-278zM711 270h161v260z" />
<glyph unicode="&#xbf;" horiz-adv-x="942" d="M90 -147q0 61 13 111.5t49.5 110.5t71 104.5t108.5 133.5q67 80 109.5 154t47.5 151h150q0 -61 -14.5 -119t-27.5 -85t-34 -64q-16 -29 -48.5 -80.5t-52.5 -86.5t-42.5 -81.5t-33.5 -93.5t-11 -94q0 -56 14.5 -96t39 -59t48.5 -27t51 -8q71 0 135.5 40.5t147.5 149.5 l111 -121q-186 -287 -467 -287q-50 0 -97.5 8.5t-97.5 33t-86.5 62t-60 100t-23.5 143.5zM424 889q0 61 32 104t111 43q71 0 103 -42t32 -105q0 -24 -5 -45.5t-18.5 -47t-44 -40.5t-75.5 -15q-67 0 -101 44.5t-34 103.5z" />
<glyph unicode="&#xc0;" horiz-adv-x="1220" d="M4 0l518 1475h248l449 -1475h-289l-109 389h-454l-125 -389h-238zM365 1759l172 119l237 -266l-94 -56zM418 567h356l-166 572z" />
<glyph unicode="&#xc1;" horiz-adv-x="1220" d="M4 0l518 1475h248l449 -1475h-289l-109 389h-454l-125 -389h-238zM418 567h356l-166 572zM449 1622l215 274l178 -100l-289 -231z" />
<glyph unicode="&#xc2;" horiz-adv-x="1220" d="M4 0l518 1475h248l449 -1475h-289l-109 389h-454l-125 -389h-238zM330 1604l268 249h49l275 -249l-72 -43l-223 108l-226 -108zM418 567h356l-166 572z" />
<glyph unicode="&#xc3;" horiz-adv-x="1220" d="M4 0l518 1475h248l449 -1475h-289l-109 389h-454l-125 -389h-238zM311 1649q103 211 221 211q43 0 85 -16.5t70 -37t64.5 -37t69.5 -16.5q20 0 34.5 4.5t38 26t46.5 61.5l72 -61q-101 -211 -221 -211q-40 0 -79 16.5t-66 36.5t-66 36.5t-78 16.5q-20 0 -34.5 -4.5 t-38 -26t-46.5 -61.5zM418 567h356l-166 572z" />
<glyph unicode="&#xc4;" horiz-adv-x="1220" d="M4 0l518 1475h248l449 -1475h-289l-109 389h-454l-125 -389h-238zM332 1700q0 50 38.5 86.5t90.5 36.5t89.5 -36.5t37.5 -86.5q0 -48 -37.5 -82.5t-89.5 -34.5t-90.5 35t-38.5 82zM418 567h356l-166 572zM678 1700q0 50 37 86.5t90 36.5q52 0 90.5 -36.5t38.5 -86.5 q0 -47 -38.5 -82t-90.5 -35q-53 0 -90 34.5t-37 82.5z" />
<glyph unicode="&#xc5;" horiz-adv-x="1220" d="M4 0l518 1475h248l449 -1475h-289l-109 389h-454l-125 -389h-238zM403 1745q0 101 70.5 172.5t171.5 71.5t172.5 -71.5t71.5 -172.5t-71.5 -171.5t-172.5 -70.5t-171.5 70.5t-70.5 171.5zM418 567h356l-166 572zM537 1745q0 -46 31 -77.5t77 -31.5t78.5 31.5t32.5 77.5 t-32.5 78t-78.5 32t-77 -32t-31 -78z" />
<glyph unicode="&#xc6;" horiz-adv-x="1785" d="M0 0l948 1475h754v-201h-481v-432h395v-180h-395v-461h512v-201h-787v389h-438l-234 -389h-274zM612 567h336v561z" />
<glyph unicode="&#xc7;" horiz-adv-x="1212" d="M104 725q0 126 25 240t78.5 212.5t130.5 170.5t187.5 113.5t244.5 41.5q98 0 200 -30t181 -80l-104 -222q-79 69 -150 99t-174 30q-69 0 -126.5 -30t-103 -93.5t-71 -173.5t-25.5 -258q0 -102 15.5 -186t40 -139.5t58.5 -98t67 -65.5t69.5 -37t62 -18t48.5 -4 q78 0 164.5 35.5t158.5 103.5l84 -135q-77 -98 -189 -161.5t-253 -70.5l-25 -86q111 0 168.5 -41.5t57.5 -107.5q0 -94 -80 -150.5t-250 -56.5q-6 0 -23 1t-26 1l8 86q6 0 19.5 -1t19.5 -1q81 0 119.5 28.5t38.5 75.5q0 88 -166 88l-6 19l45 147q-78 9 -149 36.5t-140 85.5 t-118.5 140t-80.5 209t-31 283z" />
<glyph unicode="&#xc8;" horiz-adv-x="983" d="M145 0v1475h754v-201h-479v-432h393v-180h-393v-461h510v-201h-785zM291 1759l172 119l237 -266l-94 -56z" />
<glyph unicode="&#xc9;" horiz-adv-x="983" d="M145 0v1475h754v-201h-479v-432h393v-180h-393v-461h510v-201h-785zM362 1622l216 274l178 -100l-289 -231z" />
<glyph unicode="&#xca;" horiz-adv-x="983" d="M145 0v1475h754v-201h-479v-432h393v-180h-393v-461h510v-201h-785zM238 1604l268 249h49l274 -249l-71 -43l-223 108l-226 -108z" />
<glyph unicode="&#xcb;" horiz-adv-x="983" d="M145 0v1475h754v-201h-479v-432h393v-180h-393v-461h510v-201h-785zM213 1700q0 50 38.5 86.5t90.5 36.5t89.5 -36.5t37.5 -86.5q0 -48 -37.5 -82.5t-89.5 -34.5t-90.5 35t-38.5 82zM559 1700q0 50 37 86.5t90 36.5q52 0 90.5 -36.5t38.5 -86.5q0 -47 -38.5 -82 t-90.5 -35q-53 0 -90 34.5t-37 82.5z" />
<glyph unicode="&#xcc;" horiz-adv-x="542" d="M70 1759l172 119l237 -266l-94 -56zM145 0v1475h275v-1475h-275z" />
<glyph unicode="&#xcd;" horiz-adv-x="542" d="M74 1622l215 274l178 -100l-289 -231zM145 0v1475h275v-1475h-275z" />
<glyph unicode="&#xce;" horiz-adv-x="542" d="M-12 1604l268 249h49l275 -249l-72 -43l-223 108l-226 -108zM145 0v1475h275v-1475h-275z" />
<glyph unicode="&#xcf;" horiz-adv-x="542" d="M23 1702q0 51 35.5 88t82.5 37q49 0 84 -37t35 -88q0 -50 -35 -84.5t-84 -34.5q-48 0 -83 35t-35 84zM145 0v1475h275v-1475h-275zM303 1702q0 52 34.5 88.5t84.5 36.5q48 0 83.5 -37t35.5 -88q0 -49 -35.5 -84t-83.5 -35q-51 0 -85 34.5t-34 84.5z" />
<glyph unicode="&#xd0;" horiz-adv-x="1382" d="M39 674v200h106v601h398q64 0 108 -2t129 -15.5t146 -38t135.5 -76t121 -122.5t79 -184t32.5 -255q0 -361 -207.5 -571.5t-558.5 -210.5h-383v674h-106zM420 201h59q123 0 217 30t165.5 95t109 176t37.5 264q0 103 -15.5 183.5t-45.5 135.5t-69.5 93t-94 58.5t-111.5 29 t-129 8.5h-123v-400h174v-200h-174v-473z" />
<glyph unicode="&#xd1;" horiz-adv-x="1327" d="M145 0v1475h299l543 -918v918h217v-1475h-182l-660 1096v-1096h-217zM307 1649q103 211 221 211q43 0 85 -16.5t70 -37t64.5 -37t69.5 -16.5q20 0 34.5 4.5t38 26t46.5 61.5l72 -61q-101 -211 -222 -211q-40 0 -79 16.5t-66 36.5t-65.5 36.5t-77.5 16.5q-20 0 -34.5 -4.5 t-38 -26t-46.5 -61.5z" />
<glyph unicode="&#xd2;" horiz-adv-x="1435" d="M104 709q0 399 169.5 595.5t471.5 196.5q280 0 441.5 -191.5t161.5 -547.5q0 -383 -168.5 -588t-472.5 -205q-128 0 -237 47t-191 137.5t-128.5 233t-46.5 322.5zM397 770q0 -97 9 -180t32 -162.5t59 -135t94.5 -89t133.5 -33.5q158 0 244 140t86 390q0 134 -16 237.5 t-52 188t-102 129.5t-160 45q-168 0 -248 -133.5t-80 -396.5zM516 1759l172 119l238 -266l-95 -56z" />
<glyph unicode="&#xd3;" horiz-adv-x="1435" d="M104 709q0 399 169.5 595.5t471.5 196.5q280 0 441.5 -191.5t161.5 -547.5q0 -383 -168.5 -588t-472.5 -205q-128 0 -237 47t-191 137.5t-128.5 233t-46.5 322.5zM397 770q0 -97 9 -180t32 -162.5t59 -135t94.5 -89t133.5 -33.5q158 0 244 140t86 390q0 134 -16 237.5 t-52 188t-102 129.5t-160 45q-168 0 -248 -133.5t-80 -396.5zM584 1622l215 274l178 -100l-289 -231z" />
<glyph unicode="&#xd4;" horiz-adv-x="1435" d="M104 709q0 399 169.5 595.5t471.5 196.5q280 0 441.5 -191.5t161.5 -547.5q0 -383 -168.5 -588t-472.5 -205q-128 0 -237 47t-191 137.5t-128.5 233t-46.5 322.5zM397 770q0 -97 9 -180t32 -162.5t59 -135t94.5 -89t133.5 -33.5q158 0 244 140t86 390q0 134 -16 237.5 t-52 188t-102 129.5t-160 45q-168 0 -248 -133.5t-80 -396.5zM436 1604l269 249h49l274 -249l-72 -43l-223 108l-225 -108z" />
<glyph unicode="&#xd5;" horiz-adv-x="1435" d="M104 709q0 399 169.5 595.5t471.5 196.5q280 0 441.5 -191.5t161.5 -547.5q0 -383 -168.5 -588t-472.5 -205q-128 0 -237 47t-191 137.5t-128.5 233t-46.5 322.5zM360 1649q103 211 222 211q54 0 105 -27t96.5 -53.5t86.5 -26.5q20 0 34.5 4.5t38 26t46.5 61.5l72 -61 q-101 -211 -221 -211q-40 0 -79 16.5t-66 36.5t-66 36.5t-78 16.5q-20 0 -34.5 -4.5t-38 -26t-46.5 -61.5zM397 770q0 -97 9 -180t32 -162.5t59 -135t94.5 -89t133.5 -33.5q158 0 244 140t86 390q0 134 -16 237.5t-52 188t-102 129.5t-160 45q-168 0 -248 -133.5t-80 -396.5 z" />
<glyph unicode="&#xd6;" horiz-adv-x="1435" d="M104 709q0 399 169.5 595.5t471.5 196.5q280 0 441.5 -191.5t161.5 -547.5q0 -383 -168.5 -588t-472.5 -205q-128 0 -237 47t-191 137.5t-128.5 233t-46.5 322.5zM397 770q0 -97 9 -180t32 -162.5t59 -135t94.5 -89t133.5 -33.5q158 0 244 140t86 390q0 134 -16 237.5 t-52 188t-102 129.5t-160 45q-168 0 -248 -133.5t-80 -396.5zM418 1700q0 50 38.5 86.5t90.5 36.5t89.5 -36.5t37.5 -86.5q0 -48 -37.5 -82.5t-89.5 -34.5t-90.5 35t-38.5 82zM764 1700q0 50 37 86.5t90 36.5q52 0 90.5 -36.5t38.5 -86.5q0 -47 -38.5 -82t-90.5 -35 q-53 0 -90 34.5t-37 82.5z" />
<glyph unicode="&#xd7;" horiz-adv-x="993" d="M123 412l262 262l-262 262l115 115l262 -263l262 263l115 -115l-263 -262l263 -262l-115 -115l-262 262l-262 -262z" />
<glyph unicode="&#xd8;" horiz-adv-x="1435" d="M104 709q0 399 169.5 595.5t471.5 196.5q226 0 373 -123l72 86l117 -78l-93 -114q134 -192 134 -510q0 -383 -168.5 -588t-472.5 -205q-232 0 -390 146l-79 -99l-117 80l104 131q-121 189 -121 482zM397 770q0 -170 27 -289l537 693q-80 126 -236 126q-168 0 -248 -133.5 t-80 -396.5zM479 324q80 -154 246 -154q158 0 244 140t86 390q0 189 -33 324z" />
<glyph unicode="&#xd9;" horiz-adv-x="1296" d="M145 471v1004h275v-936q0 -78 11.5 -138t38.5 -111t78.5 -78.5t125.5 -27.5q85 0 142.5 24.5t89 73t44.5 110.5t13 147v936h217v-990q0 -104 -31.5 -190t-83.5 -142.5t-122.5 -95.5t-145.5 -56t-154 -17q-53 0 -101 6t-99 21t-93.5 39t-81 62t-65.5 87.5t-42.5 119 t-15.5 152.5zM416 1759l172 119l237 -266l-94 -56z" />
<glyph unicode="&#xda;" horiz-adv-x="1296" d="M145 471v1004h275v-936q0 -78 11.5 -138t38.5 -111t78.5 -78.5t125.5 -27.5q85 0 142.5 24.5t89 73t44.5 110.5t13 147v936h217v-990q0 -104 -31.5 -190t-83.5 -142.5t-122.5 -95.5t-145.5 -56t-154 -17q-53 0 -101 6t-99 21t-93.5 39t-81 62t-65.5 87.5t-42.5 119 t-15.5 152.5zM588 1622l215 274l178 -100l-289 -231z" />
<glyph unicode="&#xdb;" horiz-adv-x="1296" d="M145 471v1004h275v-936q0 -78 11.5 -138t38.5 -111t78.5 -78.5t125.5 -27.5q85 0 142.5 24.5t89 73t44.5 110.5t13 147v936h217v-990q0 -104 -31.5 -190t-83.5 -142.5t-122.5 -95.5t-145.5 -56t-154 -17q-53 0 -101 6t-99 21t-93.5 39t-81 62t-65.5 87.5t-42.5 119 t-15.5 152.5zM383 1604l268 249h49l275 -249l-72 -43l-223 108l-225 -108z" />
<glyph unicode="&#xdc;" horiz-adv-x="1296" d="M145 471v1004h275v-936q0 -78 11.5 -138t38.5 -111t78.5 -78.5t125.5 -27.5q85 0 142.5 24.5t89 73t44.5 110.5t13 147v936h217v-990q0 -104 -31.5 -190t-83.5 -142.5t-122.5 -95.5t-145.5 -56t-154 -17q-53 0 -101 6t-99 21t-93.5 39t-81 62t-65.5 87.5t-42.5 119 t-15.5 152.5zM369 1700q0 50 38.5 86.5t90.5 36.5t89.5 -36.5t37.5 -86.5q0 -48 -37.5 -82.5t-89.5 -34.5t-90.5 35t-38.5 82zM715 1700q0 50 37 86.5t90 36.5q52 0 90.5 -36.5t38.5 -86.5q0 -47 -38.5 -82t-90.5 -35q-53 0 -90 34.5t-37 82.5z" />
<glyph unicode="&#xdd;" horiz-adv-x="1116" d="M14 1475h303l285 -709l248 709h250l-402 -959v-516h-274v516zM477 1622l215 274l178 -100l-288 -231z" />
<glyph unicode="&#xde;" horiz-adv-x="1150" d="M145 0v1475h275v-269q94 13 151 13q44 0 81 -2t92.5 -12t99 -26.5t90.5 -49t78.5 -76t52 -111t20.5 -151.5q0 -99 -32 -183t-92.5 -148t-157 -100t-217.5 -36q-42 0 -83.5 2.5t-62.5 5.5l-20 2v-334h-275zM420 532q62 -10 115 -10q126 0 197 59t71 199q0 49 -11.5 87.5 t-27.5 62.5t-44 41.5t-49.5 26t-56 13t-52.5 5t-48 0.5q-40 0 -94 -6v-478z" />
<glyph unicode="&#xdf;" horiz-adv-x="1140" d="M12 827v177h129v24q0 225 115 355t348 130q173 0 262.5 -74t89.5 -212q0 -54 -21 -104t-51.5 -87t-61 -69t-51.5 -63.5t-21 -57.5q0 -27 33.5 -64.5t81 -80t94.5 -91.5t80.5 -115t33.5 -135q0 -175 -101 -273.5t-263 -98.5q-129 0 -228 71l80 158q72 -61 135 -61 q113 0 113 143q0 66 -30.5 122.5t-73.5 96.5t-86.5 76.5t-74 77.5t-30.5 84q0 44 20 89t49 83t57.5 76.5t48.5 83.5t20 90q0 26 -1 40.5t-7.5 39.5t-18.5 39t-37 25t-61 11q-43 0 -71.5 -8t-57 -33t-42.5 -79.5t-14 -139.5v-1073h-258v827h-129z" />
<glyph unicode="&#xe0;" horiz-adv-x="1011" d="M66 283q0 75 29 133t76.5 96t122.5 66t153 43.5t182 27.5q0 43 -2.5 71.5t-12 57t-26 44.5t-46 26t-71.5 10q-56 0 -135 -32t-160 -95l-63 197q88 59 200 83.5t197 24.5q63 0 112 -6.5t100 -26.5t84 -54.5t54 -94.5t21 -141q0 -101 -6.5 -229t-6.5 -162q0 -44 5 -75 t12.5 -49.5t23 -31t30 -18t40.5 -11.5l-33 -151q-74 -11 -80 -11q-75 0 -128.5 30t-84.5 108q-56 -73 -127.5 -105.5t-169.5 -32.5q-58 0 -106.5 14.5t-91.5 47.5t-67.5 95.5t-24.5 150.5zM262 1372l178 135l232 -327l-72 -66zM324 285q0 -38 12.5 -65t32.5 -39.5t38 -17.5 t37 -5q65 0 108.5 36.5t63.5 90.5l7 221q-148 -6 -223.5 -56t-75.5 -165z" />
<glyph unicode="&#xe1;" horiz-adv-x="1011" d="M66 283q0 75 29 133t76.5 96t122.5 66t153 43.5t182 27.5q0 43 -2.5 71.5t-12 57t-26 44.5t-46 26t-71.5 10q-56 0 -135 -32t-160 -95l-63 197q88 59 200 83.5t197 24.5q63 0 112 -6.5t100 -26.5t84 -54.5t54 -94.5t21 -141q0 -101 -6.5 -229t-6.5 -162q0 -44 5 -75 t12.5 -49.5t23 -31t30 -18t40.5 -11.5l-33 -151q-74 -11 -80 -11q-75 0 -128.5 30t-84.5 108q-56 -73 -127.5 -105.5t-169.5 -32.5q-58 0 -106.5 14.5t-91.5 47.5t-67.5 95.5t-24.5 150.5zM324 285q0 -38 12.5 -65t32.5 -39.5t38 -17.5t37 -5q65 0 108.5 36.5t63.5 90.5 l7 221q-148 -6 -223.5 -56t-75.5 -165zM354 1180l232 327l178 -135l-338 -258z" />
<glyph unicode="&#xe2;" horiz-adv-x="1011" d="M66 283q0 75 29 133t76.5 96t122.5 66t153 43.5t182 27.5q0 43 -2.5 71.5t-12 57t-26 44.5t-46 26t-71.5 10q-56 0 -135 -32t-160 -95l-63 197q88 59 200 83.5t197 24.5q63 0 112 -6.5t100 -26.5t84 -54.5t54 -94.5t21 -141q0 -101 -6.5 -229t-6.5 -162q0 -44 5 -75 t12.5 -49.5t23 -31t30 -18t40.5 -11.5l-33 -151q-74 -11 -80 -11q-75 0 -128.5 30t-84.5 108q-56 -73 -127.5 -105.5t-169.5 -32.5q-58 0 -106.5 14.5t-91.5 47.5t-67.5 95.5t-24.5 150.5zM231 1176l246 311h51l252 -311l-63 -54l-209 144l-213 -144zM324 285 q0 -38 12.5 -65t32.5 -39.5t38 -17.5t37 -5q65 0 108.5 36.5t63.5 90.5l7 221q-148 -6 -223.5 -56t-75.5 -165z" />
<glyph unicode="&#xe3;" horiz-adv-x="1011" d="M66 283q0 75 29 133t76.5 96t122.5 66t153 43.5t182 27.5q0 43 -2.5 71.5t-12 57t-26 44.5t-46 26t-71.5 10q-56 0 -135 -32t-160 -95l-63 197q88 59 200 83.5t197 24.5q63 0 112 -6.5t100 -26.5t84 -54.5t54 -94.5t21 -141q0 -101 -6.5 -229t-6.5 -162q0 -44 5 -75 t12.5 -49.5t23 -31t30 -18t40.5 -11.5l-33 -151q-74 -11 -80 -11q-75 0 -128.5 30t-84.5 108q-56 -73 -127.5 -105.5t-169.5 -32.5q-58 0 -106.5 14.5t-91.5 47.5t-67.5 95.5t-24.5 150.5zM164 1235q103 211 221 211q43 0 85 -16.5t70 -37t64.5 -37t69.5 -16.5q19 0 34 4.5 t38.5 26.5t46.5 62l71 -62q-101 -211 -221 -211q-40 0 -79 16.5t-66 37t-66 37t-78 16.5q-19 0 -34 -4.5t-38 -26t-46 -61.5zM324 285q0 -38 12.5 -65t32.5 -39.5t38 -17.5t37 -5q65 0 108.5 36.5t63.5 90.5l7 221q-148 -6 -223.5 -56t-75.5 -165z" />
<glyph unicode="&#xe4;" horiz-adv-x="1011" d="M66 283q0 75 29 133t76.5 96t122.5 66t153 43.5t182 27.5q0 43 -2.5 71.5t-12 57t-26 44.5t-46 26t-71.5 10q-56 0 -135 -32t-160 -95l-63 197q88 59 200 83.5t197 24.5q63 0 112 -6.5t100 -26.5t84 -54.5t54 -94.5t21 -141q0 -101 -6.5 -229t-6.5 -162q0 -44 5 -75 t12.5 -49.5t23 -31t30 -18t40.5 -11.5l-33 -151q-74 -11 -80 -11q-75 0 -128.5 30t-84.5 108q-56 -73 -127.5 -105.5t-169.5 -32.5q-58 0 -106.5 14.5t-91.5 47.5t-67.5 95.5t-24.5 150.5zM166 1321q0 66 40.5 105.5t102.5 39.5q66 0 109 -39.5t43 -105.5q0 -70 -42 -107.5 t-110 -37.5q-61 0 -102 38.5t-41 106.5zM324 285q0 -38 12.5 -65t32.5 -39.5t38 -17.5t37 -5q65 0 108.5 36.5t63.5 90.5l7 221q-148 -6 -223.5 -56t-75.5 -165zM559 1321q0 66 40.5 105.5t102.5 39.5q66 0 109 -39.5t43 -105.5q0 -70 -42 -107.5t-110 -37.5 q-61 0 -102 38.5t-41 106.5z" />
<glyph unicode="&#xe5;" horiz-adv-x="1011" d="M66 283q0 75 29 133t76.5 96t122.5 66t153 43.5t182 27.5q0 43 -2.5 71.5t-12 57t-26 44.5t-46 26t-71.5 10q-56 0 -135 -32t-160 -95l-63 197q88 59 200 83.5t197 24.5q63 0 112 -6.5t100 -26.5t84 -54.5t54 -94.5t21 -141q0 -101 -6.5 -229t-6.5 -162q0 -44 5 -75 t12.5 -49.5t23 -31t30 -18t40.5 -11.5l-33 -151q-74 -11 -80 -11q-75 0 -128.5 30t-84.5 108q-56 -73 -127.5 -105.5t-169.5 -32.5q-58 0 -106.5 14.5t-91.5 47.5t-67.5 95.5t-24.5 150.5zM244 1356q0 101 70 172t171 71t172.5 -71t71.5 -172t-71.5 -171.5t-172.5 -70.5 t-171 70.5t-70 171.5zM324 285q0 -38 12.5 -65t32.5 -39.5t38 -17.5t37 -5q65 0 108.5 36.5t63.5 90.5l7 221q-148 -6 -223.5 -56t-75.5 -165zM377 1356q0 -46 31 -77.5t77 -31.5t78.5 31.5t32.5 77.5t-32.5 78t-78.5 32t-77 -32t-31 -78z" />
<glyph unicode="&#xe6;" horiz-adv-x="1552" d="M66 283q0 75 29 133t76.5 96t122.5 66t153 43.5t182 27.5q0 55 -5 88.5t-20.5 64.5t-48 44.5t-84.5 13.5q-55 0 -134.5 -32.5t-160.5 -96.5l-63 197q88 60 200.5 85t196.5 25q205 0 291 -110q46 52 120.5 80t157.5 28q184 0 292 -107.5t108 -307.5v-138h-584 q0 -315 231 -315q87 0 148.5 36.5t114.5 94.5l81 -137q-92 -101 -185 -144t-236 -43q-108 0 -202 49t-153 148q-54 -102 -146 -149.5t-192 -47.5q-58 0 -106.5 14.5t-91.5 47.5t-67.5 95.5t-24.5 150.5zM324 289q0 -68 39.5 -99.5t80.5 -31.5q59 0 114.5 45.5t82.5 99.5 q-20 79 -20 189v14q-147 -6 -222 -55.5t-75 -161.5zM895 637h336q0 102 -38 169.5t-122 67.5q-151 0 -176 -237z" />
<glyph unicode="&#xe7;" horiz-adv-x="972" d="M82 492q0 141 41.5 249.5t111 171t151 93t171.5 30.5q118 0 198.5 -24.5t162.5 -81.5l-107 -180q-100 124 -227 124q-228 0 -228 -368q0 -66 13 -124t39.5 -106.5t72.5 -77t107 -28.5q146 0 262 129l82 -135q-71 -95 -158 -138.5t-205 -48.5l-22 -88q100 0 152.5 -40 t52.5 -105q0 -91 -73 -146t-226 -55q-7 0 -22 1t-23 1l6 84q6 0 18.5 -1t18.5 -1q73 0 108 27.5t35 73.5q0 86 -152 86l-6 18l43 148q-87 7 -158 40.5t-125 94.5t-84 157t-30 220z" />
<glyph unicode="&#xe8;" horiz-adv-x="1013" d="M82 492q0 261 123 402.5t336 141.5q184 0 291.5 -107.5t107.5 -307.5v-138h-584q0 -313 232 -313q87 0 148 36t114 95l82 -137q-97 -107 -184 -148t-216 -41q-93 0 -172 30t-142.5 90t-99.5 162t-36 235zM324 1372l178 135l231 -327l-71 -66zM356 637h336 q0 102 -38 169.5t-122 67.5q-151 0 -176 -237z" />
<glyph unicode="&#xe9;" horiz-adv-x="1013" d="M82 492q0 261 123 402.5t336 141.5q184 0 291.5 -107.5t107.5 -307.5v-138h-584q0 -313 232 -313q87 0 148 36t114 95l82 -137q-97 -107 -184 -148t-216 -41q-93 0 -172 30t-142.5 90t-99.5 162t-36 235zM356 637h336q0 102 -38 169.5t-122 67.5q-151 0 -176 -237z M375 1180l231 327l178 -135l-338 -258z" />
<glyph unicode="&#xea;" horiz-adv-x="1013" d="M82 492q0 261 123 402.5t336 141.5q184 0 291.5 -107.5t107.5 -307.5v-138h-584q0 -313 232 -313q87 0 148 36t114 95l82 -137q-97 -107 -184 -148t-216 -41q-93 0 -172 30t-142.5 90t-99.5 162t-36 235zM260 1176l246 311h51l252 -311l-64 -54l-208 144l-213 -144z M356 637h336q0 102 -38 169.5t-122 67.5q-151 0 -176 -237z" />
<glyph unicode="&#xeb;" horiz-adv-x="1013" d="M82 492q0 261 123 402.5t336 141.5q184 0 291.5 -107.5t107.5 -307.5v-138h-584q0 -313 232 -313q87 0 148 36t114 95l82 -137q-97 -107 -184 -148t-216 -41q-93 0 -172 30t-142.5 90t-99.5 162t-36 235zM209 1321q0 66 40.5 105.5t102.5 39.5q66 0 109 -39.5t43 -105.5 q0 -70 -42 -107.5t-110 -37.5q-61 0 -102 38.5t-41 106.5zM356 637h336q0 102 -38 169.5t-122 67.5q-151 0 -176 -237zM602 1321q0 66 40.5 105.5t102.5 39.5q66 0 109 -39.5t43 -105.5q0 -70 -42 -107.5t-110 -37.5q-61 0 -102 38.5t-41 106.5z" />
<glyph unicode="&#xec;" horiz-adv-x="501" d="M0 1372l178 135l232 -327l-72 -66zM125 0v1004h258v-1004h-258z" />
<glyph unicode="&#xed;" horiz-adv-x="501" d="M96 1180l232 327l178 -135l-338 -258zM125 0v1004h258v-1004h-258z" />
<glyph unicode="&#xee;" horiz-adv-x="501" d="M-25 1176l246 311h51l252 -311l-63 -54l-209 144l-213 -144zM125 0v1004h258v-1004h-258z" />
<glyph unicode="&#xef;" horiz-adv-x="555" d="M-12 1321q0 66 37 105.5t92 39.5q58 0 96.5 -39.5t38.5 -105.5q0 -70 -37 -107.5t-98 -37.5q-55 0 -92 38.5t-37 106.5zM145 0v1004h258v-1004h-258zM303 1321q0 66 37 105.5t92 39.5q58 0 96.5 -39.5t38.5 -105.5q0 -70 -37 -107.5t-98 -37.5q-55 0 -92 38.5t-37 106.5z " />
<glyph unicode="&#xf0;" horiz-adv-x="1107" d="M82 487q0 140 38 248t104.5 172.5t148.5 96.5t176 32q73 0 105.5 -6t76.5 -24q-23 102 -52.5 170.5t-74.5 117.5l-133 -100l-82 92l123 100q-102 82 -276 130l32 112q262 -39 394 -131l139 109l84 -86l-129 -103q149 -138 217.5 -327.5t68.5 -399.5q0 -369 -120.5 -542 t-389.5 -173q-67 0 -129 16t-121.5 54.5t-103 95.5t-70 146t-26.5 200zM352 496q0 -179 61.5 -270t145.5 -91q47 0 84 19.5t60 55.5t38.5 77t22.5 95t9.5 97t2.5 94q0 66 -12 135.5t-33 112.5q-56 53 -158 53q-221 0 -221 -378z" />
<glyph unicode="&#xf1;" horiz-adv-x="1095" d="M125 0v1004h248l10 -158q45 80 134 135t188 55q276 0 276 -295v-741h-258v641q0 28 -1.5 48t-9.5 47.5t-21.5 44.5t-40 29.5t-62.5 12.5q-137 0 -205 -207v-616h-258zM180 1235q103 211 221 211q43 0 85 -16.5t70 -37t64.5 -37t69.5 -16.5q19 0 34 4.5t38.5 26.5t46.5 62 l72 -62q-101 -211 -222 -211q-40 0 -79 16.5t-66 37t-65.5 37t-77.5 16.5q-20 0 -34.5 -4.5t-38 -26t-46.5 -61.5z" />
<glyph unicode="&#xf2;" horiz-adv-x="1140" d="M82 512q0 134 38.5 237t106.5 164.5t154 92t188 30.5q245 0 372.5 -136t127.5 -396q0 -55 -11.5 -117t-45 -137.5t-85.5 -134.5t-142.5 -99.5t-206.5 -40.5q-228 0 -362 134.5t-134 402.5zM295 1372l178 135l232 -327l-72 -66zM356 541q0 -404 224 -404q102 0 158.5 84 t56.5 252q0 401 -226 401q-48 0 -84 -15.5t-66.5 -51.5t-46.5 -103t-16 -163z" />
<glyph unicode="&#xf3;" horiz-adv-x="1140" d="M82 512q0 134 38.5 237t106.5 164.5t154 92t188 30.5q245 0 372.5 -136t127.5 -396q0 -55 -11.5 -117t-45 -137.5t-85.5 -134.5t-142.5 -99.5t-206.5 -40.5q-228 0 -362 134.5t-134 402.5zM356 541q0 -404 224 -404q102 0 158.5 84t56.5 252q0 401 -226 401 q-48 0 -84 -15.5t-66.5 -51.5t-46.5 -103t-16 -163zM436 1180l232 327l178 -135l-338 -258z" />
<glyph unicode="&#xf4;" horiz-adv-x="1140" d="M82 512q0 134 38.5 237t106.5 164.5t154 92t188 30.5q245 0 372.5 -136t127.5 -396q0 -55 -11.5 -117t-45 -137.5t-85.5 -134.5t-142.5 -99.5t-206.5 -40.5q-228 0 -362 134.5t-134 402.5zM297 1176l246 311h51l252 -311l-64 -54l-209 144l-213 -144zM356 541 q0 -404 224 -404q102 0 158.5 84t56.5 252q0 401 -226 401q-48 0 -84 -15.5t-66.5 -51.5t-46.5 -103t-16 -163z" />
<glyph unicode="&#xf5;" horiz-adv-x="1140" d="M82 512q0 134 38.5 237t106.5 164.5t154 92t188 30.5q245 0 372.5 -136t127.5 -396q0 -55 -11.5 -117t-45 -137.5t-85.5 -134.5t-142.5 -99.5t-206.5 -40.5q-228 0 -362 134.5t-134 402.5zM223 1235q103 211 221 211q43 0 85 -16.5t70 -37t64.5 -37t69.5 -16.5 q19 0 34 4.5t38.5 26.5t46.5 62l72 -62q-101 -211 -222 -211q-40 0 -79 16.5t-66 37t-65.5 37t-77.5 16.5q-20 0 -34.5 -4.5t-38 -26t-46.5 -61.5zM356 541q0 -404 224 -404q102 0 158.5 84t56.5 252q0 401 -226 401q-48 0 -84 -15.5t-66.5 -51.5t-46.5 -103t-16 -163z" />
<glyph unicode="&#xf6;" horiz-adv-x="1140" d="M82 512q0 134 38.5 237t106.5 164.5t154 92t188 30.5q245 0 372.5 -136t127.5 -396q0 -55 -11.5 -117t-45 -137.5t-85.5 -134.5t-142.5 -99.5t-206.5 -40.5q-228 0 -362 134.5t-134 402.5zM229 1321q0 66 41 105.5t103 39.5q66 0 108.5 -39.5t42.5 -105.5 q0 -70 -41.5 -107.5t-109.5 -37.5q-61 0 -102.5 38.5t-41.5 106.5zM356 541q0 -404 224 -404q102 0 158.5 84t56.5 252q0 401 -226 401q-48 0 -84 -15.5t-66.5 -51.5t-46.5 -103t-16 -163zM623 1321q0 66 40.5 105.5t102.5 39.5q66 0 109 -39.5t43 -105.5q0 -70 -42 -107.5 t-110 -37.5q-61 0 -102 38.5t-41 106.5z" />
<glyph unicode="&#xf7;" horiz-adv-x="1069" d="M61 596v162h947v-162h-947zM395 289q0 24 5 45.5t19 46.5t44.5 40t75.5 15q67 0 101 -44t34 -103q0 -61 -32.5 -104.5t-111.5 -43.5q-71 0 -103 42.5t-32 105.5zM395 1065q0 24 5 45.5t19 46.5t44.5 40t75.5 15q67 0 101 -44t34 -103q0 -61 -32.5 -104t-111.5 -43 q-71 0 -103 42t-32 105z" />
<glyph unicode="&#xf8;" horiz-adv-x="1140" d="M82 74l86 94q-86 134 -86 344q0 134 38.5 237t106.5 164.5t154 92t188 30.5q196 0 314 -84l78 84l92 -86l-80 -88q96 -134 96 -358q0 -38 -5.5 -80t-20.5 -94.5t-38.5 -101t-62 -95.5t-87.5 -81.5t-120 -55.5t-155 -21q-201 0 -326 101l-82 -90zM356 541q0 -75 11 -158 l364 403q-55 88 -162 88q-48 0 -84 -15.5t-66.5 -51.5t-46.5 -103t-16 -163zM408 244q58 -107 172 -107q102 0 158.5 84t56.5 252q0 101 -15 178z" />
<glyph unicode="&#xf9;" horiz-adv-x="1085" d="M125 279v725h258v-650q0 -168 133 -168q72 0 125.5 52t81.5 133v633h258v-1004h-248l-10 156q-80 -93 -157 -133.5t-177 -40.5q-126 0 -195 74t-69 223zM258 1372l178 135l232 -327l-72 -66z" />
<glyph unicode="&#xfa;" horiz-adv-x="1085" d="M125 279v725h258v-650q0 -168 133 -168q72 0 125.5 52t81.5 133v633h258v-1004h-248l-10 156q-80 -93 -157 -133.5t-177 -40.5q-126 0 -195 74t-69 223zM430 1180l232 327l178 -135l-338 -258z" />
<glyph unicode="&#xfb;" horiz-adv-x="1085" d="M125 279v725h258v-650q0 -168 133 -168q72 0 125.5 52t81.5 133v633h258v-1004h-248l-10 156q-80 -93 -157 -133.5t-177 -40.5q-126 0 -195 74t-69 223zM266 1176l246 311h51l252 -311l-63 -54l-209 144l-213 -144z" />
<glyph unicode="&#xfc;" horiz-adv-x="1085" d="M125 279v725h258v-650q0 -168 133 -168q72 0 125.5 52t81.5 133v633h258v-1004h-248l-10 156q-80 -93 -157 -133.5t-177 -40.5q-126 0 -195 74t-69 223zM215 1321q0 66 40.5 105.5t102.5 39.5q66 0 109 -39.5t43 -105.5q0 -70 -42 -107.5t-110 -37.5q-61 0 -102 38.5 t-41 106.5zM608 1321q0 66 41 105.5t103 39.5q66 0 108.5 -39.5t42.5 -105.5q0 -70 -41.5 -107.5t-109.5 -37.5q-61 0 -102.5 38.5t-41.5 106.5z" />
<glyph unicode="&#xfd;" horiz-adv-x="974" d="M20 1004h281l244 -738l178 738h229l-338 -1084q-32 -101 -71 -175t-74 -113t-77 -62t-71.5 -29t-64.5 -6q-50 0 -117 29l37 223q47 -14 96 -14q64 0 101 39.5t45 97.5zM406 1180l231 327l178 -135l-338 -258z" />
<glyph unicode="&#xfe;" horiz-adv-x="1103" d="M125 -459v1964h258v-606q69 137 272 137q183 0 280 -135t97 -354q0 -145 -35 -257t-97 -180t-140.5 -102.5t-169.5 -34.5q-127 0 -207 45v-477h-258zM383 211q18 -20 31 -30.5t47.5 -23t79.5 -12.5q108 0 162.5 88.5t54.5 288.5q0 149 -54.5 227t-152.5 78 q-109 0 -168 -100v-516z" />
<glyph unicode="&#xff;" horiz-adv-x="974" d="M20 1004h281l244 -738l178 738h229l-338 -1084q-32 -101 -71 -175t-74 -113t-77 -62t-71.5 -29t-64.5 -6q-50 0 -117 29l37 223q47 -14 96 -14q64 0 101 39.5t45 97.5zM164 1321q0 66 40.5 105.5t102.5 39.5q66 0 109 -39.5t43 -105.5q0 -70 -42 -107.5t-110 -37.5 q-61 0 -102 38.5t-41 106.5zM557 1321q0 66 40.5 105.5t102.5 39.5q66 0 109 -39.5t43 -105.5q0 -70 -42 -107.5t-110 -37.5q-61 0 -102 38.5t-41 106.5z" />
<glyph unicode="&#x100;" horiz-adv-x="1220" d="M4 0l518 1475h248l449 -1475h-289l-109 389h-454l-125 -389h-238zM371 1626v166h551v-166h-551zM418 567h356l-166 572z" />
<glyph unicode="&#x101;" horiz-adv-x="1011" d="M66 283q0 75 29 133t76.5 96t122.5 66t153 43.5t182 27.5q0 43 -2.5 71.5t-12 57t-26 44.5t-46 26t-71.5 10q-56 0 -135 -32t-160 -95l-63 197q88 59 200 83.5t197 24.5q63 0 112 -6.5t100 -26.5t84 -54.5t54 -94.5t21 -141q0 -101 -6.5 -229t-6.5 -162q0 -44 5 -75 t12.5 -49.5t23 -31t30 -18t40.5 -11.5l-33 -151q-74 -11 -80 -11q-75 0 -128.5 30t-84.5 108q-56 -73 -127.5 -105.5t-169.5 -32.5q-58 0 -106.5 14.5t-91.5 47.5t-67.5 95.5t-24.5 150.5zM229 1245v166h551v-166h-551zM324 285q0 -38 12.5 -65t32.5 -39.5t38 -17.5t37 -5 q65 0 108.5 36.5t63.5 90.5l7 221q-148 -6 -223.5 -56t-75.5 -165z" />
<glyph unicode="&#x102;" horiz-adv-x="1220" d="M4 0l518 1475h248l449 -1475h-289l-109 389h-454l-125 -389h-238zM350 1866h127q41 -129 168 -129q74 0 115 35.5t51 93.5h127q-9 -133 -82.5 -207t-206.5 -74q-144 0 -221 70t-78 211zM418 567h356l-166 572z" />
<glyph unicode="&#x103;" horiz-adv-x="1011" d="M66 283q0 75 29 133t76.5 96t122.5 66t153 43.5t182 27.5q0 43 -2.5 71.5t-12 57t-26 44.5t-46 26t-71.5 10q-56 0 -135 -32t-160 -95l-63 197q88 59 200 83.5t197 24.5q63 0 112 -6.5t100 -26.5t84 -54.5t54 -94.5t21 -141q0 -101 -6.5 -229t-6.5 -162q0 -44 5 -75 t12.5 -49.5t23 -31t30 -18t40.5 -11.5l-33 -151q-74 -11 -80 -11q-75 0 -128.5 30t-84.5 108q-56 -73 -127.5 -105.5t-169.5 -32.5q-58 0 -106.5 14.5t-91.5 47.5t-67.5 95.5t-24.5 150.5zM217 1487h127q15 -58 57.5 -99.5t102.5 -41.5q58 0 103 39t55 102h126 q-10 -139 -81 -227.5t-199 -88.5q-139 0 -214 85t-77 231zM324 285q0 -38 12.5 -65t32.5 -39.5t38 -17.5t37 -5q65 0 108.5 36.5t63.5 90.5l7 221q-148 -6 -223.5 -56t-75.5 -165z" />
<glyph unicode="&#x104;" horiz-adv-x="1220" d="M4 0l518 1475h248l449 -1475q-175 -91 -175 -223q0 -39 19.5 -56.5t46.5 -17.5q44 0 78 29l37 -60q-74 -94 -187 -94q-73 0 -120.5 36t-47.5 114q0 51 21.5 98.5t56 81t70 56.5t69.5 36h-157l-109 389h-454l-125 -389h-238zM418 567h356l-166 572z" />
<glyph unicode="&#x105;" horiz-adv-x="1011" d="M66 283q0 75 29 133t76.5 96t122.5 66t153 43.5t182 27.5q0 43 -2.5 71.5t-12 57t-26 44.5t-46 26t-71.5 10q-56 0 -135 -32t-160 -95l-63 197q88 59 200 83.5t197 24.5q63 0 112 -6.5t100 -26.5t84 -54.5t54 -94.5t21 -141q0 -101 -6.5 -229t-6.5 -162q0 -44 5 -75 t12.5 -49.5t23 -31t30 -18t40.5 -11.5l-33 -151l-33 -4q-108 -103 -108 -205q0 -39 19 -56.5t46 -17.5q44 0 78 29l37 -60q-74 -94 -186 -94q-73 0 -120.5 36t-47.5 114q0 149 168 254q-103 20 -146 131q-56 -73 -127.5 -105.5t-169.5 -32.5q-58 0 -106.5 14.5t-91.5 47.5 t-67.5 95.5t-24.5 150.5zM324 285q0 -38 12.5 -65t32.5 -39.5t38 -17.5t37 -5q65 0 108.5 36.5t63.5 90.5l7 221q-148 -6 -223.5 -56t-75.5 -165z" />
<glyph unicode="&#x106;" horiz-adv-x="1212" d="M104 725q0 126 25 240t78.5 212.5t130.5 170.5t187.5 113.5t244.5 41.5q98 0 200 -30t181 -80l-104 -222q-79 69 -150 99t-174 30q-69 0 -126.5 -30t-103 -93.5t-71 -173.5t-25.5 -258q0 -102 15.5 -186t40 -139.5t58.5 -98t67 -65.5t69.5 -37t62 -18t48.5 -4 q78 0 164.5 35.5t158.5 103.5l84 -135q-83 -104 -204.5 -169t-274.5 -65q-68 0 -133.5 16t-132.5 50t-123 94t-100 140.5t-68.5 198t-24.5 259.5zM582 1622l215 274l178 -100l-289 -231z" />
<glyph unicode="&#x107;" horiz-adv-x="972" d="M82 492q0 141 41.5 249.5t111 171t151 93t171.5 30.5q118 0 198.5 -24.5t162.5 -81.5l-107 -180q-100 124 -227 124q-228 0 -228 -368q0 -66 13 -124t39.5 -106.5t72.5 -77t107 -28.5q146 0 262 129l82 -135q-76 -102 -171.5 -145.5t-228.5 -43.5q-98 0 -178 30t-142 91 t-96 162t-34 234zM408 1180l231 327l178 -135l-338 -258z" />
<glyph unicode="&#x10a;" horiz-adv-x="1212" d="M104 725q0 126 25 240t78.5 212.5t130.5 170.5t187.5 113.5t244.5 41.5q98 0 200 -30t181 -80l-104 -222q-79 69 -150 99t-174 30q-69 0 -126.5 -30t-103 -93.5t-71 -173.5t-25.5 -258q0 -102 15.5 -186t40 -139.5t58.5 -98t67 -65.5t69.5 -37t62 -18t48.5 -4 q78 0 164.5 35.5t158.5 103.5l84 -135q-83 -104 -204.5 -169t-274.5 -65q-68 0 -133.5 16t-132.5 50t-123 94t-100 140.5t-68.5 198t-24.5 259.5zM561 1704q0 59 39.5 93t101.5 34q66 0 109 -34t43 -93q0 -61 -42 -94t-110 -33q-61 0 -101 34t-40 93z" />
<glyph unicode="&#x10b;" horiz-adv-x="972" d="M82 492q0 141 41.5 249.5t111 171t151 93t171.5 30.5q118 0 198.5 -24.5t162.5 -81.5l-107 -180q-100 124 -227 124q-228 0 -228 -368q0 -66 13 -124t39.5 -106.5t72.5 -77t107 -28.5q146 0 262 129l82 -135q-76 -102 -171.5 -145.5t-228.5 -43.5q-98 0 -178 30t-142 91 t-96 162t-34 234zM362 1321q0 66 41 105.5t103 39.5q66 0 108.5 -39.5t42.5 -105.5q0 -70 -41.5 -107.5t-109.5 -37.5q-61 0 -102.5 38.5t-41.5 106.5z" />
<glyph unicode="&#x10c;" horiz-adv-x="1212" d="M104 725q0 126 25 240t78.5 212.5t130.5 170.5t187.5 113.5t244.5 41.5q98 0 200 -30t181 -80l-104 -222q-79 69 -150 99t-174 30q-69 0 -126.5 -30t-103 -93.5t-71 -173.5t-25.5 -258q0 -102 15.5 -186t40 -139.5t58.5 -98t67 -65.5t69.5 -37t62 -18t48.5 -4 q78 0 164.5 35.5t158.5 103.5l84 -135q-83 -104 -204.5 -169t-274.5 -65q-68 0 -133.5 16t-132.5 50t-123 94t-100 140.5t-68.5 198t-24.5 259.5zM440 1810l72 43l225 -108l224 108l71 -43l-274 -249h-49z" />
<glyph unicode="&#x10d;" horiz-adv-x="972" d="M82 492q0 141 41.5 249.5t111 171t151 93t171.5 30.5q118 0 198.5 -24.5t162.5 -81.5l-107 -180q-100 124 -227 124q-228 0 -228 -368q0 -66 13 -124t39.5 -106.5t72.5 -77t107 -28.5q146 0 262 129l82 -135q-76 -102 -171.5 -145.5t-228.5 -43.5q-98 0 -178 30t-142 91 t-96 162t-34 234zM268 1434l64 53l213 -144l209 144l63 -53l-252 -312h-51z" />
<glyph unicode="&#x10e;" horiz-adv-x="1382" d="M145 0v1475h398q67 0 111.5 -2t130.5 -15.5t146.5 -38t134 -76t119 -123t77.5 -184t32 -254.5q0 -361 -207.5 -571.5t-558.5 -210.5h-383zM287 1810l71 43l226 -108l223 108l72 -43l-275 -249h-49zM420 201h59q123 0 217 30t165.5 95t109 176t37.5 264q0 103 -15.5 183.5 t-45.5 135.5t-69.5 93t-94 58.5t-111.5 29t-129 8.5h-123v-1073z" />
<glyph unicode="&#x10f;" horiz-adv-x="1196" d="M82 479q0 142 35 250.5t98 174.5t145 99t181 33q98 0 192 -32v501h258v-1226q0 -80 15 -111t63 -31l-22 -151q-32 -4 -68 -4q-91 0 -138 31.5t-69 103.5q-107 -142 -289 -142t-291.5 130.5t-109.5 373.5zM356 522q0 -94 14.5 -163t35.5 -105.5t51.5 -57.5t54.5 -26.5 t53 -5.5q67 0 117.5 59t50.5 172v424q-4 5 -13 13.5t-48 22t-90 13.5q-99 0 -162.5 -93t-63.5 -253zM1057 1167q86 74 102 150q-3 3 -16.5 14t-21 18.5t-17.5 20.5t-14.5 28.5t-4.5 33.5q0 120 129 120q53 0 90 -34t37 -91q0 -53 -22 -103.5t-59 -91t-73 -69t-77 -53.5z" />
<glyph unicode="&#x110;" horiz-adv-x="1382" d="M39 674v200h106v601h398q64 0 108 -2t129 -15.5t146 -38t135.5 -76t121 -122.5t79 -184t32.5 -255q0 -361 -207.5 -571.5t-558.5 -210.5h-383v674h-106zM420 201h59q123 0 217 30t165.5 95t109 176t37.5 264q0 103 -15.5 183.5t-45.5 135.5t-69.5 93t-94 58.5t-111.5 29 t-129 8.5h-123v-400h174v-200h-174v-473z" />
<glyph unicode="&#x111;" horiz-adv-x="1130" d="M86 455q0 115 23 205.5t63.5 151t98.5 100.5t125 57.5t147 17.5q95 0 192 -33v193h-411v156h411v202h258v-202h97v-156h-97v-852q0 -68 8.5 -102.5t24.5 -45t47 -10.5l-22 -151q-25 -2 -68 -2q-69 0 -109 15.5t-58.5 40.5t-39.5 77q-107 -142 -289 -142 q-179 0 -290 130.5t-111 349.5zM360 500q0 -87 14.5 -151.5t35.5 -99t51.5 -54.5t54.5 -25.5t53 -5.5q67 0 117.5 52.5t50.5 150.5l-2 411q-4 4 -13 10.5t-47 17.5t-87 11q-228 0 -228 -317z" />
<glyph unicode="&#x112;" horiz-adv-x="983" d="M145 0v1475h754v-201h-479v-432h393v-180h-393v-461h510v-201h-785zM258 1626v166h551v-166h-551z" />
<glyph unicode="&#x113;" horiz-adv-x="1013" d="M82 492q0 261 123 402.5t336 141.5q184 0 291.5 -107.5t107.5 -307.5v-138h-584q0 -313 232 -313q87 0 148 36t114 95l82 -137q-97 -107 -184 -148t-216 -41q-93 0 -172 30t-142.5 90t-99.5 162t-36 235zM256 1245v166h551v-166h-551zM356 637h336q0 102 -38 169.5 t-122 67.5q-151 0 -176 -237z" />
<glyph unicode="&#x116;" horiz-adv-x="983" d="M145 0v1475h754v-201h-479v-432h393v-180h-393v-461h510v-201h-785zM387 1704q0 59 39.5 93t101.5 34q66 0 109 -34t43 -93q0 -61 -42 -94t-110 -33q-61 0 -101 34t-40 93z" />
<glyph unicode="&#x117;" horiz-adv-x="1013" d="M82 492q0 261 123 402.5t336 141.5q184 0 291.5 -107.5t107.5 -307.5v-138h-584q0 -313 232 -313q87 0 148 36t114 95l82 -137q-97 -107 -184 -148t-216 -41q-93 0 -172 30t-142.5 90t-99.5 162t-36 235zM356 637h336q0 102 -38 169.5t-122 67.5q-151 0 -176 -237z M377 1321q0 66 40.5 105.5t102.5 39.5q66 0 109 -39.5t43 -105.5q0 -70 -42 -107.5t-110 -37.5q-61 0 -102 38.5t-41 106.5z" />
<glyph unicode="&#x118;" horiz-adv-x="983" d="M145 0v1475h754v-201h-479v-432h393v-180h-393v-461h510v-201h-92q-123 -105 -123 -223q0 -39 19 -56.5t46 -17.5q44 0 78 29l37 -60q-74 -94 -186 -94q-73 0 -120.5 36t-47.5 114q0 51 18 97t48 79.5t60 56t62 39.5h-584z" />
<glyph unicode="&#x119;" horiz-adv-x="1013" d="M82 492q0 261 123 402.5t336 141.5q184 0 291.5 -107.5t107.5 -307.5v-138h-584q0 -313 232 -313q87 0 148 36t114 95l82 -137q-115 -129 -223 -164q-123 -105 -123 -223q0 -39 19 -56.5t46 -17.5q44 0 78 29l37 -60q-74 -94 -186 -94q-73 0 -120.5 36t-47.5 114 q0 85 41 143t116 104h-37q-93 0 -172 30t-142.5 90t-99.5 162t-36 235zM356 637h336q0 102 -38 169.5t-122 67.5q-151 0 -176 -237z" />
<glyph unicode="&#x11a;" horiz-adv-x="983" d="M145 0v1475h754v-201h-479v-432h393v-180h-393v-461h510v-201h-785zM205 1810l71 43l226 -108l223 108l72 -43l-275 -249h-49z" />
<glyph unicode="&#x11b;" horiz-adv-x="1013" d="M82 492q0 261 123 402.5t336 141.5q184 0 291.5 -107.5t107.5 -307.5v-138h-584q0 -313 232 -313q87 0 148 36t114 95l82 -137q-97 -107 -184 -148t-216 -41q-93 0 -172 30t-142.5 90t-99.5 162t-36 235zM250 1434l63 53l213 -144l209 144l64 -53l-252 -312h-51zM356 637 h336q0 102 -38 169.5t-122 67.5q-151 0 -176 -237z" />
<glyph unicode="&#x11e;" horiz-adv-x="1314" d="M104 725q0 126 25 240t78.5 212.5t130.5 170.5t187.5 113.5t244.5 41.5q98 0 216 -31t194 -79l-105 -222q-35 28 -60.5 46t-67.5 39.5t-92.5 32.5t-109.5 11q-56 0 -105.5 -18t-94.5 -60t-77.5 -105t-51.5 -158t-19 -214q0 -107 13 -194t33.5 -145t50.5 -102t60 -68 t66.5 -38.5t65 -19t59.5 -4.5q50 0 97 18t68 36l22 18v366h-193v181h467v-609q-240 -217 -534 -217q-89 0 -167.5 22t-153.5 76.5t-128.5 138.5t-86 217.5t-32.5 303.5zM438 1866h127q41 -129 168 -129q74 0 115 35.5t51 93.5h127q-9 -133 -82.5 -207t-206.5 -74 q-144 0 -221 70t-78 211z" />
<glyph unicode="&#x11f;" horiz-adv-x="1105" d="M43 -197q0 29 5 52t19.5 52.5t46.5 59.5t81 60q-70 45 -70 120q0 61 47.5 117.5t146.5 89.5q-225 90 -225 328q0 95 37 166t99.5 110.5t134 58.5t151.5 19q184 0 309 -57h256v-133h-166q54 -69 54 -182q0 -167 -125 -261t-322 -94h-71q-29 -3 -53.5 -18t-24.5 -35 q0 -16 7.5 -28.5t30 -26t74 -23t129.5 -14.5q250 -18 344.5 -73t94.5 -195q0 -163 -147 -271t-386 -108q-50 0 -98.5 4.5t-105 15.5t-103 32.5t-86 51.5t-62 77t-22.5 105zM238 1487h127q15 -58 57 -99.5t102 -41.5q58 0 103 39t55 102h127q-10 -139 -81 -227.5t-200 -88.5 q-139 0 -213.5 85t-76.5 231zM244 -162q0 -32 13.5 -57t38.5 -40.5t53.5 -26t67.5 -15t71 -6.5t71 -2q117 0 188.5 35.5t71.5 99.5q0 46 -53 66.5t-209 35.5q-150 14 -252 41q-22 -9 -41.5 -50t-19.5 -81zM342 678q0 -100 53 -156.5t127 -56.5q102 0 150.5 57t48.5 160 q0 98 -44 148.5t-155 50.5q-96 0 -138 -48.5t-42 -154.5z" />
<glyph unicode="&#x120;" horiz-adv-x="1314" d="M104 725q0 126 25 240t78.5 212.5t130.5 170.5t187.5 113.5t244.5 41.5q98 0 216 -31t194 -79l-105 -222q-35 28 -60.5 46t-67.5 39.5t-92.5 32.5t-109.5 11q-56 0 -105.5 -18t-94.5 -60t-77.5 -105t-51.5 -158t-19 -214q0 -107 13 -194t33.5 -145t50.5 -102t60 -68 t66.5 -38.5t65 -19t59.5 -4.5q50 0 97 18t68 36l22 18v366h-193v181h467v-609q-240 -217 -534 -217q-89 0 -167.5 22t-153.5 76.5t-128.5 138.5t-86 217.5t-32.5 303.5zM586 1704q0 59 39.5 93t101.5 34q66 0 109 -34t43 -93q0 -61 -42 -94t-110 -33q-61 0 -101 34t-40 93z " />
<glyph unicode="&#x121;" horiz-adv-x="1105" d="M43 -197q0 29 5 52t19.5 52.5t46.5 59.5t81 60q-70 45 -70 120q0 61 47.5 117.5t146.5 89.5q-225 90 -225 328q0 95 37 166t99.5 110.5t134 58.5t151.5 19q184 0 309 -57h256v-133h-166q54 -69 54 -182q0 -167 -125 -261t-322 -94h-71q-29 -3 -53.5 -18t-24.5 -35 q0 -16 7.5 -28.5t30 -26t74 -23t129.5 -14.5q250 -18 344.5 -73t94.5 -195q0 -163 -147 -271t-386 -108q-50 0 -98.5 4.5t-105 15.5t-103 32.5t-86 51.5t-62 77t-22.5 105zM244 -162q0 -32 13.5 -57t38.5 -40.5t53.5 -26t67.5 -15t71 -6.5t71 -2q117 0 188.5 35.5t71.5 99.5 q0 46 -53 66.5t-209 35.5q-150 14 -252 41q-22 -9 -41.5 -50t-19.5 -81zM342 678q0 -100 53 -156.5t127 -56.5q102 0 150.5 57t48.5 160q0 98 -44 148.5t-155 50.5q-96 0 -138 -48.5t-42 -154.5zM385 1321q0 66 40.5 105.5t102.5 39.5q66 0 109 -39.5t43 -105.5 q0 -70 -42 -107.5t-110 -37.5q-61 0 -102 38.5t-41 106.5z" />
<glyph unicode="&#x122;" horiz-adv-x="1314" d="M104 725q0 126 25 240t78.5 212.5t130.5 170.5t187.5 113.5t244.5 41.5q98 0 216 -31t194 -79l-105 -222q-35 28 -60.5 46t-67.5 39.5t-92.5 32.5t-109.5 11q-56 0 -105.5 -18t-94.5 -60t-77.5 -105t-51.5 -158t-19 -214q0 -107 13 -194t33.5 -145t50.5 -102t60 -68 t66.5 -38.5t65 -19t59.5 -4.5q50 0 97 18t68 36l22 18v366h-193v181h467v-609q-240 -217 -534 -217q-89 0 -167.5 22t-153.5 76.5t-128.5 138.5t-86 217.5t-32.5 303.5zM592 -489q86 75 102 149q-3 3 -16.5 14.5t-20.5 18.5t-17 20t-14.5 28.5t-4.5 33.5q0 62 34.5 91.5 t94.5 29.5q53 0 90 -34t37 -91q0 -53 -22 -104t-59.5 -91t-73.5 -69t-77 -54z" />
<glyph unicode="&#x123;" horiz-adv-x="1105" d="M43 -197q0 29 5 52t19.5 52.5t46.5 59.5t81 60q-70 45 -70 120q0 61 47.5 117.5t146.5 89.5q-225 90 -225 328q0 95 37 166t99.5 110.5t134 58.5t151.5 19q184 0 309 -57h256v-133h-166q54 -69 54 -182q0 -167 -125 -261t-322 -94h-71q-29 -3 -53.5 -18t-24.5 -35 q0 -16 7.5 -28.5t30 -26t74 -23t129.5 -14.5q250 -18 344.5 -73t94.5 -195q0 -163 -147 -271t-386 -108q-50 0 -98.5 4.5t-105 15.5t-103 32.5t-86 51.5t-62 77t-22.5 105zM244 -162q0 -32 13.5 -57t38.5 -40.5t53.5 -26t67.5 -15t71 -6.5t71 -2q117 0 188.5 35.5t71.5 99.5 q0 46 -53 66.5t-209 35.5q-150 14 -252 41q-22 -9 -41.5 -50t-19.5 -81zM342 678q0 -100 53 -156.5t127 -56.5q102 0 150.5 57t48.5 160q0 98 -44 148.5t-155 50.5q-96 0 -138 -48.5t-42 -154.5zM389 1290q0 53 22 104t59.5 91t73.5 69t77 54l53 -58q-87 -76 -103 -149 q3 -3 16.5 -14t21 -18.5t17.5 -20.5t14.5 -28.5t4.5 -33.5q0 -62 -34.5 -91.5t-94.5 -29.5q-53 0 -90 34t-37 91z" />
<glyph unicode="&#x126;" horiz-adv-x="1345" d="M53 1055v180h92v240h275v-240h528v240h275v-240h92v-180h-92v-1055h-275v674h-528v-674h-275v1055h-92zM420 874h528v181h-528v-181z" />
<glyph unicode="&#x127;" horiz-adv-x="1095" d="M16 1147v156h129v202h258v-202h379v-156h-379v-322q44 79 131 134t177 55q290 0 290 -295v-719h-258v618q0 28 -1.5 48.5t-9.5 47.5t-21.5 44.5t-40 30t-62.5 12.5q-79 0 -133.5 -66t-71.5 -149v-586h-258v1147h-129z" />
<glyph unicode="&#x12a;" horiz-adv-x="542" d="M-2 1626v166h551v-166h-551zM145 0v1475h275v-1475h-275z" />
<glyph unicode="&#x12b;" horiz-adv-x="501" d="M-25 1245v166h551v-166h-551zM125 0v1004h258v-1004h-258z" />
<glyph unicode="&#x12e;" horiz-adv-x="542" d="M96 -272q0 51 18 97t48.5 79.5t60.5 56t62 39.5h-140v1475h275v-1475h-27q-123 -105 -123 -223q0 -39 19.5 -56.5t46.5 -17.5q44 0 78 29l37 -60q-74 -94 -187 -94q-73 0 -120.5 36t-47.5 114z" />
<glyph unicode="&#x12f;" horiz-adv-x="501" d="M76 -272q0 51 18 97t48 79.5t60 56t62 39.5h-139v1004h258v-1004h-10q-123 -105 -123 -223q0 -39 19 -56.5t46 -17.5q44 0 78 29l37 -60q-74 -94 -186 -94q-73 0 -120.5 36t-47.5 114zM109 1321q0 66 40.5 105.5t102.5 39.5q66 0 108.5 -39.5t42.5 -105.5 q0 -70 -41.5 -107.5t-109.5 -37.5q-61 0 -102 38.5t-41 106.5z" />
<glyph unicode="&#x130;" horiz-adv-x="542" d="M129 1704q0 59 39.5 93t101.5 34q66 0 109 -34t43 -93q0 -61 -42 -94t-110 -33q-61 0 -101 34t-40 93zM145 0v1475h275v-1475h-275z" />
<glyph unicode="&#x131;" horiz-adv-x="501" d="M125 0v1004h258v-1004h-258z" />
<glyph unicode="&#x136;" horiz-adv-x="1167" d="M145 0v1475h275v-709l383 709h303l-442 -699l499 -776h-342l-401 717v-717h-275zM479 -489q87 76 103 149q-3 3 -16.5 14t-21 18.5t-17.5 20.5t-14.5 28.5t-4.5 33.5q0 62 34.5 91.5t94.5 29.5q53 0 90 -34t37 -91q0 -53 -22 -104t-59.5 -91t-73.5 -69t-77 -54z" />
<glyph unicode="&#x137;" horiz-adv-x="995" d="M125 0v1505h258v-948l274 447h269l-303 -426l366 -578h-291l-315 510v-510h-258zM360 -489q87 76 103 149q-3 3 -16.5 14t-21 18.5t-17.5 20.5t-14.5 28.5t-4.5 33.5q0 62 34.5 91.5t94.5 29.5q53 0 90 -34t37 -91q0 -53 -22 -104t-59 -91t-73 -69t-77 -54z" />
<glyph unicode="&#x139;" horiz-adv-x="948" d="M145 0v1475h275v-1274h489v-201h-764zM276 1622l216 274l178 -100l-289 -231z" />
<glyph unicode="&#x13a;" horiz-adv-x="501" d="M53 1622l215 274l178 -100l-288 -231zM125 0v1505h258v-1505h-258z" />
<glyph unicode="&#x13b;" horiz-adv-x="948" d="M145 0v1475h275v-1274h489v-201h-764zM332 -489q86 75 102 149q-3 3 -16.5 14t-21 18.5t-17.5 20.5t-14.5 28.5t-4.5 33.5q0 62 34.5 91.5t94.5 29.5q53 0 90 -34t37 -91q0 -53 -22 -104t-59 -91t-73 -69t-77 -54z" />
<glyph unicode="&#x13c;" horiz-adv-x="501" d="M109 -489q86 75 102 149q-3 3 -16.5 14t-21 18.5t-17.5 20.5t-14.5 28.5t-4.5 33.5q0 62 34.5 91.5t94.5 29.5q53 0 90 -34t37 -91q0 -53 -22 -104t-59 -91t-73 -69t-77 -54zM125 0v1505h258v-1505h-258z" />
<glyph unicode="&#x13d;" horiz-adv-x="948" d="M145 0v1475h275v-1274h489v-201h-764zM631 1065q86 75 102 149q-3 3 -16.5 14t-21 18.5t-17.5 20.5t-14.5 28.5t-4.5 33.5q0 62 34.5 91.5t94.5 29.5q53 0 90 -34t37 -91q0 -53 -22 -103.5t-59 -91t-73 -69t-77 -53.5z" />
<glyph unicode="&#x13e;" horiz-adv-x="604" d="M125 0v1505h258v-1505h-258zM465 1167q86 74 102 150q-3 3 -16.5 14.5t-20.5 18.5t-17 20t-14.5 28.5t-4.5 33.5q0 120 129 120q53 0 90 -34t37 -91q0 -53 -22 -103.5t-59.5 -91t-73.5 -69t-77 -53.5z" />
<glyph unicode="&#x13f;" horiz-adv-x="948" d="M145 0v1475h275v-1274h489v-201h-764zM594 838q0 66 40.5 105.5t102.5 39.5q66 0 109 -39.5t43 -105.5q0 -70 -42 -108t-110 -38q-61 0 -102 39t-41 107z" />
<glyph unicode="&#x140;" horiz-adv-x="819" d="M125 0v1505h258v-1505h-258zM506 750q0 66 40.5 105.5t102.5 39.5q66 0 109 -39.5t43 -105.5q0 -70 -42 -108t-110 -38q-61 0 -102 39t-41 107z" />
<glyph unicode="&#x141;" horiz-adv-x="948" d="M-43 551l188 164v760h275v-519l153 131l105 -129l-258 -223v-534h489v-201h-764v494l-84 -74z" />
<glyph unicode="&#x142;" horiz-adv-x="581" d="M-43 590l205 174v741h258v-520l112 109l99 -107l-211 -192v-795h-258v571l-107 -90z" />
<glyph unicode="&#x143;" horiz-adv-x="1327" d="M145 0v1475h299l543 -918v918h217v-1475h-182l-660 1096v-1096h-217zM467 1622l215 274l178 -100l-289 -231z" />
<glyph unicode="&#x144;" horiz-adv-x="1095" d="M125 0v1004h248l10 -158q45 80 134 135t188 55q276 0 276 -295v-741h-258v641q0 28 -1.5 48t-9.5 47.5t-21.5 44.5t-40 29.5t-62.5 12.5q-137 0 -205 -207v-616h-258zM438 1180l232 327l178 -135l-338 -258z" />
<glyph unicode="&#x145;" horiz-adv-x="1327" d="M145 0v1475h299l543 -918v918h217v-1475h-182l-660 1096v-1096h-217zM520 -489q87 76 103 149q-3 3 -16.5 14t-21 18.5t-17.5 20.5t-14.5 28.5t-4.5 33.5q0 62 34.5 91.5t94.5 29.5q53 0 90 -34t37 -91q0 -53 -22 -104t-59.5 -91t-73.5 -69t-77 -54z" />
<glyph unicode="&#x146;" horiz-adv-x="1095" d="M125 0v1004h248l10 -158q45 80 134 135t188 55q276 0 276 -295v-741h-258v641q0 28 -1.5 48t-9.5 47.5t-21.5 44.5t-40 29.5t-62.5 12.5q-137 0 -205 -207v-616h-258zM408 -489q86 75 102 149q-3 3 -16.5 14t-21 18.5t-17.5 20.5t-14.5 28.5t-4.5 33.5q0 62 34.5 91.5 t94.5 29.5q53 0 90 -34t37 -91q0 -53 -22 -104t-59 -91t-73 -69t-77 -54z" />
<glyph unicode="&#x147;" horiz-adv-x="1327" d="M145 0v1475h299l543 -918v918h217v-1475h-182l-660 1096v-1096h-217zM377 1810l72 43l225 -108l223 108l72 -43l-275 -249h-49z" />
<glyph unicode="&#x148;" horiz-adv-x="1095" d="M125 0v1004h248l10 -158q45 80 134 135t188 55q276 0 276 -295v-741h-258v641q0 28 -1.5 48t-9.5 47.5t-21.5 44.5t-40 29.5t-62.5 12.5q-137 0 -205 -207v-616h-258zM272 1434l64 53l213 -144l209 144l63 -53l-252 -312h-51z" />
<glyph unicode="&#x14c;" horiz-adv-x="1435" d="M104 709q0 399 169.5 595.5t471.5 196.5q280 0 441.5 -191.5t161.5 -547.5q0 -383 -168.5 -588t-472.5 -205q-128 0 -237 47t-191 137.5t-128.5 233t-46.5 322.5zM397 770q0 -97 9 -180t32 -162.5t59 -135t94.5 -89t133.5 -33.5q158 0 244 140t86 390q0 134 -16 237.5 t-52 188t-102 129.5t-160 45q-168 0 -248 -133.5t-80 -396.5zM434 1626v166h551v-166h-551z" />
<glyph unicode="&#x14d;" horiz-adv-x="1140" d="M82 512q0 134 38.5 237t106.5 164.5t154 92t188 30.5q245 0 372.5 -136t127.5 -396q0 -55 -11.5 -117t-45 -137.5t-85.5 -134.5t-142.5 -99.5t-206.5 -40.5q-228 0 -362 134.5t-134 402.5zM281 1245v166h550v-166h-550zM356 541q0 -404 224 -404q102 0 158.5 84t56.5 252 q0 401 -226 401q-48 0 -84 -15.5t-66.5 -51.5t-46.5 -103t-16 -163z" />
<glyph unicode="&#x150;" horiz-adv-x="1435" d="M104 709q0 399 169.5 595.5t471.5 196.5q280 0 441.5 -191.5t161.5 -547.5q0 -383 -168.5 -588t-472.5 -205q-128 0 -237 47t-191 137.5t-128.5 233t-46.5 322.5zM397 770q0 -97 9 -180t32 -162.5t59 -135t94.5 -89t133.5 -33.5q158 0 244 140t86 390q0 134 -16 237.5 t-52 188t-102 129.5t-160 45q-168 0 -248 -133.5t-80 -396.5zM408 1622l215 274l178 -100l-289 -231zM741 1622l215 274l179 -100l-289 -231z" />
<glyph unicode="&#x151;" horiz-adv-x="1140" d="M82 512q0 134 38.5 237t106.5 164.5t154 92t188 30.5q245 0 372.5 -136t127.5 -396q0 -55 -11.5 -117t-45 -137.5t-85.5 -134.5t-142.5 -99.5t-206.5 -40.5q-228 0 -362 134.5t-134 402.5zM295 1180l231 327l179 -135l-338 -258zM356 541q0 -404 224 -404q102 0 158.5 84 t56.5 252q0 401 -226 401q-48 0 -84 -15.5t-66.5 -51.5t-46.5 -103t-16 -163zM647 1180l232 327l178 -135l-338 -258z" />
<glyph unicode="&#x152;" horiz-adv-x="1837" d="M104 709q0 399 169.5 595.5t471.5 196.5q126 0 254 -26h754v-201h-479v-432h393v-180h-393v-461h510v-201h-785q-155 -31 -260 -31q-295 0 -465 189.5t-170 550.5zM397 770q0 -600 361 -600q133 0 241 49v1043q-112 38 -239 38q-192 0 -277.5 -131.5t-85.5 -398.5z" />
<glyph unicode="&#x153;" horiz-adv-x="1716" d="M82 512q0 134 38.5 237t106.5 164.5t154 92t188 30.5q233 0 355 -137q117 137 319 137q184 0 291.5 -109t107.5 -309v-137h-585q0 -62 10 -113t34.5 -98.5t72.5 -74.5t116 -27q87 0 148 36t114 95l82 -137q-97 -108 -187 -148.5t-235 -40.5q-88 0 -168.5 37t-132.5 105 q-62 -69 -141 -104.5t-190 -35.5q-228 0 -363 134.5t-135 402.5zM356 539q0 -402 224 -402q102 0 158.5 83t56.5 251q0 403 -226 403q-47 0 -83.5 -15.5t-67 -52t-46.5 -104t-16 -163.5zM1057 635h338q0 48 -8.5 89t-26 75.5t-49.5 54.5t-76 20q-153 0 -178 -239z" />
<glyph unicode="&#x154;" horiz-adv-x="1142" d="M145 0v1475h404q508 0 508 -396q0 -169 -88.5 -278t-239.5 -139l379 -662h-299l-338 631h-51v-631h-275zM420 799h67q295 0 295 258q0 54 -16 94t-41 63t-62 37t-72 18.5t-79 4.5h-92v-475zM440 1622l215 274l179 -100l-289 -231z" />
<glyph unicode="&#x155;" horiz-adv-x="749" d="M125 0v1004h258v-173q58 93 132 140.5t190 56.5l16 -235q-83 0 -140 -10.5t-104.5 -37.5t-70.5 -80t-23 -133v-532h-258zM291 1180l231 327l178 -135l-338 -258z" />
<glyph unicode="&#x156;" horiz-adv-x="1142" d="M145 0v1475h404q508 0 508 -396q0 -169 -88.5 -278t-239.5 -139l379 -662h-299l-338 631h-51v-631h-275zM420 799h67q295 0 295 258q0 54 -16 94t-41 63t-62 37t-72 18.5t-79 4.5h-92v-475zM424 -489q86 75 102 149q-3 3 -16.5 14.5t-20.5 18.5t-17 20t-14.5 28.5 t-4.5 33.5q0 62 34.5 91.5t94.5 29.5q53 0 90 -34t37 -91q0 -53 -22 -104t-59.5 -91t-73.5 -69t-77 -54z" />
<glyph unicode="&#x157;" horiz-adv-x="749" d="M111 -489q86 75 102 149q-3 3 -16.5 14t-21 18.5t-17.5 20.5t-14.5 28.5t-4.5 33.5q0 62 34.5 91.5t94.5 29.5q53 0 90 -34t37 -91q0 -53 -22 -104t-59 -91t-73 -69t-77 -54zM125 0v1004h258v-173q58 93 132 140.5t190 56.5l16 -235q-83 0 -140 -10.5t-104.5 -37.5 t-70.5 -80t-23 -133v-532h-258z" />
<glyph unicode="&#x158;" horiz-adv-x="1142" d="M145 0v1475h404q508 0 508 -396q0 -169 -88.5 -278t-239.5 -139l379 -662h-299l-338 631h-51v-631h-275zM276 1810l72 43l225 -108l224 108l71 -43l-274 -249h-49zM420 799h67q295 0 295 258q0 54 -16 94t-41 63t-62 37t-72 18.5t-79 4.5h-92v-475z" />
<glyph unicode="&#x159;" horiz-adv-x="749" d="M121 1434l63 53l213 -144l209 144l64 -53l-252 -312h-51zM125 0v1004h258v-173q58 93 132 140.5t190 56.5l16 -235q-83 0 -140 -10.5t-104.5 -37.5t-70.5 -80t-23 -133v-532h-258z" />
<glyph unicode="&#x15a;" horiz-adv-x="1040" d="M61 94l91 215q95 -78 179 -108.5t175 -30.5q97 0 156 59.5t59 145.5q0 20 -2 37t-9 33.5t-11.5 28t-20 26t-23.5 23t-32 22.5t-36.5 21.5t-46 23.5t-50.5 23.5t-60 27.5q-63 29 -101.5 48.5t-86.5 49.5t-76.5 61t-55 72.5t-38 94t-11.5 116.5q0 188 128.5 303t342.5 115 q201 0 361 -71l-55 -226q-86 51 -155.5 73.5t-150.5 22.5q-36 0 -69 -8t-65.5 -27.5t-52 -58.5t-19.5 -94q0 -82 59.5 -133.5t204.5 -110.5q221 -89 311 -186t90 -256q0 -55 -15.5 -114t-53.5 -121t-93 -111t-143.5 -80t-196.5 -31q-258 0 -428 125zM324 1622l215 274 l178 -100l-289 -231z" />
<glyph unicode="&#x15b;" horiz-adv-x="870" d="M61 63l62 191q156 -117 287 -117q85 0 123 36t38 89q0 50 -30 73.5t-109 53.5l-102 39q-42 16 -68 27.5t-64.5 36t-61 50.5t-39.5 67.5t-17 90.5q0 78 24 139t61 97t87.5 59.5t98 32t98.5 8.5q187 0 327 -86l-106 -164q-66 51 -112.5 69.5t-115.5 18.5q-54 0 -87 -24 t-33 -68q0 -26 6 -43t34 -38.5t80 -38.5l121 -41q42 -14 70 -25.5t67.5 -35.5t63.5 -51t41.5 -70.5t17.5 -96.5q0 -159 -107 -263t-313 -104q-79 0 -172.5 21.5t-169.5 66.5zM309 1180l232 327l178 -135l-338 -258z" />
<glyph unicode="&#x15e;" horiz-adv-x="1040" d="M61 94l91 215q95 -78 179 -108.5t175 -30.5q97 0 156 59.5t59 145.5q0 20 -2 37t-9 33.5t-11.5 28t-20 26t-23.5 23t-32 22.5t-36.5 21.5t-46 23.5t-50.5 23.5t-60 27.5q-63 29 -101.5 48.5t-86.5 49.5t-76.5 61t-55 72.5t-38 94t-11.5 116.5q0 188 128.5 303t342.5 115 q201 0 361 -71l-55 -226q-86 51 -155.5 73.5t-150.5 22.5q-36 0 -69 -8t-65.5 -27.5t-52 -58.5t-19.5 -94q0 -82 59.5 -133.5t204.5 -110.5q221 -89 311 -186t90 -256q0 -52 -14 -107.5t-47 -115t-82 -107t-126.5 -81.5t-172.5 -42l-25 -90q111 0 168.5 -41.5t57.5 -107.5 q0 -94 -80 -150.5t-250 -56.5q-6 0 -23 1t-26 1l8 86q6 0 19.5 -1t19.5 -1q81 0 119 28.5t38 75.5q0 88 -165 88l-7 19l46 145q-230 8 -388 125z" />
<glyph unicode="&#x15f;" horiz-adv-x="870" d="M61 63l62 191q156 -117 287 -117q85 0 123 36t38 89q0 50 -30 73.5t-109 53.5l-102 39q-42 16 -68 27.5t-64.5 36t-61 50.5t-39.5 67.5t-17 90.5q0 78 24 139t61 97t87.5 59.5t98 32t98.5 8.5q187 0 327 -86l-106 -164q-66 51 -112.5 69.5t-115.5 18.5q-54 0 -87 -24 t-33 -68q0 -26 6 -43t34 -38.5t80 -38.5l121 -41q42 -14 70 -25.5t67.5 -35.5t63.5 -51t41.5 -70.5t17.5 -96.5q0 -150 -96.5 -252.5t-282.5 -112.5l-22 -88q100 0 152.5 -40t52.5 -105q0 -91 -73 -146t-226 -55q-7 0 -22 1t-23 1l6 84q6 0 18.5 -1t18.5 -1q73 0 108 27.5 t35 73.5q0 86 -152 86l-6 18l43 145q-176 16 -293 86z" />
<glyph unicode="&#x160;" horiz-adv-x="1040" d="M61 94l91 215q95 -78 179 -108.5t175 -30.5q97 0 156 59.5t59 145.5q0 20 -2 37t-9 33.5t-11.5 28t-20 26t-23.5 23t-32 22.5t-36.5 21.5t-46 23.5t-50.5 23.5t-60 27.5q-63 29 -101.5 48.5t-86.5 49.5t-76.5 61t-55 72.5t-38 94t-11.5 116.5q0 188 128.5 303t342.5 115 q201 0 361 -71l-55 -226q-86 51 -155.5 73.5t-150.5 22.5q-36 0 -69 -8t-65.5 -27.5t-52 -58.5t-19.5 -94q0 -82 59.5 -133.5t204.5 -110.5q221 -89 311 -186t90 -256q0 -55 -15.5 -114t-53.5 -121t-93 -111t-143.5 -80t-196.5 -31q-258 0 -428 125zM197 1810l71 43 l226 -108l223 108l71 -43l-274 -249h-49z" />
<glyph unicode="&#x161;" horiz-adv-x="870" d="M61 63l62 191q156 -117 287 -117q85 0 123 36t38 89q0 50 -30 73.5t-109 53.5l-102 39q-42 16 -68 27.5t-64.5 36t-61 50.5t-39.5 67.5t-17 90.5q0 78 24 139t61 97t87.5 59.5t98 32t98.5 8.5q187 0 327 -86l-106 -164q-66 51 -112.5 69.5t-115.5 18.5q-54 0 -87 -24 t-33 -68q0 -26 6 -43t34 -38.5t80 -38.5l121 -41q42 -14 70 -25.5t67.5 -35.5t63.5 -51t41.5 -70.5t17.5 -96.5q0 -159 -107 -263t-313 -104q-79 0 -172.5 21.5t-169.5 66.5zM172 1434l64 53l213 -144l208 144l64 -53l-252 -312h-51z" />
<glyph unicode="&#x162;" horiz-adv-x="1040" d="M43 1274v201h950v-201h-338v-1274h-98l-33 -117q111 0 168.5 -41.5t57.5 -107.5q0 -94 -80 -150.5t-250 -56.5q-6 0 -23 1t-26 1l8 86q6 0 19.5 -1t19.5 -1q81 0 119 28.5t38 75.5q0 88 -165 88l-7 19l56 176h-78v1274h-338z" />
<glyph unicode="&#x163;" horiz-adv-x="710" d="M27 827v125q24 10 42.5 20t50 36.5t55.5 60.5t51 94t46 135h123v-294h254v-177h-254v-522q0 -77 27 -105t94 -28q49 0 146 33l16 -150q-139 -64 -262 -69l-27 -97q100 0 152.5 -40t52.5 -105q0 -91 -73 -146t-226 -55q-7 0 -22 1t-23 1l6 84q6 0 18.5 -1t18.5 -1 q73 0 108 27.5t35 73.5q0 86 -151 86l-6 18l47 158q-98 14 -143.5 77.5t-45.5 196.5v563h-110z" />
<glyph unicode="&#x164;" horiz-adv-x="1040" d="M43 1274v201h950v-201h-338v-1274h-274v1274h-338zM233 1810l72 43l225 -108l224 108l71 -43l-274 -249h-49z" />
<glyph unicode="&#x165;" horiz-adv-x="710" d="M27 827v125q24 10 42.5 20t50 36.5t55.5 60.5t51 94t46 135h123v-294h254v-177h-254v-522q0 -77 27 -105t94 -28q49 0 146 33l16 -150q-149 -69 -283 -69q-136 0 -197 62.5t-61 215.5v563h-110zM465 1167q86 74 102 150q-3 3 -16.5 14.5t-20.5 18.5t-17 20t-14.5 28.5 t-4.5 33.5q0 120 129 120q53 0 90 -34t37 -91q0 -53 -22 -103.5t-59.5 -91t-73.5 -69t-77 -53.5z" />
<glyph unicode="&#x16a;" horiz-adv-x="1296" d="M145 471v1004h275v-936q0 -78 11.5 -138t38.5 -111t78.5 -78.5t125.5 -27.5q85 0 142.5 24.5t89 73t44.5 110.5t13 147v936h217v-990q0 -104 -31.5 -190t-83.5 -142.5t-122.5 -95.5t-145.5 -56t-154 -17q-53 0 -101 6t-99 21t-93.5 39t-81 62t-65.5 87.5t-42.5 119 t-15.5 152.5zM414 1626v166h551v-166h-551z" />
<glyph unicode="&#x16b;" horiz-adv-x="1085" d="M125 279v725h258v-650q0 -168 133 -168q72 0 125.5 52t81.5 133v633h258v-1004h-248l-10 156q-80 -93 -157 -133.5t-177 -40.5q-126 0 -195 74t-69 223zM281 1245v166h550v-166h-550z" />
<glyph unicode="&#x16e;" horiz-adv-x="1296" d="M145 471v1004h275v-936q0 -78 11.5 -138t38.5 -111t78.5 -78.5t125.5 -27.5q85 0 142.5 24.5t89 73t44.5 110.5t13 147v936h217v-990q0 -104 -31.5 -190t-83.5 -142.5t-122.5 -95.5t-145.5 -56t-154 -17q-53 0 -101 6t-99 21t-93.5 39t-81 62t-65.5 87.5t-42.5 119 t-15.5 152.5zM436 1722q0 101 70.5 172.5t171.5 71.5t172.5 -71.5t71.5 -172.5t-71 -171t-173 -70q-101 0 -171.5 70t-70.5 171zM569 1722q0 -46 31.5 -77t77.5 -31t78 31t32 77t-32 78.5t-78 32.5t-77.5 -32.5t-31.5 -78.5z" />
<glyph unicode="&#x16f;" horiz-adv-x="1085" d="M125 279v725h258v-650q0 -168 133 -168q72 0 125.5 52t81.5 133v633h258v-1004h-248l-10 156q-80 -93 -157 -133.5t-177 -40.5q-126 0 -195 74t-69 223zM305 1356q0 101 70.5 172t171.5 71t172.5 -71t71.5 -172t-71.5 -171.5t-172.5 -70.5t-171.5 70.5t-70.5 171.5z M438 1356q0 -46 31.5 -77.5t77.5 -31.5t78 31.5t32 77.5t-32 78t-78 32t-77.5 -32t-31.5 -78z" />
<glyph unicode="&#x170;" horiz-adv-x="1296" d="M145 471v1004h275v-936q0 -78 11.5 -138t38.5 -111t78.5 -78.5t125.5 -27.5q85 0 142.5 24.5t89 73t44.5 110.5t13 147v936h217v-990q0 -104 -31.5 -190t-83.5 -142.5t-122.5 -95.5t-145.5 -56t-154 -17q-53 0 -101 6t-99 21t-93.5 39t-81 62t-65.5 87.5t-42.5 119 t-15.5 152.5zM430 1622l215 274l178 -100l-288 -231zM764 1622l215 274l178 -100l-289 -231z" />
<glyph unicode="&#x171;" horiz-adv-x="1085" d="M125 279v725h258v-650q0 -168 133 -168q72 0 125.5 52t81.5 133v633h258v-1004h-248l-10 156q-80 -93 -157 -133.5t-177 -40.5q-126 0 -195 74t-69 223zM223 1180l232 327l178 -135l-338 -258zM575 1180l232 327l178 -135l-338 -258z" />
<glyph unicode="&#x172;" horiz-adv-x="1296" d="M145 471v1004h275v-936q0 -78 11.5 -138t38.5 -111t78.5 -78.5t125.5 -27.5q85 0 142.5 24.5t89 73t44.5 110.5t13 147v936h217v-990q0 -164 -72.5 -275t-194.5 -169q-68 -55 -115.5 -131t-47.5 -133q0 -39 19 -56.5t46 -17.5q44 0 78 29l37 -60q-74 -94 -187 -94 q-73 0 -120.5 36t-47.5 114q0 90 56 158t131 110q-58 -12 -119 -12q-53 0 -101 6t-99 21t-93.5 39t-81 62t-65.5 87.5t-42.5 119t-15.5 152.5z" />
<glyph unicode="&#x173;" horiz-adv-x="1085" d="M125 279v725h258v-650q0 -168 133 -168q72 0 125.5 52t81.5 133v633h258v-1004h-23q-135 -112 -135 -227q0 -37 18 -58.5t54 -21.5q42 0 84 39l37 -60q-74 -94 -187 -94q-73 0 -120 36t-47 114q0 51 18 97t48 79.5t60 56t62 39.5h-117l-10 156q-80 -93 -157 -133.5 t-177 -40.5q-126 0 -195 74t-69 223z" />
<glyph unicode="&#x178;" horiz-adv-x="1116" d="M14 1475h303l285 -709l248 709h250l-402 -959v-516h-274v516zM279 1700q0 50 38.5 86.5t90.5 36.5t89.5 -36.5t37.5 -86.5q0 -48 -37.5 -82.5t-89.5 -34.5t-90.5 35t-38.5 82zM625 1700q0 50 37 86.5t90 36.5q52 0 90.5 -36.5t38.5 -86.5q0 -47 -38.5 -82t-90.5 -35 q-53 0 -90 34.5t-37 82.5z" />
<glyph unicode="&#x179;" horiz-adv-x="1048" d="M88 0v139l563 1135h-534v201h858v-148l-578 -1126h578v-201h-887zM401 1622l215 274l179 -100l-289 -231z" />
<glyph unicode="&#x17a;" horiz-adv-x="786" d="M41 0v141l412 686h-390v177h693v-123l-422 -705h403v-176h-696zM254 1180l231 327l179 -135l-338 -258z" />
<glyph unicode="&#x17b;" horiz-adv-x="1048" d="M88 0v139l563 1135h-534v201h858v-148l-578 -1126h578v-201h-887zM387 1704q0 59 39.5 93t101.5 34q66 0 109 -34t43 -93q0 -61 -42 -94t-110 -33q-61 0 -101 34t-40 93z" />
<glyph unicode="&#x17c;" horiz-adv-x="786" d="M41 0v141l412 686h-390v177h693v-123l-422 -705h403v-176h-696zM266 1321q0 66 41 105.5t103 39.5q66 0 108.5 -39.5t42.5 -105.5q0 -70 -41.5 -107.5t-109.5 -37.5q-61 0 -102.5 38.5t-41.5 106.5z" />
<glyph unicode="&#x17d;" horiz-adv-x="1048" d="M88 0v139l563 1135h-534v201h858v-148l-578 -1126h578v-201h-887zM233 1810l72 43l225 -108l224 108l71 -43l-274 -249h-49z" />
<glyph unicode="&#x17e;" horiz-adv-x="786" d="M41 0v141l412 686h-390v177h693v-123l-422 -705h403v-176h-696zM141 1434l64 53l213 -144l209 144l63 -53l-252 -312h-51z" />
<glyph unicode="&#x18f;" horiz-adv-x="1361" d="M104 643q0 53 11 203h870q-2 114 -24.5 199.5t-54.5 133.5t-78 77t-87.5 38t-91.5 9q-98 0 -177.5 -33t-162.5 -113l-92 195q127 85 233.5 118t239.5 33q279 0 431.5 -186t152.5 -529q0 -207 -47.5 -366.5t-131.5 -256.5t-190 -145.5t-231 -48.5q-98 0 -180 23t-139.5 62 t-102.5 94t-72.5 114t-45 127t-24 128.5t-6.5 123.5zM373 645q4 -128 30.5 -223t69 -148t91.5 -77.5t106 -24.5q43 0 81 10t80 41t73 81t52.5 137.5t24.5 203.5h-608z" />
<glyph unicode="&#x192;" d="M-135 -301q53 10 86 24.5t69.5 49t64 93t57 153.5t59.5 235l125 577h-148l37 173h145q110 509 611 509l-33 -190q-55 -2 -89.5 -8t-72.5 -24.5t-63 -52t-49 -91.5t-43 -143h264l-35 -173h-266l-129 -614q-21 -99 -54.5 -191.5t-85.5 -180t-116 -153.5t-150.5 -109 t-183.5 -50v166z" />
<glyph unicode="&#x1dd;" horiz-adv-x="1044" d="M82 502q0 51 2 78h614q-1 80 -18 138.5t-39 87t-54 44.5t-52 19t-46 3q-75 0 -133 -28t-135 -99l-65 177q84 58 171 87t205 29q67 0 128 -15t119 -51.5t100.5 -93t68 -145t25.5 -201.5q0 -137 -41.5 -246t-109.5 -175.5t-151 -101t-171 -34.5q-61 0 -116.5 14t-112 50.5 t-97.5 94t-66.5 152t-25.5 216.5zM334 442q0 -161 52.5 -231t131.5 -70q83 0 131.5 91t48.5 210h-364z" />
<glyph unicode="&#x218;" horiz-adv-x="1040" d="M61 94l91 215q95 -78 179 -108.5t175 -30.5q97 0 156 59.5t59 145.5q0 20 -2 37t-9 33.5t-11.5 28t-20 26t-23.5 23t-32 22.5t-36.5 21.5t-46 23.5t-50.5 23.5t-60 27.5q-63 29 -101.5 48.5t-86.5 49.5t-76.5 61t-55 72.5t-38 94t-11.5 116.5q0 188 128.5 303t342.5 115 q201 0 361 -71l-55 -226q-86 51 -155.5 73.5t-150.5 22.5q-36 0 -69 -8t-65.5 -27.5t-52 -58.5t-19.5 -94q0 -82 59.5 -133.5t204.5 -110.5q221 -89 311 -186t90 -256q0 -55 -15.5 -114t-53.5 -121t-93 -111t-143.5 -80t-196.5 -31q-258 0 -428 125zM358 -489q87 76 103 149 q-3 3 -16.5 14t-21 18.5t-17.5 20.5t-14.5 28.5t-4.5 33.5q0 62 34.5 91.5t94.5 29.5q53 0 90 -34t37 -91q0 -53 -22 -104t-59 -91t-73 -69t-77 -54z" />
<glyph unicode="&#x219;" horiz-adv-x="870" d="M61 63l62 191q156 -117 287 -117q85 0 123 36t38 89q0 50 -30 73.5t-109 53.5l-102 39q-42 16 -68 27.5t-64.5 36t-61 50.5t-39.5 67.5t-17 90.5q0 78 24 139t61 97t87.5 59.5t98 32t98.5 8.5q187 0 327 -86l-106 -164q-66 51 -112.5 69.5t-115.5 18.5q-54 0 -87 -24 t-33 -68q0 -26 6 -43t34 -38.5t80 -38.5l121 -41q42 -14 70 -25.5t67.5 -35.5t63.5 -51t41.5 -70.5t17.5 -96.5q0 -159 -107 -263t-313 -104q-79 0 -172.5 21.5t-169.5 66.5zM324 -489q86 75 102 149q-3 3 -16.5 14t-21 18.5t-17.5 20.5t-14.5 28.5t-4.5 33.5 q0 62 34.5 91.5t94.5 29.5q53 0 90 -34t37 -91q0 -53 -22 -104t-59 -91t-73 -69t-77 -54z" />
<glyph unicode="&#x21a;" horiz-adv-x="1040" d="M43 1274v201h950v-201h-338v-1274h-274v1274h-338zM373 -489q86 75 102 149q-3 3 -16.5 14t-21 18.5t-17.5 20.5t-14.5 28.5t-4.5 33.5q0 62 34.5 91.5t94.5 29.5q53 0 90 -34t37 -91q0 -53 -22 -104t-59 -91t-73 -69t-77 -54z" />
<glyph unicode="&#x21b;" horiz-adv-x="710" d="M27 827v125q24 10 42.5 20t50 36.5t55.5 60.5t51 94t46 135h123v-294h254v-177h-254v-522q0 -77 27 -105t94 -28q49 0 146 33l16 -150q-149 -69 -283 -69q-136 0 -197 62.5t-61 215.5v563h-110zM244 -489q86 75 102 149q-3 3 -16.5 14t-21 18.5t-17.5 20.5t-14.5 28.5 t-4.5 33.5q0 62 34.5 91.5t94.5 29.5q53 0 90 -34t37 -91q0 -53 -22 -104t-59 -91t-73 -69t-77 -54z" />
<glyph unicode="&#x2c6;" horiz-adv-x="651" d="M45 1176l246 311h51l252 -311l-64 -54l-208 144l-213 -144z" />
<glyph unicode="&#x2c7;" horiz-adv-x="651" d="M45 1434l64 53l213 -144l208 144l64 -53l-252 -312h-51z" />
<glyph unicode="&#x2d8;" horiz-adv-x="724" d="M72 1487h127q15 -58 57 -99.5t102 -41.5q58 0 103 39t55 102h127q-10 -139 -81 -227.5t-200 -88.5q-139 0 -213.5 85t-76.5 231z" />
<glyph unicode="&#x2d9;" horiz-adv-x="501" d="M109 1321q0 66 40.5 105.5t102.5 39.5q66 0 108.5 -39.5t42.5 -105.5q0 -70 -41.5 -107.5t-109.5 -37.5q-61 0 -102 38.5t-41 106.5z" />
<glyph unicode="&#x2da;" horiz-adv-x="667" d="M84 1356q0 101 70.5 172t171.5 71t172 -71t71 -172t-71 -171.5t-172 -70.5t-171.5 70.5t-70.5 171.5zM217 1356q0 -46 31.5 -77.5t77.5 -31.5t78 31.5t32 77.5t-32 78t-78 32t-77.5 -32t-31.5 -78z" />
<glyph unicode="&#x2db;" horiz-adv-x="407" d="M39 -272q0 62 26.5 116t66.5 88.5t74.5 55.5t63.5 30h90q-71 -53 -109 -116t-38 -125q0 -39 19.5 -56.5t46.5 -17.5q43 0 77 29l37 -60q-74 -94 -186 -94q-73 0 -120.5 36t-47.5 114z" />
<glyph unicode="&#x2dc;" horiz-adv-x="860" d="M102 1235q103 211 222 211q54 0 105 -27t96.5 -53.5t86.5 -26.5q19 0 34 4.5t38.5 26.5t46.5 62l72 -62q-101 -211 -221 -211q-40 0 -79 16.5t-66 37t-66 37t-78 16.5q-20 0 -34.5 -4.5t-38 -26t-46.5 -61.5z" />
<glyph unicode="&#x2dd;" horiz-adv-x="876" d="M49 1180l232 327l178 -135l-338 -258zM401 1180l232 327l178 -135l-338 -258z" />
<glyph unicode="&#x3a9;" horiz-adv-x="1337" d="M102 858q0 143 37.5 260t110.5 203t188 133t262 47q292 0 445 -174t153 -469q0 -76 -20.5 -157.5t-61 -161.5t-110 -148.5t-158.5 -105.5v-39h309v-246h-460v428q92 40 150.5 146.5t58.5 277.5q0 97 -15.5 174.5t-49.5 140t-95 97t-146 34.5q-305 0 -305 -446 q0 -341 209 -424v-428h-461v246h310v39q-94 31 -163.5 89.5t-109.5 135.5t-59 163.5t-19 184.5z" />
<glyph unicode="&#x3c0;" horiz-adv-x="1273" d="M59 633q19 178 100.5 274.5t252.5 96.5h770l-39 -220h-199q-22 -191 -22 -389q0 -194 98 -194q86 0 110 141l105 -20q-7 -56 -25 -112.5t-49.5 -110.5t-83 -88t-114.5 -34q-47 0 -83.5 17t-58.5 49.5t-36.5 67t-20.5 83t-8 83.5t-2 81q0 168 28 426h-245 q-11 -149 -22.5 -253.5t-30 -200.5t-43 -157t-59.5 -108t-82 -68.5t-110 -25.5l-30 242q27 5 45 11t42 21.5t39.5 39t34 65.5t30.5 99.5t22 142t16 192.5h-24q-29 0 -48 -2t-43.5 -10t-40 -23.5t-30 -45t-21.5 -70.5h-123z" />
<glyph unicode="&#x401;" horiz-adv-x="983" d="M145 0v1475h754v-201h-479v-432h393v-180h-393v-461h510v-201h-785zM213 1700q0 50 38.5 86.5t90.5 36.5t89.5 -36.5t37.5 -86.5q0 -48 -37.5 -82.5t-89.5 -34.5t-90.5 35t-38.5 82zM559 1700q0 50 37 86.5t90 36.5q52 0 90.5 -36.5t38.5 -86.5q0 -47 -38.5 -82 t-90.5 -35q-53 0 -90 34.5t-37 82.5z" />
<glyph unicode="&#x402;" horiz-adv-x="1423" d="M43 1274v201h1090v-201h-498v-363q116 35 235 35q108 0 193 -26.5t137.5 -69.5t86.5 -103t47.5 -120t13.5 -127q0 -117 -32 -210t-82 -149t-115.5 -93.5t-127 -51.5t-121.5 -14t-127 18v170q72 -8 127 -8q18 0 39.5 7t48 28.5t47.5 54t35.5 89.5t14.5 130q0 293 -252 293 q-95 0 -168 -29v-735h-275v1274h-317z" />
<glyph unicode="&#x403;" horiz-adv-x="876" d="M145 0v1475h707v-201h-432v-1274h-275zM422 1622l215 274l178 -100l-289 -231z" />
<glyph unicode="&#x404;" horiz-adv-x="1212" d="M104 725q0 126 25 240t78.5 212.5t130.5 170.5t187.5 113.5t244.5 41.5q98 0 200 -30t181 -80l-104 -222q-79 69 -150 99t-174 30q-135 0 -224 -114.5t-102 -358.5l537 25v-209l-537 21q8 -119 41 -209t73.5 -137.5t91.5 -76.5t86.5 -36.5t68.5 -7.5q78 0 164.5 35.5 t158.5 103.5l84 -135q-83 -104 -204.5 -169t-274.5 -65q-68 0 -133.5 16t-132.5 50t-123 94t-100 140.5t-68.5 198t-24.5 259.5z" />
<glyph unicode="&#x405;" horiz-adv-x="1040" d="M61 94l91 215q95 -78 179 -108.5t175 -30.5q97 0 156 59.5t59 145.5q0 20 -2 37t-9 33.5t-11.5 28t-20 26t-23.5 23t-32 22.5t-36.5 21.5t-46 23.5t-50.5 23.5t-60 27.5q-63 29 -101.5 48.5t-86.5 49.5t-76.5 61t-55 72.5t-38 94t-11.5 116.5q0 188 128.5 303t342.5 115 q201 0 361 -71l-55 -226q-86 51 -155.5 73.5t-150.5 22.5q-36 0 -69 -8t-65.5 -27.5t-52 -58.5t-19.5 -94q0 -82 59.5 -133.5t204.5 -110.5q221 -89 311 -186t90 -256q0 -55 -15.5 -114t-53.5 -121t-93 -111t-143.5 -80t-196.5 -31q-258 0 -428 125z" />
<glyph unicode="&#x406;" horiz-adv-x="542" d="M145 0v1475h275v-1475h-275z" />
<glyph unicode="&#x407;" horiz-adv-x="542" d="M23 1702q0 51 35.5 88t82.5 37q49 0 84 -37t35 -88q0 -50 -35 -84.5t-84 -34.5q-48 0 -83 35t-35 84zM145 0v1475h275v-1475h-275zM303 1702q0 52 34.5 88.5t84.5 36.5q48 0 83.5 -37t35.5 -88q0 -49 -35.5 -84t-83.5 -35q-51 0 -85 34.5t-34 84.5z" />
<glyph unicode="&#x408;" horiz-adv-x="544" d="M-90 -244q136 27 186.5 144t50.5 364v1211h275v-1113q0 -136 -15.5 -248.5t-41 -191.5t-63.5 -140t-77.5 -98t-89 -62.5t-91.5 -37t-91 -16.5z" />
<glyph unicode="&#x409;" horiz-adv-x="1916" d="M20 203q81 0 130.5 52t76.5 157q45 177 54 481l20 582h854v-596q92 22 201 22q121 0 212.5 -30.5t142.5 -75.5t82 -107.5t40.5 -115t9.5 -109.5q0 -198 -137 -330.5t-350 -132.5h-475v1274h-342l-23 -479q-18 -379 -96 -580q-93 -242 -305 -242q-43 0 -64 7zM1155 201 h152q52 0 97 14.5t83 45.5t60 85.5t22 126.5q0 50 -11.5 90t-28 65t-43 43t-47.5 26.5t-51 13.5t-44.5 5.5t-36.5 0.5q-32 0 -70 -5.5t-60 -10.5l-22 -5v-495z" />
<glyph unicode="&#x40a;" horiz-adv-x="1984" d="M145 0v1475h275v-601h528v601h275v-596q91 22 200 22q88 0 160.5 -16t122 -42t87.5 -63t60 -75.5t35.5 -83.5t18 -82t4.5 -76q0 -198 -137.5 -330.5t-350.5 -132.5h-475v674h-528v-674h-275zM1223 201h151q52 0 97 14.5t83 45.5t60 85.5t22 126.5q0 50 -11.5 90t-28 65 t-43 43t-47.5 26.5t-51 13.5t-44.5 5.5t-36.5 0.5q-32 0 -70 -5.5t-60 -10.5l-21 -5v-495z" />
<glyph unicode="&#x40b;" horiz-adv-x="1497" d="M47 1274v201h1090v-201h-498v-385q47 27 126 46t155 19q103 0 181.5 -22t128 -59.5t80 -92.5t42.5 -115t12 -133v-532h-274v512q0 39 -4 70t-18 67.5t-38 61t-67.5 41t-102.5 16.5q-121 0 -221 -49v-719h-274v1274h-318z" />
<glyph unicode="&#x40c;" horiz-adv-x="1216" d="M145 0v1475h275v-631h26q53 0 96 59.5t97 181.5l78 179q27 61 58 103.5t59.5 66t66 36.5t66.5 16t71 3h66v-197q-29 -1 -49.5 -6.5t-47 -23t-52 -55.5t-52.5 -97l-59 -133q-36 -81 -73 -127t-89 -70v-8q34 -12 58.5 -26t50 -40.5t41 -46.5t42.5 -71t43.5 -85t55.5 -116 q61 -130 100.5 -168.5t89.5 -38.5h23v-170q-51 -30 -162 -30q-45 0 -81 12.5t-61 30.5t-50.5 55t-41.5 69t-42 89l-78 174q-54 121 -85 171.5t-59 66.5t-80 16h-26v-664h-275zM524 1622l215 274l179 -100l-289 -231z" />
<glyph unicode="&#x40e;" horiz-adv-x="1099" d="M35 1475h293l301 -809l223 809h248l-371 -1102q-36 -107 -76.5 -182.5t-75 -115.5t-78 -62t-73.5 -26.5t-74 -4.5q-24 0 -52 5.5t-44 10.5l-16 6l12 236q45 -15 100 -15q136 0 152 107zM242 1788l186 61q10 -48 30.5 -81t46.5 -48.5t49 -21.5t46 -6q136 0 172 155 l186 -59q-38 -123 -128 -192.5t-230 -69.5q-145 0 -234 69.5t-124 192.5z" />
<glyph unicode="&#x40f;" horiz-adv-x="1331" d="M145 0v1475h275v-1274h508v1274h274v-1475h-418l-28 -324h-164l-29 324h-418z" />
<glyph unicode="&#x410;" horiz-adv-x="1220" d="M4 0l518 1475h248l449 -1475h-289l-109 389h-454l-125 -389h-238zM418 567h356l-166 572z" />
<glyph unicode="&#x411;" horiz-adv-x="1181" d="M145 0v1475h799v-201h-524v-395q92 22 201 22q90 0 163.5 -16t123 -42t87 -63t58.5 -74t34 -81t17 -78t4 -70q0 -224 -131 -350.5t-375 -126.5h-457zM420 201h151q263 0 263 272q0 64 -19.5 111.5t-47 72t-66.5 39t-68 18t-62 3.5q-89 0 -151 -21v-495z" />
<glyph unicode="&#x412;" horiz-adv-x="1196" d="M145 0v1475h463q37 0 71.5 -2.5t82 -11t87 -23t80.5 -41.5t69.5 -63t46.5 -90.5t18 -121.5q0 -255 -240 -323v-11q146 -36 225.5 -117.5t79.5 -228.5q0 -92 -30 -167t-81.5 -125t-122 -84.5t-148 -50t-162.5 -15.5h-439zM420 201h129q42 0 75.5 3.5t77 17.5t73 38.5 t50.5 71t21 110.5q0 65 -20.5 111t-47 69t-68 35.5t-66.5 14.5t-60 2h-164v-473zM420 848h102q63 0 111.5 15.5t76 39.5t44.5 56.5t22.5 60.5t5.5 59q0 50 -15 87t-38 57t-58.5 32t-67.5 15.5t-73 3.5h-110v-426z" />
<glyph unicode="&#x413;" horiz-adv-x="876" d="M145 0v1475h707v-201h-432v-1274h-275z" />
<glyph unicode="&#x414;" horiz-adv-x="1429" d="M33 201h100q88 61 148 363.5t79 670.5l13 240h854v-1274h141v-484h-170l-53 283h-881l-55 -283h-176v484zM406 201h546v1073h-346q-13 -384 -68.5 -666t-131.5 -407z" />
<glyph unicode="&#x415;" horiz-adv-x="983" d="M145 0v1475h754v-201h-479v-432h393v-180h-393v-461h510v-201h-785z" />
<glyph unicode="&#x416;" horiz-adv-x="1847" d="M20 10v170h23q50 0 89.5 38.5t100.5 168.5q39 82 55.5 116t43.5 85t42.5 71t41 46.5t50 40.5t58.5 26v8q-52 24 -89 70t-73 127l-59 133q-27 59 -52.5 97t-52 55.5t-47 23t-49.5 6.5v197h66q42 0 71 -3t66.5 -16t66 -36.5t59.5 -66t58 -103.5l78 -179q54 -122 97 -181.5 t96 -59.5h26v631h275v-631h26q53 0 96 59.5t97 181.5l78 179q27 61 58 103.5t59.5 66t66 36.5t66.5 16t71 3h66v-197q-29 -1 -49.5 -6.5t-47 -23t-52 -55.5t-52.5 -97l-59 -133q-36 -81 -73 -127t-89 -70v-8q34 -12 58.5 -26t50 -40.5t41 -46.5t42.5 -71t43.5 -85t55.5 -116 q61 -130 100.5 -168.5t89.5 -38.5h23v-170q-51 -30 -162 -30q-45 0 -81 12.5t-61 30.5t-50.5 55t-41.5 69t-42 89l-78 174q-54 121 -85 171.5t-59 66.5t-80 16h-26v-664h-275v664h-26q-52 0 -79.5 -16t-58.5 -66t-85 -172l-78 -174q-25 -57 -42 -89.5t-42 -69t-50 -54.5 t-61.5 -30.5t-81.5 -12.5q-49 0 -89.5 7.5t-56.5 14.5z" />
<glyph unicode="&#x417;" horiz-adv-x="1050" d="M51 92l90 215q82 -72 154 -104.5t151 -32.5q61 0 107.5 21t74 57t41 79t13.5 91q0 127 -73 188.5t-208 61.5h-151v170h162q108 0 171.5 59t63.5 182q0 62 -17 107t-47 69t-63.5 34.5t-73.5 10.5q-139 0 -272 -120l-84 186q93 70 194.5 102.5t231.5 32.5q62 0 119 -10 t114 -36t98.5 -66t67 -104t25.5 -146q0 -127 -65.5 -220t-167.5 -137v-12q53 -15 98 -40t86.5 -64.5t65.5 -100t24 -135.5q0 -108 -42 -196.5t-114 -145.5t-166.5 -88t-201.5 -31q-73 0 -135 10t-115 32t-81 37t-75 44z" />
<glyph unicode="&#x418;" horiz-adv-x="1366" d="M145 0v1475h275v-1051l565 1051h258v-1475h-274v1051l-566 -1051h-258z" />
<glyph unicode="&#x419;" horiz-adv-x="1366" d="M145 0v1475h275v-1051l565 1051h258v-1475h-274v1051l-566 -1051h-258zM328 1788l186 61q10 -48 30.5 -81t46.5 -48.5t49 -21.5t46 -6q136 0 172 155l186 -59q-38 -123 -128 -192.5t-230 -69.5q-145 0 -234 69.5t-124 192.5z" />
<glyph unicode="&#x41a;" horiz-adv-x="1216" d="M145 0v1475h275v-631h26q53 0 96 59.5t97 181.5l78 179q27 61 58 103.5t59.5 66t66 36.5t66.5 16t71 3h66v-197q-29 -1 -49.5 -6.5t-47 -23t-52 -55.5t-52.5 -97l-59 -133q-36 -81 -73 -127t-89 -70v-8q34 -12 58.5 -26t50 -40.5t41 -46.5t42.5 -71t43.5 -85t55.5 -116 q61 -130 100.5 -168.5t89.5 -38.5h23v-170q-51 -30 -162 -30q-45 0 -81 12.5t-61 30.5t-50.5 55t-41.5 69t-42 89l-78 174q-54 121 -85 171.5t-59 66.5t-80 16h-26v-664h-275z" />
<glyph unicode="&#x41b;" horiz-adv-x="1275" d="M20 203q81 0 130.5 52t76.5 157q45 177 54 481l20 582h852v-1475h-274v1274h-340l-23 -479q-18 -379 -96 -580q-93 -242 -305 -242q-43 0 -64 7z" />
<glyph unicode="&#x41c;" horiz-adv-x="1689" d="M121 0l49 1475h322l370 -902l367 902h307l43 -1475h-281l-12 1034q0 58 6 96h-8q-8 -46 -22 -81l-392 -971h-94l-401 971q-19 53 -23 81h-8q6 -46 6 -96l-2 -1034h-227z" />
<glyph unicode="&#x41d;" horiz-adv-x="1345" d="M145 0v1475h275v-601h528v601h275v-1475h-275v674h-528v-674h-275z" />
<glyph unicode="&#x41e;" horiz-adv-x="1435" d="M104 709q0 399 169.5 595.5t471.5 196.5q280 0 441.5 -191.5t161.5 -547.5q0 -383 -168.5 -588t-472.5 -205q-128 0 -237 47t-191 137.5t-128.5 233t-46.5 322.5zM397 770q0 -97 9 -180t32 -162.5t59 -135t94.5 -89t133.5 -33.5q158 0 244 140t86 390q0 134 -16 237.5 t-52 188t-102 129.5t-160 45q-168 0 -248 -133.5t-80 -396.5z" />
<glyph unicode="&#x41f;" horiz-adv-x="1325" d="M145 0v1475h1057v-1475h-274v1274h-508v-1274h-275z" />
<glyph unicode="&#x420;" horiz-adv-x="1150" d="M145 0v1475h390q43 0 76 -1t80 -6t83 -13t78.5 -23.5t74 -37t63 -54t51.5 -73t32 -96.5t12 -122q0 -99 -32 -183t-92.5 -148t-157 -100t-217.5 -36q-42 0 -83.5 2.5t-62.5 5.5l-20 2v-592h-275zM420 791q62 -11 115 -11q126 0 197 59t71 199q0 38 -7 70t-18 55t-30 41 t-35.5 29.5t-42 19.5t-43 12t-45.5 6t-42.5 2.5t-39.5 0.5h-80v-483z" />
<glyph unicode="&#x421;" horiz-adv-x="1212" d="M104 725q0 126 25 240t78.5 212.5t130.5 170.5t187.5 113.5t244.5 41.5q98 0 200 -30t181 -80l-104 -222q-79 69 -150 99t-174 30q-69 0 -126.5 -30t-103 -93.5t-71 -173.5t-25.5 -258q0 -102 15.5 -186t40 -139.5t58.5 -98t67 -65.5t69.5 -37t62 -18t48.5 -4 q78 0 164.5 35.5t158.5 103.5l84 -135q-83 -104 -204.5 -169t-274.5 -65q-68 0 -133.5 16t-132.5 50t-123 94t-100 140.5t-68.5 198t-24.5 259.5z" />
<glyph unicode="&#x422;" horiz-adv-x="1040" d="M43 1274v201h950v-201h-338v-1274h-274v1274h-338z" />
<glyph unicode="&#x423;" horiz-adv-x="1099" d="M35 1475h293l301 -809l223 809h248l-371 -1102q-36 -107 -76.5 -182.5t-75 -115.5t-78 -62t-73.5 -26.5t-74 -4.5q-24 0 -52 5.5t-44 10.5l-16 6l12 236q45 -15 100 -15q136 0 152 107z" />
<glyph unicode="&#x424;" horiz-adv-x="1687" d="M86 745q0 147 50 264t137 191t201 113t245 39v188h270v-188q135 0 248 -35.5t200 -105.5t136 -184t49 -261q0 -180 -85 -322.5t-229 -219.5t-319 -77v-182h-270v182q-131 0 -245 39.5t-201 113t-137 188.5t-50 257zM373 743q0 -194 93.5 -303.5t252.5 -109.5v839 q-169 0 -257.5 -109.5t-88.5 -316.5zM989 330q167 0 256.5 117t89.5 317q0 195 -84.5 300t-261.5 105v-839z" />
<glyph unicode="&#x425;" horiz-adv-x="1163" d="M45 0l399 696l-385 779h308l227 -521l215 521h262l-369 -719l416 -756h-321l-238 510l-231 -510h-283z" />
<glyph unicode="&#x426;" horiz-adv-x="1411" d="M145 0v1475h275v-1274h508v1274h274v-1274h148v-484h-170l-54 283h-981z" />
<glyph unicode="&#x427;" horiz-adv-x="1241" d="M115 934v541h274v-521q0 -117 51 -165t140 -48q84 0 156 48t95 96v590h275v-1475h-275v664q-70 -61 -151.5 -98.5t-200.5 -37.5q-364 0 -364 406z" />
<glyph unicode="&#x428;" horiz-adv-x="1878" d="M145 0v1475h275v-1274h393v1274h274v-1274h394v1274h274v-1475h-1610z" />
<glyph unicode="&#x429;" horiz-adv-x="1959" d="M145 0v1475h275v-1274h393v1274h274v-1274h394v1274h274v-1274h143v-484h-169l-54 283h-1530z" />
<glyph unicode="&#x42a;" horiz-adv-x="1363" d="M43 1274v201h561v-596q92 22 201 22q121 0 212.5 -30.5t142.5 -75.5t82 -107.5t40.5 -115t9.5 -109.5q0 -198 -137 -330.5t-350 -132.5h-475v1274h-287zM604 201h152q52 0 97 14.5t83 45.5t60 85.5t22 126.5q0 50 -11.5 90t-28 65t-43 43t-47.5 26.5t-51 13.5t-44.5 5.5 t-36.5 0.5q-32 0 -70 -5.5t-60 -10.5l-22 -5v-495z" />
<glyph unicode="&#x42b;" horiz-adv-x="1628" d="M145 0v1475h275v-596q92 22 201 22q121 0 212.5 -30.5t142.5 -75.5t82 -107.5t40.5 -115t9.5 -109.5q0 -198 -137 -330.5t-350 -132.5h-476zM420 201h151q52 0 97 14.5t83 45.5t60.5 85.5t22.5 126.5q0 50 -11.5 90t-28 65t-43 43t-48 26.5t-51.5 13.5t-44.5 5.5 t-36.5 0.5q-32 0 -69.5 -5.5t-59.5 -10.5l-22 -5v-495zM1231 0v1475h274v-1475h-274z" />
<glyph unicode="&#x42c;" horiz-adv-x="1181" d="M145 0v1475h275v-596q92 22 201 22q121 0 212.5 -30.5t142.5 -75.5t82 -107.5t40.5 -115t9.5 -109.5q0 -198 -137 -330.5t-350 -132.5h-476zM420 201h151q52 0 97 14.5t83 45.5t60.5 85.5t22.5 126.5q0 50 -11.5 90t-28 65t-43 43t-48 26.5t-51.5 13.5t-44.5 5.5 t-36.5 0.5q-32 0 -69.5 -5.5t-59.5 -10.5l-22 -5v-495z" />
<glyph unicode="&#x42d;" horiz-adv-x="1202" d="M80 80l80 205q84 -64 149.5 -88.5t155.5 -24.5q50 0 94 12t90 45t80.5 85.5t58.5 140t29 202.5l-547 -22v209l551 -23q0 89 -12.5 161.5t-32.5 121.5t-49 86t-58.5 58t-64 34t-62.5 17t-57 4q-75 0 -148.5 -28t-164.5 -93l-92 194q199 127 434 127q285 0 440.5 -189.5 t155.5 -525.5q0 -149 -25.5 -273t-71.5 -212t-106.5 -153.5t-135.5 -103.5t-153 -56.5t-163 -18.5q-87 0 -161.5 17.5t-116 37.5t-97.5 54z" />
<glyph unicode="&#x42e;" horiz-adv-x="1966" d="M145 0v1475h275v-631h223q29 322 196.5 489.5t438.5 167.5q280 0 441 -191.5t161 -547.5q0 -383 -168.5 -588t-472.5 -205q-123 0 -228 43t-186 126.5t-130 214t-56 296.5h-219v-649h-275zM932 770q0 -600 325 -600q158 0 244 140t86 390q0 134 -16 237.5t-52 188 t-102 129.5t-160 45q-167 0 -246 -133t-79 -397z" />
<glyph unicode="&#x42f;" horiz-adv-x="1181" d="M49 25v141h23q45 0 85 31.5t95 132.5q79 148 121 205t104 94v16q-171 47 -254.5 134t-83.5 251q0 99 31 178t79.5 128t114 81t129.5 45t130 13h436v-1475h-275v606h-24q-29 0 -51.5 -12t-44 -42.5t-41 -67t-50.5 -100.5q-18 -38 -28 -58l-88 -176q-81 -166 -252 -166 q-44 0 -83 10t-56 20zM494 1063q0 -44 0.5 -67t4.5 -59.5t11.5 -56t22.5 -44t37 -36.5t55.5 -21t76.5 -9h82v504h-106h-39q-35 0 -56 -5t-44 -24.5t-34 -64.5t-11 -117z" />
<glyph unicode="&#x430;" horiz-adv-x="1011" d="M66 283q0 75 29 133t76.5 96t122.5 66t153 43.5t182 27.5q0 43 -2.5 71.5t-12 57t-26 44.5t-46 26t-71.5 10q-56 0 -135 -32t-160 -95l-63 197q88 59 200 83.5t197 24.5q63 0 112 -6.5t100 -26.5t84 -54.5t54 -94.5t21 -141q0 -101 -6.5 -229t-6.5 -162q0 -44 5 -75 t12.5 -49.5t23 -31t30 -18t40.5 -11.5l-33 -151q-74 -11 -80 -11q-75 0 -128.5 30t-84.5 108q-56 -73 -127.5 -105.5t-169.5 -32.5q-58 0 -106.5 14.5t-91.5 47.5t-67.5 95.5t-24.5 150.5zM324 285q0 -38 12.5 -65t32.5 -39.5t38 -17.5t37 -5q65 0 108.5 36.5t63.5 90.5 l7 221q-148 -6 -223.5 -56t-75.5 -165z" />
<glyph unicode="&#x431;" horiz-adv-x="1126" d="M68 553q0 136 6.5 237.5t24 195.5t47.5 162t76.5 126.5t112 100t152.5 71.5q195 67 272 110t115 93l97 -136q-23 -102 -115 -181.5t-260 -123.5q-94 -24 -151 -47.5t-100 -59.5t-64.5 -86t-32.5 -126h16q57 73 148 111t174 38q124 0 215.5 -37t146.5 -106.5t81 -161.5 t26 -209q0 -66 -13.5 -134.5t-49.5 -145t-91 -134.5t-147 -96.5t-209 -38.5q-218 0 -347.5 148t-129.5 430zM342 541q0 -408 223 -408q102 0 158.5 86t56.5 254q0 408 -225 408q-70 0 -115 -29t-71.5 -106t-26.5 -205z" />
<glyph unicode="&#x432;" horiz-adv-x="1013" d="M125 0v1004h424q168 0 255 -55t87 -187q0 -74 -38 -137.5t-128 -98.5v-12q211 -48 211 -221q0 -140 -98 -216.5t-246 -76.5h-467zM383 176h117q81 0 121.5 32t40.5 107q0 39 -17.5 64.5t-50.5 36t-60 13.5t-65 3h-86v-256zM383 586h109q80 0 116.5 29.5t36.5 101.5 q0 110 -145 110h-117v-241z" />
<glyph unicode="&#x433;" horiz-adv-x="753" d="M125 0v1004h582v-177h-324v-827h-258z" />
<glyph unicode="&#x434;" horiz-adv-x="1144" d="M35 176h90q50 74 88.5 280.5t54.5 547.5h719v-828h105v-418h-170l-39 242h-635l-47 -242h-166v418zM356 176h373v651h-242q-36 -483 -131 -651z" />
<glyph unicode="&#x435;" horiz-adv-x="1013" d="M82 492q0 261 123 402.5t336 141.5q184 0 291.5 -107.5t107.5 -307.5v-138h-584q0 -313 232 -313q87 0 148 36t114 95l82 -137q-97 -107 -184 -148t-216 -41q-93 0 -172 30t-142.5 90t-99.5 162t-36 235zM356 637h336q0 102 -38 169.5t-122 67.5q-151 0 -176 -237z" />
<glyph unicode="&#x436;" horiz-adv-x="1480" d="M49 0v170h23q41 0 65 24t64 93q11 19 30 53t25.5 45.5t20.5 34t21 29.5t20 21t25.5 20t29 14.5t37.5 15.5v12q-86 38 -121 115l-25 53q-30 64 -58.5 95.5t-70.5 31.5h-45l10 193q67 0 113 -6t92 -23.5t79.5 -53.5t57.5 -91l50 -113q36 -82 59.5 -114.5t52.5 -32.5h12v418 h250v-418h13q29 0 52.5 32.5t59.5 114.5l49 113q24 55 57.5 91t79.5 53.5t92 23.5t113 6l11 -193h-45q-42 0 -70.5 -31.5t-58.5 -95.5l-25 -53q-35 -77 -121 -115v-12q21 -7 37.5 -15.5t29 -14.5t25.5 -20t20 -21t21 -29.5t20.5 -34t25.5 -45.5t30 -53q40 -69 64 -93t65 -24 h23v-170q-64 -20 -125 -20q-160 0 -236 180l-41 96q-26 61 -47.5 98.5t-41 53t-32 19t-32.5 3.5h-13v-430h-250v430h-12q-20 0 -32.5 -3.5t-32 -19t-41 -53t-47.5 -98.5l-41 -96q-76 -180 -236 -180q-27 0 -58.5 5t-49.5 10z" />
<glyph unicode="&#x437;" horiz-adv-x="854" d="M29 63l63 193q64 -63 136.5 -91t123.5 -28q69 0 117.5 37.5t48.5 124.5q0 145 -186 145h-131v148h108q94 0 139.5 45t45.5 115q0 122 -142 122q-110 0 -237 -122l-62 184q137 100 363 100q186 0 269 -67t83 -181q0 -90 -61.5 -155.5t-159.5 -87.5v-13 q115 -23 180.5 -76.5t65.5 -156.5q0 -153 -118.5 -238.5t-312.5 -85.5q-79 0 -172.5 21.5t-160.5 66.5z" />
<glyph unicode="&#x438;" horiz-adv-x="1114" d="M125 0v1004h258v-660l358 660h258v-1004h-258v659l-358 -659h-258z" />
<glyph unicode="&#x439;" horiz-adv-x="1114" d="M125 0v1004h258v-660l358 660h258v-1004h-258v659l-358 -659h-258zM260 1346l174 59q10 -47 27.5 -78.5t40.5 -47t45 -21t49 -5.5q130 0 164 152l174 -59q-32 -114 -119 -188.5t-219 -74.5q-137 0 -222.5 74t-113.5 189z" />
<glyph unicode="&#x43a;" horiz-adv-x="1024" d="M125 0v1004h258v-418h16q35 0 61 32.5t66 114.5l56 113q51 103 130.5 138.5t211.5 35.5l10 -193h-45q-42 0 -70.5 -31.5t-58.5 -95.5l-25 -53q-35 -77 -121 -115v-12q68 -21 103 -59.5t106 -161.5q40 -71 67.5 -100t61.5 -29h23v-170q-64 -20 -125 -20q-45 0 -79.5 8.5 t-56.5 21t-42 38.5t-32 48.5t-30 63.5l-43 94q-26 57 -49.5 93t-44 49.5t-31.5 16.5t-28 3h-31v-416h-258z" />
<glyph unicode="&#x43b;" horiz-adv-x="1046" d="M16 188q42 3 73 24.5t48.5 50.5t29 71.5t15.5 77.5t6 80l25 512h717v-1004h-258v827h-240l-22 -354q-15 -223 -78 -338q-48 -89 -105.5 -122t-126.5 -33l-61 6z" />
<glyph unicode="&#x43c;" horiz-adv-x="1376" d="M106 0l31 1004h277l286 -576l265 576h276l21 -1004h-256l-5 684l-288 -625h-103l-297 625v-684h-207z" />
<glyph unicode="&#x43d;" horiz-adv-x="1107" d="M125 0v1004h258v-398h350v398h258v-1004h-258v430h-350v-430h-258z" />
<glyph unicode="&#x43e;" horiz-adv-x="1140" d="M82 512q0 134 38.5 237t106.5 164.5t154 92t188 30.5q245 0 372.5 -136t127.5 -396q0 -55 -11.5 -117t-45 -137.5t-85.5 -134.5t-142.5 -99.5t-206.5 -40.5q-228 0 -362 134.5t-134 402.5zM356 541q0 -404 224 -404q102 0 158.5 84t56.5 252q0 401 -226 401 q-48 0 -84 -15.5t-66.5 -51.5t-46.5 -103t-16 -163z" />
<glyph unicode="&#x43f;" horiz-adv-x="1097" d="M125 0v1004h856v-1004h-258v827h-340v-827h-258z" />
<glyph unicode="&#x440;" horiz-adv-x="1103" d="M125 -459v1463h248l10 -93q90 125 272 125q185 0 281 -137t96 -377q0 -131 -35.5 -237t-95.5 -172.5t-136.5 -102t-162.5 -35.5q-150 0 -219 43v-477h-258zM383 211q56 -68 154 -68q115 0 168 96t53 283q0 316 -211 316q-113 0 -164 -99v-528z" />
<glyph unicode="&#x441;" horiz-adv-x="972" d="M82 492q0 141 41.5 249.5t111 171t151 93t171.5 30.5q118 0 198.5 -24.5t162.5 -81.5l-107 -180q-100 124 -227 124q-228 0 -228 -368q0 -66 13 -124t39.5 -106.5t72.5 -77t107 -28.5q146 0 262 129l82 -135q-76 -102 -171.5 -145.5t-228.5 -43.5q-98 0 -178 30t-142 91 t-96 162t-34 234z" />
<glyph unicode="&#x442;" horiz-adv-x="854" d="M33 827v177h790v-177h-266v-827h-258v827h-266z" />
<glyph unicode="&#x443;" horiz-adv-x="974" d="M20 1004h281l244 -738l178 738h229l-338 -1084q-32 -101 -71 -175t-74 -113t-77 -62t-71.5 -29t-64.5 -6q-50 0 -117 29l37 223q47 -14 96 -14q64 0 101 39.5t45 97.5z" />
<glyph unicode="&#x444;" horiz-adv-x="1538" d="M66 516q0 111 34 200.5t89.5 148t131.5 98t156 56.5t166 17v469h258v-469q87 0 166.5 -16t156 -55t132 -97t89.5 -148.5t34 -203.5q0 -110 -40.5 -202.5t-103.5 -153t-141.5 -103.5t-153 -61.5t-139.5 -18.5v-436h-258v436q-81 0 -160 19t-155 61t-134 103t-93 153 t-35 203zM346 516q0 -185 81.5 -284t215.5 -99v748q-155 0 -226 -98t-71 -267zM901 133q134 0 215.5 99t81.5 284q0 169 -71 267t-226 98v-748z" />
<glyph unicode="&#x445;" horiz-adv-x="901" d="M16 0l308 477l-308 527h310l143 -312l158 312h235l-293 -461l320 -543h-303l-162 324l-158 -324h-250z" />
<glyph unicode="&#x446;" horiz-adv-x="1171" d="M125 0v1004h258v-828h340v828h258v-828h139v-418h-170l-39 242h-786z" />
<glyph unicode="&#x447;" horiz-adv-x="1015" d="M90 641v363h258v-316q0 -162 131 -162q44 0 92 23t70 49v406h258v-1004h-258v434q-25 -20 -56.5 -39t-96.5 -39t-134 -20q-264 0 -264 305z" />
<glyph unicode="&#x448;" horiz-adv-x="1536" d="M125 0v1004h258v-828h260v828h258v-828h260v828h258v-1004h-1294z" />
<glyph unicode="&#x449;" horiz-adv-x="1607" d="M125 0v1004h258v-828h260v828h258v-828h260v828h258v-828h140v-418h-170l-39 242h-1225z" />
<glyph unicode="&#x44a;" horiz-adv-x="1105" d="M12 827v177h480v-334q89 26 192 26q73 0 137.5 -18t118.5 -55.5t85.5 -102t31.5 -149.5q0 -86 -24 -153t-62.5 -107.5t-93 -66t-109 -35t-117.5 -9.5h-418v827h-221zM492 176h100q102 0 154.5 41.5t52.5 140.5q0 89 -49 134t-132 45q-39 0 -70.5 -6.5t-43.5 -13.5l-12 -7 v-334z" />
<glyph unicode="&#x44b;" horiz-adv-x="1441" d="M125 0v1004h258v-334q89 26 192 26q72 0 135 -16.5t118 -52t87.5 -100t32.5 -150.5q0 -78 -19.5 -140.5t-54 -102.5t-75 -67.5t-88.5 -41.5t-88 -19.5t-80 -5.5h-418zM383 176h127q180 0 180 195q0 84 -48 125t-132 41q-38 0 -70 -6.5t-44 -13.5l-13 -7v-334zM1067 0 v1004h258v-1004h-258z" />
<glyph unicode="&#x44c;" horiz-adv-x="993" d="M125 0v1004h258v-334q89 26 192 26q73 0 137.5 -18t118.5 -55.5t85.5 -102t31.5 -149.5q0 -87 -24 -153.5t-62 -107t-92.5 -66t-109 -35t-117.5 -9.5h-418zM383 176h100q102 0 154.5 41.5t52.5 140.5q0 89 -48.5 134t-131.5 45q-39 0 -71 -6.5t-44 -13.5l-12 -7v-334z " />
<glyph unicode="&#x44d;" horiz-adv-x="892" d="M23 63l65 173q72 -54 128 -76.5t120 -22.5q103 0 157 87t54 218l-332 -12v162l332 -12q-1 86 -19.5 146.5t-48.5 91t-62 43.5t-69 13q-133 0 -252 -110l-59 184q157 88 344 88q69 0 128 -13t118 -48t100.5 -90t67.5 -145t26 -208q0 -148 -37 -257.5t-104 -174t-152.5 -95 t-191.5 -30.5q-191 0 -313 88z" />
<glyph unicode="&#x44e;" horiz-adv-x="1597" d="M125 0v1004h258v-410h160q11 113 53.5 199t108.5 138.5t146.5 78.5t174.5 26q245 0 372.5 -136t127.5 -396q0 -55 -11.5 -117t-45 -137.5t-85 -134.5t-142 -99.5t-206.5 -40.5q-211 0 -343 116t-152 347h-158v-438h-258zM811 541q0 -404 225 -404q102 0 158.5 84 t56.5 252q0 401 -225 401q-48 0 -84.5 -15.5t-67 -51.5t-47 -103t-16.5 -163z" />
<glyph unicode="&#x44f;" horiz-adv-x="962" d="M43 0v152h12q44 0 70.5 23t71.5 93q42 66 63 89t53 36v10q-233 65 -233 277q0 324 387 324h379v-1004h-258v346h-43q-35 0 -60 -24.5t-65 -108.5l-49 -102q-36 -74 -90.5 -100.5t-137.5 -26.5q-23 0 -48 4t-39 8zM328 668q0 -89 56 -127.5t159 -38.5h45v325h-99 q-72 0 -116.5 -37t-44.5 -122z" />
<glyph unicode="&#x451;" horiz-adv-x="1013" d="M82 492q0 261 123 402.5t336 141.5q184 0 291.5 -107.5t107.5 -307.5v-138h-584q0 -313 232 -313q87 0 148 36t114 95l82 -137q-97 -107 -184 -148t-216 -41q-93 0 -172 30t-142.5 90t-99.5 162t-36 235zM209 1321q0 66 40.5 105.5t102.5 39.5q66 0 109 -39.5t43 -105.5 q0 -70 -42 -107.5t-110 -37.5q-61 0 -102 38.5t-41 106.5zM356 637h336q0 102 -38 169.5t-122 67.5q-151 0 -176 -237zM602 1321q0 66 40.5 105.5t102.5 39.5q66 0 109 -39.5t43 -105.5q0 -70 -42 -107.5t-110 -37.5q-61 0 -102 38.5t-41 106.5z" />
<glyph unicode="&#x452;" horiz-adv-x="1126" d="M16 1147v156h129v202h258v-202h379v-156h-379v-277q43 67 113.5 107.5t147.5 40.5q65 0 117 -17.5t98 -59.5t77 -108t48.5 -167.5t17.5 -233.5q0 -110 -19 -222.5t-61 -225t-102.5 -207t-149.5 -168.5t-196 -109l-52 158q67 28 119 76.5t83.5 111.5t52.5 126t30.5 140.5 t12.5 134t3 124.5v86q0 44 -2 79.5t-7.5 77.5t-16.5 73t-28 58.5t-43.5 41.5t-61.5 14q-143 0 -181 -183v-618h-258v1147h-129z" />
<glyph unicode="&#x453;" horiz-adv-x="753" d="M125 0v1004h582v-177h-324v-827h-258zM289 1180l231 327l178 -135l-338 -258z" />
<glyph unicode="&#x454;" horiz-adv-x="993" d="M82 492q0 114 29 207t77 154.5t111 103.5t128.5 60.5t133.5 18.5q118 0 199.5 -25t163.5 -83l-107 -180q-57 67 -111 96.5t-126 29.5q-23 0 -45.5 -5t-53 -22.5t-54 -46t-43 -81t-26.5 -121.5l355 12v-161l-357 8q4 -58 17.5 -107.5t38.5 -93t68 -69t100 -25.5 q146 0 270 137l82 -137q-102 -101 -198 -145t-224 -44q-84 0 -159 30.5t-136 91t-97 163t-36 234.5z" />
<glyph unicode="&#x455;" horiz-adv-x="870" d="M61 63l62 191q156 -117 287 -117q85 0 123 36t38 89q0 50 -30 73.5t-109 53.5l-102 39q-42 16 -68 27.5t-64.5 36t-61 50.5t-39.5 67.5t-17 90.5q0 78 24 139t61 97t87.5 59.5t98 32t98.5 8.5q187 0 327 -86l-106 -164q-66 51 -112.5 69.5t-115.5 18.5q-54 0 -87 -24 t-33 -68q0 -26 6 -43t34 -38.5t80 -38.5l121 -41q42 -14 70 -25.5t67.5 -35.5t63.5 -51t41.5 -70.5t17.5 -96.5q0 -159 -107 -263t-313 -104q-79 0 -172.5 21.5t-169.5 66.5z" />
<glyph unicode="&#x456;" horiz-adv-x="501" d="M109 1321q0 66 40.5 105.5t102.5 39.5q66 0 108.5 -39.5t42.5 -105.5q0 -70 -41.5 -107.5t-109.5 -37.5q-61 0 -102 38.5t-41 106.5zM125 0v1004h258v-1004h-258z" />
<glyph unicode="&#x457;" horiz-adv-x="555" d="M-12 1321q0 66 37 105.5t92 39.5q58 0 96.5 -39.5t38.5 -105.5q0 -70 -37 -107.5t-98 -37.5q-55 0 -92 38.5t-37 106.5zM145 0v1004h258v-1004h-258zM303 1321q0 66 37 105.5t92 39.5q58 0 96.5 -39.5t38.5 -105.5q0 -70 -37 -107.5t-98 -37.5q-55 0 -92 38.5t-37 106.5z " />
<glyph unicode="&#x458;" horiz-adv-x="499" d="M-94 -301q117 24 168 99t51 243v963h258v-779q0 -192 -21.5 -319t-73.5 -213t-138.5 -123t-217.5 -37zM109 1321q0 66 40.5 105.5t102.5 39.5q66 0 108.5 -39.5t42.5 -105.5q0 -70 -41.5 -107.5t-109.5 -37.5q-61 0 -102 38.5t-41 106.5z" />
<glyph unicode="&#x459;" horiz-adv-x="1542" d="M16 188q45 4 74 20t50 48t33 96.5t19 148t11 218.5l10 285h717v-334q89 26 192 26q73 0 137.5 -18t118.5 -55.5t85.5 -102t31.5 -149.5q0 -86 -24 -153t-62.5 -107t-92 -66t-106.5 -35.5t-112 -9.5h-426v827h-240q-5 -286 -34 -455.5t-66 -236.5q-49 -91 -103 -123 t-129 -32l-61 6zM930 176h100q102 0 154.5 41.5t52.5 140.5q0 89 -48.5 134t-131.5 45q-39 0 -71 -6.5t-44 -13.5l-12 -7v-334z" />
<glyph unicode="&#x45a;" horiz-adv-x="1607" d="M125 0v1004h258v-398h350v398h258v-334q89 26 193 26q73 0 137 -18t118 -55.5t85.5 -102t31.5 -149.5q0 -87 -24 -153.5t-62 -107t-92.5 -66t-109 -35t-117.5 -9.5h-418v430h-350v-430h-258zM991 176h101q101 0 153.5 41.5t52.5 140.5q0 89 -48.5 134t-131.5 45 q-39 0 -71 -6.5t-44 -13.5l-12 -7v-334z" />
<glyph unicode="&#x45b;" horiz-adv-x="1095" d="M16 1147v156h129v202h258v-202h379v-156h-379v-322q44 79 131 134t177 55q290 0 290 -295v-719h-258v618q0 28 -1.5 48.5t-9.5 47.5t-21.5 44.5t-40 30t-62.5 12.5q-79 0 -133.5 -66t-71.5 -149v-586h-258v1147h-129z" />
<glyph unicode="&#x45c;" horiz-adv-x="1024" d="M125 0v1004h258v-418h16q35 0 61 32.5t66 114.5l56 113q51 103 130.5 138.5t211.5 35.5l10 -193h-45q-42 0 -70.5 -31.5t-58.5 -95.5l-25 -53q-35 -77 -121 -115v-12q68 -21 103 -59.5t106 -161.5q40 -71 67.5 -100t61.5 -29h23v-170q-64 -20 -125 -20q-45 0 -79.5 8.5 t-56.5 21t-42 38.5t-32 48.5t-30 63.5l-43 94q-26 57 -49.5 93t-44 49.5t-31.5 16.5t-28 3h-31v-416h-258zM432 1180l232 327l178 -135l-338 -258z" />
<glyph unicode="&#x45e;" horiz-adv-x="974" d="M20 1004h281l244 -738l178 738h229l-338 -1084q-32 -101 -71 -175t-74 -113t-77 -62t-71.5 -29t-64.5 -6q-50 0 -117 29l37 223q47 -14 96 -14q64 0 101 39.5t45 97.5zM178 1346l174 59q10 -47 27.5 -78.5t40.5 -47t45 -21t49 -5.5q130 0 164 152l174 -59 q-32 -114 -119 -188.5t-219 -74.5q-137 0 -222.5 74t-113.5 189z" />
<glyph unicode="&#x45f;" horiz-adv-x="1140" d="M145 0v1004h258v-828h340v828h258v-1004h-329l-31 -266h-135l-31 266h-330z" />
<glyph unicode="&#x462;" horiz-adv-x="1292" d="M43 1004v200h213v271h274v-271h480v-200h-480v-170q95 22 226 22q236 0 349.5 -108.5t113.5 -284.5q0 -213 -131.5 -338t-356.5 -125h-475v1004h-213zM530 201h152q52 0 96.5 13.5t83 42t60.5 79.5t22 119q0 217 -260 217q-32 0 -70.5 -5t-61.5 -11l-22 -5v-450z" />
<glyph unicode="&#x463;" horiz-adv-x="1083" d="M39 827v177h176v501h258v-501h346v-177h-346v-170q92 27 193 27q58 0 108 -8.5t100 -31.5t85 -59t57 -95.5t22 -137.5q0 -83 -27 -146.5t-70.5 -101.5t-104.5 -62.5t-120.5 -33t-127.5 -8.5h-373v827h-176zM473 176h127q180 0 180 176q0 88 -48 130t-132 42 q-38 0 -70 -6.5t-44 -13.5l-13 -6v-322z" />
<glyph unicode="&#x472;" horiz-adv-x="1435" d="M104 709q0 399 169.5 595.5t471.5 196.5q280 0 441.5 -191.5t161.5 -547.5q0 -383 -168.5 -588t-472.5 -205q-128 0 -237 47t-191 137.5t-128.5 233t-46.5 322.5zM397 795q85 102 178 102q48 0 101 -18t90.5 -39.5t81.5 -39.5t76 -18q81 0 127 43q-28 475 -326 475 q-165 0 -245 -127t-83 -378zM399 653q33 -483 326 -483q159 0 244.5 139.5t85.5 388.5q-44 -53 -96.5 -80.5t-100.5 -27.5t-157 52t-158 52q-28 0 -69.5 -10t-74.5 -31z" />
<glyph unicode="&#x473;" horiz-adv-x="1140" d="M82 512q0 134 38.5 237t106.5 164.5t154 92t188 30.5q245 0 372.5 -136t127.5 -396q0 -55 -11 -117t-45 -138t-85.5 -134.5t-142.5 -99t-207 -40.5q-238 0 -367 143t-129 394zM354 547q25 29 60.5 51.5t66.5 22.5q42 0 114.5 -41t109.5 -41q44 0 88 22q-9 159 -64 236 t-160 77q-47 0 -84 -15.5t-67 -51t-46.5 -101t-17.5 -159.5zM356 455q24 -318 224 -318q97 0 154.5 89t60.5 249q-30 -36 -69 -60t-75 -24q-38 0 -116 40t-103 40q-44 0 -76 -16z" />
<glyph unicode="&#x474;" horiz-adv-x="1173" d="M33 1475h289l305 -1080l231 795q24 82 57 142.5t63.5 91.5t67.5 49t61 22t52 4l33 -231q-55 -3 -94.5 -57t-85.5 -199l-322 -1012h-205z" />
<glyph unicode="&#x475;" horiz-adv-x="944" d="M20 1004h281l217 -709l109 393q29 105 59.5 173t64 100t62.5 42.5t68 10.5q15 0 51 -4l24 -209q-62 0 -113 -58.5t-98 -205.5l-170 -537h-229z" />
<glyph unicode="&#x490;" horiz-adv-x="884" d="M145 0v1475h519l24 233h180v-434h-448v-1274h-275z" />
<glyph unicode="&#x491;" horiz-adv-x="753" d="M127 0v1004h395l19 204h164v-381h-320v-827h-258z" />
<glyph unicode="&#x2000;" horiz-adv-x="999" />
<glyph unicode="&#x2001;" horiz-adv-x="1999" />
<glyph unicode="&#x2002;" horiz-adv-x="999" />
<glyph unicode="&#x2003;" horiz-adv-x="1999" />
<glyph unicode="&#x2004;" horiz-adv-x="666" />
<glyph unicode="&#x2005;" horiz-adv-x="499" />
<glyph unicode="&#x2006;" horiz-adv-x="333" />
<glyph unicode="&#x2007;" horiz-adv-x="333" />
<glyph unicode="&#x2008;" horiz-adv-x="249" />
<glyph unicode="&#x2009;" horiz-adv-x="399" />
<glyph unicode="&#x200a;" horiz-adv-x="111" />
<glyph unicode="&#x2010;" horiz-adv-x="722" d="M127 434v187h461v-187h-461z" />
<glyph unicode="&#x2011;" horiz-adv-x="722" d="M127 434v187h461v-187h-461z" />
<glyph unicode="&#x2012;" horiz-adv-x="1222" d="M127 670v159h960v-159h-960z" />
<glyph unicode="&#x2013;" horiz-adv-x="1222" d="M127 420v160h960v-160h-960z" />
<glyph unicode="&#x2014;" horiz-adv-x="1562" d="M127 420v160h1300v-160h-1300z" />
<glyph unicode="&#x2015;" horiz-adv-x="1562" d="M127 420v160h1300v-160h-1300z" />
<glyph unicode="&#x2018;" horiz-adv-x="403" d="M57 1079q0 121 69.5 227t164.5 162l59 -67q-82 -86 -98 -170l10 -8q9 -8 11 -10t11 -10.5t12 -12.5t10.5 -13.5t10.5 -16t8 -16.5t7 -19.5t4 -21.5t2 -24q0 -65 -39.5 -104t-93.5 -39q-64 0 -106 32.5t-42 110.5z" />
<glyph unicode="&#x2019;" horiz-adv-x="403" d="M63 979q85 101 99 186q-36 20 -61 57.5t-25 88.5q0 73 38 113t101 40q64 0 102.5 -39.5t38.5 -113.5q0 -118 -68 -230t-165 -170z" />
<glyph unicode="&#x201a;" horiz-adv-x="446" d="M84 -225q37 45 61 94t29 84q-82 82 -82 162q0 68 38 108.5t93 40.5q68 0 112 -34.5t44 -116.5q0 -115 -72.5 -230t-161.5 -180z" />
<glyph unicode="&#x201c;" horiz-adv-x="749" d="M57 1077q0 123 71 239t163 171l59 -68q-77 -81 -98 -190q86 -57 86 -146q0 -69 -39.5 -109t-93.5 -40q-65 0 -106.5 35.5t-41.5 107.5zM403 1087q0 118 68.5 230t165.5 170l59 -68q-84 -100 -98 -186q36 -20 61 -57.5t25 -88.5q0 -73 -38 -113t-101 -40q-57 0 -99.5 40.5 t-42.5 112.5z" />
<glyph unicode="&#x201d;" horiz-adv-x="749" d="M63 979q85 101 99 186q-36 20 -61 57.5t-25 88.5q0 73 38 113t101 40q57 0 99 -40.5t42 -112.5q0 -118 -68 -230t-165 -170zM410 979q77 81 98 190q-86 57 -86 146q0 69 39.5 109t93.5 40q65 0 106 -35.5t41 -107.5q0 -123 -70.5 -239.5t-162.5 -170.5z" />
<glyph unicode="&#x201e;" horiz-adv-x="782" d="M72 -223q84 100 98 186q-36 20 -61 57.5t-25 88.5q0 71 39 112t94 41q64 0 106 -32.5t42 -110.5q0 -124 -68 -238t-166 -172zM418 -223q77 81 98 190q-86 57 -86 146q0 69 39.5 109t93.5 40q64 0 106 -32.5t42 -110.5q0 -123 -71 -239t-163 -171z" />
<glyph unicode="&#x2020;" horiz-adv-x="1001" d="M82 885v260l367 -58l-58 396h254l-67 -398q43 4 134.5 19t161.5 28l70 13v-260l-364 65l53 -258l-66 -1155h-106l-58 1155l43 258z" />
<glyph unicode="&#x2021;" horiz-adv-x="1044" d="M98 -45v262l367 -70l-55 404l55 403l-367 -69v262l367 -60l-57 396h254l-68 -398q43 4 134.5 19.5t161.5 29.5l71 13v-262l-367 69l63 -403l-63 -404l367 70v-262q-273 53 -367 61l68 -397h-254l57 395z" />
<glyph unicode="&#x2022;" horiz-adv-x="952" d="M164 692q0 135 92.5 231.5t224.5 96.5t224 -96.5t92 -231.5q0 -134 -91.5 -229.5t-224.5 -95.5t-225 95.5t-92 229.5z" />
<glyph unicode="&#x2026;" horiz-adv-x="1556" d="M109 119q0 24 5 45.5t18.5 46.5t44 40t75.5 15q67 0 101 -44t34 -103q0 -61 -32 -104.5t-111 -43.5q-71 0 -103 42.5t-32 105.5zM641 119q0 24 5 45.5t18.5 46.5t44 40t75.5 15q67 0 101.5 -44t34.5 -103q0 -61 -32.5 -104.5t-111.5 -43.5q-71 0 -103 42.5t-32 105.5z M1174 119q0 24 5 45.5t18.5 46.5t44 40t75.5 15q67 0 101 -44t34 -103q0 -61 -32 -104.5t-111 -43.5q-71 0 -103 42.5t-32 105.5z" />
<glyph unicode="&#x202f;" horiz-adv-x="399" />
<glyph unicode="&#x2030;" horiz-adv-x="2193" d="M63 1143q0 79 29 144t76.5 105.5t105 62.5t117.5 22q150 0 240 -90t90 -246q0 -83 -29 -149t-76.5 -106.5t-104.5 -61.5t-118 -21q-148 0 -239 91t-91 249zM252 4l866 1487l117 -66l-866 -1488zM256 1169q0 -233 139 -233q63 0 98 42.5t35 143.5q0 116 -33.5 168.5 t-109.5 52.5q-22 0 -43 -8t-41 -26t-32.5 -54t-12.5 -86zM758 289q0 80 29 145.5t76.5 106t104.5 62.5t117 22q151 0 240.5 -90.5t89.5 -247.5q0 -82 -29 -148t-76.5 -106t-104.5 -61t-118 -21q-148 0 -238.5 91t-90.5 247zM950 315q0 -231 140 -231q63 0 98 42t35 142 q0 118 -34 171t-110 53q-50 0 -89.5 -40.5t-39.5 -136.5zM1470 301q0 80 29 145.5t76.5 106t105 62.5t117.5 22q151 0 240.5 -90.5t89.5 -247.5q0 -82 -29 -148t-76.5 -106t-104.5 -61t-118 -21q-148 0 -239 91t-91 247zM1663 328q0 -232 139 -232q133 0 133 185 q0 118 -33.5 170.5t-109.5 52.5q-51 0 -90 -40t-39 -136z" />
<glyph unicode="&#x2039;" horiz-adv-x="598" d="M47 530l338 428l125 -43l-213 -376l213 -392l-125 -45z" />
<glyph unicode="&#x203a;" horiz-adv-x="598" d="M88 147l213 392l-213 376l125 43l338 -428l-338 -428z" />
<glyph unicode="&#x2044;" horiz-adv-x="417" d="M-281 4l867 1487l116 -66l-866 -1488z" />
<glyph unicode="&#x205f;" horiz-adv-x="499" />
<glyph unicode="&#x20ac;" d="M-16 496l49 145h84q-2 27 -2 84q0 49 2 74h-133l49 145h98q20 121 61 220.5t104 176.5t153.5 119.5t201.5 42.5q202 0 328 -110l-94 -222l-25 25q-24 25 -31 31t-33 25.5t-45.5 26t-52 14t-67.5 7.5q-190 0 -240 -356h410l-49 -145h-371v-158h317l-49 -145h-252 q10 -95 35 -162t60 -99.5t67.5 -45.5t67.5 -13q76 0 142.5 44t115.5 116l90 -121q-54 -111 -158 -179.5t-246 -68.5q-62 0 -116.5 16t-106.5 54.5t-93 98t-73.5 151t-50.5 209.5h-147z" />
<glyph unicode="&#x20b4;" d="M90 483v162h225l115 152h-340v159h467q35 44 54.5 113.5t19.5 126.5q0 67 -33.5 97t-108.5 30q-104 0 -245 -135l-72 133q94 91 196 135.5t228 44.5q158 0 234.5 -69t76.5 -185q0 -150 -137 -291h137v-159h-264l-119 -152h383v-162h-495q-35 -63 -35 -149q0 -69 49 -105 t106 -36q159 0 295 143l84 -137q-32 -36 -70 -69t-98.5 -73.5t-140 -65t-164.5 -24.5q-161 0 -247.5 71t-86.5 189q0 77 29.5 145t71.5 111h-115z" />
<glyph unicode="&#x20b6;" d="M41 266v180h104v138h-104v180h104v711h293q65 0 117 -4t109 -16t100.5 -31.5t84 -53t67 -79t42 -110t15.5 -145.5q0 -59 -11.5 -116.5t-44 -120t-83 -109t-135 -76.5t-193.5 -30h-86v-138h319v-180h-319v-266h-275v266h-104zM420 764h74q208 0 208 262q0 135 -62 191.5 t-183 56.5h-37v-510z" />
<glyph unicode="&#x20b8;" d="M45 1274v201h913v-201h-913zM47 920v200h909v-200h-317v-920h-274v920h-318z" />
<glyph unicode="&#x2122;" horiz-adv-x="1839" d="M86 1384v158h662v-158h-230v-731h-203v731h-229zM797 653l32 889h238l215 -532l213 532h234l24 -889h-199l-6 639l-239 -596h-86l-250 596l-8 -639h-168z" />
<glyph unicode="&#x2202;" horiz-adv-x="1114" d="M82 375q0 109 20.5 206.5t63 181t104.5 144t150 95t194 34.5q131 0 207 -45q8 47 8 101q0 92 -47 162.5t-141 70.5q-62 0 -110 -19.5t-113 -80.5l-84 129q181 139 377 139q89 0 156.5 -26.5t108 -68.5t66 -102.5t34.5 -120t9 -128.5q0 -61 -3 -124t-13 -144t-25 -156.5 t-41.5 -157t-61.5 -151t-85.5 -133t-111.5 -108t-143 -70.5t-177 -26q-65 0 -124 23t-109 68.5t-79.5 124.5t-29.5 182zM354 367q0 -51 14.5 -101t52 -89.5t91.5 -39.5q63 0 114.5 66.5t84.5 176.5t53 214t33 217q-53 38 -89.5 50.5t-84.5 12.5q-67 0 -120.5 -48t-85 -124.5 t-47.5 -163t-16 -171.5z" />
<glyph unicode="&#x220f;" horiz-adv-x="1662" d="M217 -184v1851h1251v-1851h-288v1648h-674v-1648h-289z" />
<glyph unicode="&#x2211;" horiz-adv-x="1257" d="M53 -123l549 879l-522 831l6 84h1026l27 -172h-666l395 -643l-485 -784h799l-33 -279h-1096v84z" />
<glyph unicode="&#x221a;" horiz-adv-x="1271" d="M23 915l434 189l282 -735l383 1501h154l-496 -1948h-133l-389 928l-184 -80z" />
<glyph unicode="&#x221e;" horiz-adv-x="1779" d="M121 635q0 76 22 146.5t65.5 130.5t116.5 96t167 36q140 0 240.5 -54.5t185.5 -166.5q45 77 95 125t120.5 74.5t162.5 26.5q49 0 96.5 -10t97.5 -37t87.5 -67.5t61.5 -108t24 -152.5q0 -186 -110.5 -301t-280.5 -115q-117 0 -218 48.5t-202 178.5q-21 -31 -40.5 -56 t-54 -56.5t-71.5 -52.5t-91 -35.5t-114 -14.5q-74 0 -136 22.5t-102.5 59t-68.5 85t-40.5 98.5t-12.5 100zM279 655q0 -95 48 -163t134 -68q90 0 154 39t143 145q-99 131 -171 184.5t-141 53.5q-82 0 -124.5 -54t-42.5 -137zM1008 713q98 -136 170.5 -192t154.5 -56 q77 0 123.5 52t46.5 147q0 108 -60.5 167.5t-154.5 59.5q-62 0 -114 -24.5t-86.5 -59t-79.5 -94.5z" />
<glyph unicode="&#x222b;" horiz-adv-x="677" d="M57 -496l58 185q80 -54 135 -54q82 0 82 134q0 57 -23 276l-116 1255q-15 161 -15 279q0 104 24.5 184t59 123t80.5 70t80.5 35t66.5 8q128 0 197 -51l-57 -185q-42 28 -73 41t-69 13q-75 0 -75 -152q0 -25 22 -258l115 -1255q16 -184 16 -279q0 -105 -22 -184.5 t-54.5 -122.5t-75.5 -70t-77.5 -35t-69.5 -8q-127 0 -209 51z" />
<glyph unicode="&#x2248;" horiz-adv-x="1069" d="M43 420q76 100 142 145t161 45q52 0 107.5 -23.5t97 -52t100 -52t115.5 -23.5q53 0 112.5 40t100.5 103l57 -96q-131 -191 -303 -191q-48 0 -94.5 15.5t-84 38t-74 45t-78.5 38t-83 15.5q-63 0 -113 -29.5t-106 -113.5zM43 780q76 100 142 145.5t161 45.5 q43 0 86.5 -15.5t81 -38t75.5 -45t84 -38t93 -15.5q52 0 112 40.5t101 103.5l57 -97q-130 -190 -303 -190q-48 0 -94.5 15.5t-84 38t-74 44.5t-78.5 37.5t-83 15.5q-63 0 -113 -29.5t-106 -113.5z" />
<glyph unicode="&#x2260;" horiz-adv-x="1069" d="M102 401v162h326l78 223h-404v162h457l121 359l104 -35l-110 -324h293v-162h-346l-80 -223h426v-162h-480l-120 -360l-101 35l109 325h-273z" />
<glyph unicode="&#x2264;" horiz-adv-x="1050" d="M74 836l860 596l61 -140l-659 -461l659 -458l-61 -144zM76 459l69 127l834 -586l-64 -127z" />
<glyph unicode="&#x2265;" horiz-adv-x="1050" d="M74 373l659 458l-659 461l61 140l860 -596l-860 -607zM90 0l834 586l69 -127l-839 -586z" />
<glyph unicode="&#x25ca;" horiz-adv-x="1282" d="M82 723l557 786l555 -786l-555 -784zM262 723l377 -543l375 543l-375 543z" />
<glyph unicode="&#xe000;" d="M0 0v1004h1004v-1004h-1004z" />
</font>
</defs>
</svg>
